<?xml version="1.0" encoding="utf-8"?>
<!-- Generator: Adobe Illustrator 16.0.0, SVG Export Plug-In . SVG Version: 6.00 Build 0)  -->
<!DOCTYPE svg PUBLIC "-//W3C//DTD SVG 1.1//EN" "http://www.w3.org/Graphics/SVG/1.1/DTD/svg11.dtd">
<svg version="1.1" id="Layer_1" xmlns="http://www.w3.org/2000/svg" xmlns:xlink="http://www.w3.org/1999/xlink" x="0px" y="0px"
	 width="1533px" height="2268px" viewBox="0 0 1533 2268" enable-background="new 0 0 1533 2268" xml:space="preserve">
<path fill-rule="evenodd" clip-rule="evenodd" fill="none" stroke="#FFFFFF" stroke-width="3" stroke-miterlimit="10" stroke-dasharray="4,12" d="
	M1208,281.528c0,0-264,158.472-118,116.472s420-227.927,296-104.963s-198,144.02-106,179.492c0,0,350.465-198.345-31.351,254.958
	c0,0-46.728,111.729,67.827,185.677s-216.706,45.443-27.797,112.298c52.809,18.689-41.779,116.986-41.779,116.986
	c-41.779,116.987,84.594,104.598,170.454,185.081s106.545,63.282-155.979,229s-67.509,200.318,85.105,384.472
	s6.401,127.878-6.708,130.033c0,0-295.543-86.394-165.624-7.647c129.919,78.747,452.414,153.856,277.952,146.207
	c-174.465-7.648-240.145-47.718-203.773,43.931c0,0-574.972-308.138-751.625-131.995c-99.854,99.564,97.797,38,97.797,38
	c-229.33-68.366-349.729,119.371-533.354-75.999S409.789,1609.833,179,1643.356s-51.467-59.299-51.467-59.299
	c260.533-19.774,372.265-646.292,198.418-404.425c-173.848,241.867-191.798,25.533-191.798,25.533
	c-92.617-650.69,170.625-546.429,81.798-433.545c-88.828,112.884-151.197-229.896-58.188-464.093s-23.609-286-23.609-286"/>
</svg>
