<?xml version="1.0" standalone="no"?>
<!DOCTYPE svg PUBLIC "-//W3C//DTD SVG 1.1//EN" "http://www.w3.org/Graphics/SVG/1.1/DTD/svg11.dtd" >
<svg xmlns="http://www.w3.org/2000/svg" xmlns:xlink="http://www.w3.org/1999/xlink" version="1.1">
<metadata>
Created by FontForge 20150715 at Mon Nov 23 22:43:19 2015
 By Jimmy Wärting
Copyright (c) 2015 by Brittney Murphy. All rights reserved.
</metadata>
<defs>
<font id="SeptemberMornings" horiz-adv-x="195" >
  <font-face 
    font-family="September Mornings"
    font-weight="400"
    font-stretch="normal"
    units-per-em="1000"
    panose-1="0 0 0 0 0 0 0 0 0 0"
    ascent="750"
    descent="-250"
    x-height="180"
    cap-height="328"
    bbox="-130.229 -383.818 385.533 602.095"
    underline-thickness="50"
    underline-position="-100"
    unicode-range="U+000D-F6C3"
  />
<missing-glyph horiz-adv-x="167" 
 />
    <glyph glyph-name=".notdef" horiz-adv-x="167" 
 />
    <glyph glyph-name="NULL" horiz-adv-x="0" 
 />
    <glyph glyph-name="NULL" horiz-adv-x="0" 
 />
    <glyph glyph-name="nonmarkingreturn" unicode="&#xd;" horiz-adv-x="167" 
 />
    <glyph glyph-name="space" unicode=" " horiz-adv-x="167" 
 />
    <glyph glyph-name="m" unicode="m" horiz-adv-x="358" 
d="M34 237q4 5 10 5t4 -8q-6 -11 -9.5 -38t-4.5 -57.5t0.5 -58t5.5 -39.5q15 35 26 70.5t31 67.5q3 4 6.5 6t7.5 -3q4 -17 7 -41.5t9 -49t17.5 -43.5t32.5 -25q18 -5 29 12t17 41t8 48t2 34q0 6 6.5 9t9.5 -5q1 -20 6 -43t16 -41t28.5 -27.5t43.5 -3.5q9 2 8.5 -5.5
t-8.5 -9.5q-20 -5 -36 -2t-28 12t-20 23t-14 30q-1 -13 -6 -28t-13 -28t-20.5 -21.5t-28.5 -8.5q-22 0 -35.5 17t-22 40t-13 48t-7.5 42q-8 -17 -13.5 -35t-11.5 -36t-13.5 -34.5t-19.5 -30.5q-9 -7 -12 2q-5 14 -8 44t-2.5 63.5t4 63.5t11.5 44z" />
    <glyph glyph-name="f" unicode="f" horiz-adv-x="205" 
d="M14 109q-6 3 -7.5 5t4.5 11q8 2 12.5 3t12.5 3q0 52 3.5 102.5t8.5 100.5q0 12 4 39t13 53t23.5 43.5t35.5 8.5q19 -8 34 -33t24 -59t11 -71.5t-5 -69.5q-5 -20 -17.5 -40t-31 -37t-41 -30t-46.5 -20q1 -18 0.5 -32.5t1.5 -31.5q26 1 53 -11t48.5 -32.5t34.5 -46.5
t11 -52q-2 -15 -11 -34.5t-22.5 -35t-31 -22t-35.5 5.5q-18 13 -29 39.5t-18 57.5t-10.5 61t-4.5 51q-4 -1 -7.5 -2.5t-8.5 -3.5q5 -3 2 -9t-9 -6q-5 1 -8 1t-5 5q-3 7 0.5 12.5t10 9t13.5 6t11 3.5q-1 17 -1.5 31t-0.5 31zM59 269q-6 -66 -6 -132q42 14 76.5 42t43.5 68
q6 25 5.5 59t-7.5 66t-20.5 57t-33.5 33q-19 2 -30 -20.5t-17 -55t-8 -65.5t-3 -52zM176 -115q13 30 5 57.5t-28.5 49t-47.5 34t-51 11.5q0 -7 2 -27t6.5 -45.5t11.5 -51.5t17 -45.5t23 -27.5t29 4q11 7 19.5 18t13.5 23z" />
    <glyph glyph-name="o" unicode="o" horiz-adv-x="118" 
d="M13 105q6 17 17.5 35.5t23.5 26.5q-2 5 5.5 12t11.5 1q11 -11 17.5 -24t11.5 -28q8 -28 4.5 -47.5t-14 -30.5t-25.5 -13t-30 4q-15 5 -22.5 21.5t0.5 42.5zM38 58q25 -12 37.5 -2.5t14.5 28.5t-4 40t-17 32q-11 -3 -22 -16.5t-17.5 -29.5t-5.5 -31t14 -21z" />
    <glyph glyph-name="p" unicode="p" horiz-adv-x="170" 
d="M3 194q0 6 5 9.5t9 -2.5q5 -29 9 -63.5t7 -63.5q1 15 9 38.5t20 44t27.5 32.5t32.5 5q27 -11 34 -39.5t-3 -57t-34 -48.5t-58 -14q-8 0 -6.5 6.5t6.5 8.5q29 -7 49.5 9t29 40t3 47.5t-28.5 32.5q-19 -2 -33.5 -22t-23.5 -49.5t-13 -64t-3 -65.5q10 -83 15 -169
q-1 -8 -7.5 -8t-7.5 5q-11 96 -18.5 193.5t-19.5 194.5z" />
    <glyph glyph-name="h" unicode="h" horiz-adv-x="194" 
d="M10 346q0 7 7 10t9 -5q0 -70 4.5 -139t12.5 -139v2q0 3 0.5 -2.5t1.5 -8.5q5 21 11 40.5t17 38.5q9 18 19 21.5t19 -2t18.5 -16.5t18.5 -23.5t17.5 -22.5t16.5 -13q6 -4 2.5 -9t-9.5 -5q-11 4 -23 16.5t-22.5 26.5t-19 25t-11.5 11q-23 -23 -30 -53.5t-16 -61.5
q-3 -6 -9.5 -6t-10.5 5q-13 77 -18 154.5t-5 155.5z" />
    <glyph glyph-name="d" unicode="d" horiz-adv-x="131" 
d="M106 152q6 -7 5 -14t-4 -9q1 -17 1.5 -32.5t2.5 -30.5q1 -6 3.5 -20.5t6.5 -29t9 -25t11 -7.5q8 5 9.5 -1.5t-4.5 -11.5q-14 -9 -23.5 2.5t-15 29.5t-8 36t-2.5 22q-2 8 -3 19t-2 20q-5 -12 -15 -22.5t-21.5 -14.5t-23.5 -1t-19 18q-8 16 -3 32t18 28t30 18.5t33 3.5
l-9 206q3 4 6.5 6t6.5 -3q3 -18 5 -47.5t3 -62t2 -62t1 -47.5zM59 80q15 14 22.5 30t10.5 35q-11 3 -25 -0.5t-25 -12t-17 -20.5t0 -25q5 -9 14 -12t20 5z" />
    <glyph glyph-name="n" unicode="n" horiz-adv-x="201" 
d="M29 176q2 6 7.5 8.5t7.5 -5.5q-2 -32 -5.5 -65t-3.5 -66q9 16 17 34.5t16.5 34t17 26.5t19.5 12t24 -11t30 -42q8 -13 15.5 -25.5t17.5 -23.5q5 -6 -1.5 -11.5t-11.5 -0.5q-8 9 -17 25.5t-18.5 32t-20.5 27.5t-23 12q-12 -10 -19.5 -23.5t-13.5 -28t-12.5 -29
t-16.5 -26.5q-4 -4 -9.5 -4t-7.5 6q-5 35 0 72t8 71z" />
    <glyph glyph-name="i" unicode="i" horiz-adv-x="78" 
d="M34 182q2 5 8 7.5t7 -5.5q-1 -38 -3 -74.5t-3 -74.5q-2 -7 -8.5 -9.5t-6.5 6.5q1 38 3 75t3 75zM48 285q4 -5 -1.5 -11t-10.5 -2q-6 4 0 10.5t12 2.5z" />
    <glyph glyph-name="l" unicode="l" horiz-adv-x="76" 
d="M32 405q2 6 8 8.5t8 -5.5q-1 -94 -3.5 -186t-3.5 -186q-1 -6 -8 -8.5t-7 6.5q1 94 3 186t3 185z" />
    <glyph glyph-name="q" unicode="q" horiz-adv-x="165" 
d="M141 -74q25 6 53 8.5t55 2t50 -4.5t39 -11q12 -5 16.5 -14t4 -18.5t-4.5 -19t-10 -16.5q-12 -13 -33.5 -28t-46.5 -27.5t-50 -19.5t-44 -4q-15 2 -24 18.5t-13.5 38t-5.5 43t-2 34.5q-34 -8 -68.5 -20t-66.5 -29q-1 -11 -9.5 -15.5t-17.5 -5t-14 3t3 9.5q38 27 81.5 42.5
t91.5 28.5q0 37 2.5 94t4.5 114q-5 -9 -17 -25.5t-27 -31t-31 -23t-28 -1.5q-21 11 -20 31.5t13 40t31 34.5t35 16q7 0 18.5 -2t19.5 -7q5 13 7 28q0 19 -0.5 38t1.5 39q2 5 8.5 6t8.5 -4v-3l-2 -110q-1 -24 -2 -44.5t-2 -45.5t-2 -58t-2 -82zM142 -89q0 -16 0.5 -35.5
t4 -37.5t11 -31.5t19.5 -16.5q14 -3 39.5 4.5t50.5 20.5t45.5 29t26 31t-9 27.5t-59.5 17.5q-30 4 -63 1t-65 -10zM27 69q11 -12 25.5 -5t28 21t24.5 31t14 26q-13 18 -32 13t-35 -20.5t-24.5 -35t-0.5 -30.5z" />
    <glyph glyph-name="u" unicode="u" horiz-adv-x="135" 
d="M16 161q0 7 6.5 10t8.5 -5q0 -6 0.5 -24t2.5 -36.5t6 -34t12 -16.5q6 0 12.5 7.5t12.5 19t11.5 24t8.5 22.5q0 17 0.5 31.5t1.5 24.5q2 11 12 8q9 -7 8.5 -24t-6.5 -37q0 -29 2.5 -56.5t7.5 -37.5q1 -6 -4 -10t-10 1q-5 10 -7.5 27t-3.5 37q-10 -19 -22 -33.5t-23 -18
t-20.5 8t-13.5 44.5q-2 17 -2.5 34t-0.5 34z" />
    <glyph glyph-name="v" unicode="v" horiz-adv-x="143" 
d="M9 174q0 7 6.5 10t8.5 -5q1 -12 6 -33.5t11.5 -44t14 -41.5t14.5 -26q13 8 22 33t14.5 54t8 57t3.5 43q2 6 7.5 6.5t6.5 -7.5q-2 -23 -5 -53.5t-9.5 -60t-18 -54.5t-30.5 -38q-5 -3 -8 2q-9 10 -18 33t-16.5 48.5t-12.5 47.5t-5 29z" />
    <glyph glyph-name="w" unicode="w" horiz-adv-x="312" 
d="M15 190q0 8 7 11t8 -6q0 -12 1.5 -36.5t4.5 -51t9 -49.5t14.5 -31t21 3.5t29.5 54.5l6 16t5 16q2 5 6.5 7.5t8.5 -2.5l16 -28t19 -27q8 -10 17 -19.5t19 -16.5q18 -12 32.5 -4t24.5 24.5t15 36.5t4 33q0 6 -2 17t-6.5 23t-11 23t-15.5 17q-8 4 -3.5 10.5t11.5 4.5
q11 -8 19 -22t13.5 -29.5t8 -31.5t1.5 -29q-1 -23 -12.5 -46t-29 -36t-39 -12t-42.5 25q-12 14 -23.5 30t-20.5 33q-3 -7 -7.5 -18.5t-7.5 -17.5q-8 -18 -20 -33t-24.5 -20.5t-24 1t-18.5 32.5q-10 37 -12 74t-2 74z" />
    <glyph glyph-name="z" unicode="z" horiz-adv-x="174" 
d="M19 162q-10 -3 -10 2.5t7 10.5q13 7 39 13t50 7q35 2 47 -5.5t9.5 -20.5t-16 -30.5t-29.5 -35.5t-30.5 -34.5t-19.5 -27.5q6 -7 16 -9t22 -0.5t24.5 4.5t21.5 5q4 1 5.5 -1t1 -4.5t-3 -5t-6.5 -3.5q-12 -3 -27 -6.5t-29.5 -4.5t-26 2t-16.5 12q-3 6 9.5 24t30 38t34 38.5
t19.5 25.5q6 13 0 19.5t-18.5 7.5t-29 -1.5t-32 -6t-27.5 -7.5t-15 -6z" />
    <glyph glyph-name="y" unicode="y" horiz-adv-x="200" 
d="M10 150q-2 5 3 10t10 1q16 -20 31 -42t34 -39h2q5 11 8 24t5 27q-4 23 -6.5 47t-1.5 49q1 8 7 9t8 -4q1 -9 2 -25t2.5 -34.5t4 -38t6.5 -36.5q6 -25 13 -49t14 -47l36 9q5 1 6 -4t-4 -8q-8 -2 -16.5 -4.5t-17.5 -4.5q20 -60 41 -124.5t29 -121.5q3 -29 -7.5 -54.5
t-36 -41t-67 -17.5t-99.5 16q-18 5 -44 20.5t-49.5 37.5t-39 47t-13.5 50q4 43 33.5 74t70 54t84.5 39t79 28q-7 24 -14.5 48t-12.5 48q-2 -5 -4 -10.5t-4 -10.5t-8 -7q-13 -1 -25 8.5t-22.5 23.5t-20 29t-16.5 24zM210 -261q0 22 -7.5 52.5t-18 63.5t-22 66.5t-20.5 62.5
q-26 -8 -68.5 -23.5t-84 -38t-71.5 -52t-31 -65.5q0 -24 11 -45.5t30 -39.5t42.5 -32t48.5 -24q26 -11 59.5 -16t63 1.5t49.5 27.5t19 62z" />
    <glyph glyph-name="g" unicode="g" horiz-adv-x="155" 
d="M143 121q2 -7 -4.5 -11.5t-9.5 3.5q-3 18 -12 25q5 -49 17 -90.5t23 -82.5q18 6 38.5 11.5t38 7t30.5 -2t17 -14.5q2 -6 -4.5 -11t-10.5 3q-3 9 -17.5 9.5t-31.5 -3t-33 -8.5t-22 -6q6 -20 14 -45.5t15.5 -54t11.5 -58t2 -57.5q-3 -37 -18 -62t-39.5 -39.5t-56 -17.5
t-66.5 5q-20 4 -39 12.5t-33.5 20.5t-23.5 27.5t-10 33.5q-3 43 17 81t53.5 69.5t74 55t77.5 37.5q-11 35 -21 70t-17 70q-3 -11 -14.5 -26t-25.5 -26q-24 -19 -41 -7t-12 43q2 15 10 28.5t20 24t25.5 17.5t26.5 9q-2 25 0 51q2 5 8 8.5t11 -1.5q7 -17 9 -32.5t0 -31.5
q19 -10 23 -35zM29 -361q29 -7 56 -5.5t48.5 13t36 33.5t18.5 56q3 25 0 51t-9.5 53t-15.5 53.5t-17 52.5q-30 -9 -68.5 -32.5t-72.5 -55.5t-55 -69t-15 -74q5 -29 32.5 -48.5t61.5 -27.5zM99 119q-2 7 -3 13.5t-2 14.5q-32 -9 -48 -26t-20 -34q-2 -7 -1 -14.5t5 -13
t10 -6.5t15 5q18 14 44 61z" />
    <glyph glyph-name="j" unicode="j" horiz-adv-x="157" 
d="M30 198q-2 7 3.5 11.5t10.5 -2.5q14 -34 25 -72.5t19 -61.5l49 43q6 5 10 1t-1 -11q-14 -11 -27 -23.5t-27 -24.5q12 -56 18 -108.5t4.5 -97t-11 -78.5t-30.5 -51q-16 -13 -46.5 -15.5t-60.5 7t-50 32t-15 61.5q4 28 13.5 52t24 46t32 43.5t37.5 44.5q16 18 32 34t34 33
q-10 34 -21.5 73t-22.5 64zM73 -250q15 24 21.5 58t6 73t-6.5 81t-15 82q-44 -41 -83 -84.5t-63 -96.5q-9 -19 -13.5 -38.5t-1.5 -37.5t15 -33t36 -25q12 -5 27 -7t29.5 0t27 8.5t20.5 19.5zM10 262q-8 1 -5.5 7.5t9.5 7.5q17 -1 13.5 -8t-17.5 -7z" />
    <glyph glyph-name="k" unicode="k" horiz-adv-x="257" 
d="M20 429q0 7 7 10t8 -5v-177.5t8 -176.5q2 11 12.5 32.5t25.5 43.5t31.5 38t30.5 16q7 -1 7 -6q-3 -21 -21 -45.5t-37.5 -48.5t-33 -45t-7.5 -36q19 -2 42 1.5t47.5 11t51 17.5t52.5 20q8 2 7.5 -4t-5.5 -10q-24 -9 -49 -19t-51 -18t-52.5 -12t-52.5 -1q-3 2 -6 14.5
t-5.5 28.5t-4.5 32t-3 25q-7 78 -4.5 157.5t2.5 156.5zM132 191q-20 -20 -35 -39.5t-27 -43.5q17 23 35.5 44.5t26.5 38.5z" />
    <glyph glyph-name="e" unicode="e" horiz-adv-x="124" 
d="M10 101q1 16 7 32t16 27t22 15.5t25 -2.5q21 -11 23.5 -27.5t-7.5 -31t-28.5 -25t-40.5 -9.5q6 -17 25 -22.5t54 14.5q9 2 8.5 -4t-5.5 -10q-16 -9 -34.5 -14.5t-37.5 3.5q-11 5 -19.5 16.5t-7.5 37.5zM72 158q-11 4 -20 -0.5t-15.5 -14t-10 -22t-3.5 -24.5q18 -5 32.5 2
t23 18t7.5 23t-14 18z" />
    <glyph glyph-name="t" unicode="t" horiz-adv-x="201" 
d="M15 150q-9 0 -6.5 7t8.5 9q20 0 39 1.5t39 3.5q2 51 3.5 102.5t3.5 103.5q2 6 8 8t8 -6q-2 -52 -4.5 -103t-2.5 -102q20 2 38.5 4.5t38.5 4.5q8 -1 6 -7t-8 -8q-19 -2 -37.5 -5t-37.5 -5q-1 -7 -1.5 -25t-0.5 -40.5t2 -47t6 -43.5q-1 -6 -7 -9.5t-9 4.5q-4 20 -6 44.5
t-2 47.5t0.5 41.5t1.5 25.5l-40 -4t-40 -2z" />
    <glyph glyph-name="r" unicode="r" horiz-adv-x="193" 
d="M18 220q0 7 7 10t9 -5v-85.5t8 -85.5q9 33 18 56.5t23.5 38t37.5 22t61 9.5q8 -2 6 -8t-8 -8q-45 -2 -66 -11.5t-30.5 -26t-15 -41t-18.5 -56.5q-2 -5 -7 -7t-8 5q-17 47 -17 96v97z" />
    <glyph glyph-name="a" unicode="a" horiz-adv-x="179" 
d="M139 150q2 -5 -3.5 -10t-10.5 0q4 -19 10 -40t12 -40.5t13 -35t13 -23.5q2 -6 -3.5 -10.5t-10.5 0.5q-17 25 -23 52t-13 56l-5 17q-5 -27 -19 -48q-9 -12 -22.5 -23t-27 -14.5t-24.5 3.5t-15 30q-3 21 4 42.5t20.5 39t31 29t33.5 13.5v4q2 5 6.5 7t8.5 -3l2 -12
q17 -7 23 -34zM87 74q14 22 16 47t-1 50q-12 2 -27 -6.5t-27 -23.5t-19 -33.5t-4 -34.5q3 -17 10 -22.5t16 -4t18.5 9t17.5 18.5z" />
    <glyph glyph-name="b" unicode="b" horiz-adv-x="223" 
d="M26 213q-9 -1 -11.5 -2t-4.5 -2q-15 -5 -16.5 1.5t3.5 12.5l29 6q-1 71 2 142t19 140q3 12 7.5 27t10.5 26q21 40 46 38q29 -4 48.5 -31t31 -62.5t16 -71t3.5 -56.5q-2 -31 -17.5 -57.5t-40 -47t-54 -35.5t-57.5 -23v-45t0.5 -17.5l1 -11t1.5 -25.5q5 14 15 26t27 23
q22 13 39 -0.5t19 -35.5q2 -20 -7.5 -35t-24 -25t-30.5 -13.5t-28 0.5v-55q0 -5 -6.5 -8.5t-8.5 4.5q-5 30 -7.5 60.5t-3.5 62.5q-1 21 -1 27.5v12t-0.5 15t-0.5 35.5zM118 583q-20 4 -33 -15t-21.5 -51.5t-13 -74t-6.5 -82t-2.5 -75t-0.5 -52.5q27 7 52.5 19.5t46.5 30.5
t35.5 42t18.5 54q2 13 -1.5 44.5t-13 65.5t-25 61.5t-36.5 32.5zM105 156q-9 1 -20.5 -9t-19.5 -23.5t-10 -27.5t6 -21q6 -5 20 -2t26.5 12.5t19.5 24t-1 31.5q-2 6 -8 10.5t-13 4.5z" />
    <glyph glyph-name="Y" unicode="Y" horiz-adv-x="284" 
d="M90 209q-4 8 3 11t9 -2q7 -13 14.5 -32t17 -37.5t20.5 -34.5t24 -22q12 11 14.5 38t2.5 56q-2 13 -3.5 29t-2.5 31t-1 27.5t1 19.5q2 6 6.5 7t7.5 -4q4 -6 5.5 -20.5t2 -31t0 -33t0.5 -25.5q5 -36 13 -71t17 -70l23 8q8 1 10.5 -4.5t-0.5 -7.5l-29 -10q5 -21 11.5 -42.5
t13.5 -43.5q11 -41 15.5 -74t-3 -56.5t-30.5 -36t-68 -12.5q-13 0 -39 4t-57 17q-34 14 -57 33.5t-29 41.5t7 45.5t50 47.5q36 23 80.5 45.5t86.5 39.5q-5 21 -9.5 42t-9.5 42q-1 -4 -3.5 -13t-6.5 -17.5t-9.5 -14.5t-12.5 -3q-17 8 -31 27t-25 39.5t-18.5 39.5t-10.5 27z
M261 -77q-7 26 -15 51t-14 52q-26 -11 -52 -23t-47.5 -23.5t-38.5 -21t-25 -14.5q-44 -26 -49 -51.5t10.5 -46.5t43 -36t47.5 -19q52 -12 85.5 -9.5t50 19t17 47t-12.5 75.5z" />
    <glyph glyph-name="A" unicode="A" horiz-adv-x="199" 
d="M11 72q-8 1 -9.5 7.5t5.5 8.5l19 4q13 54 27 106t25 106q2 4 7 3.5t8 -7.5q1 -10 5 -31.5t9 -48.5t11.5 -56t12.5 -54l52 5q8 -2 9.5 -7.5t-4.5 -8.5q-27 -2 -54 -6q6 -23 18 -46.5t30 -30.5q8 -4 5.5 -11t-11.5 -4q-37 13 -58 91q-20 -3 -38.5 -6t-38.5 -7l-19 -77
q-5 -4 -9.5 -2.5t-5.5 7.5q2 9 7 29.5t9 37.5zM44 97q17 3 35 5.5t35 4.5q-11 38 -18 78t-11 66z" />
    <glyph glyph-name="B" unicode="B" horiz-adv-x="239" 
d="M26 265q1 7 5.5 7.5t7.5 -2.5l1 1q27 43 54 43t37 -50q5 -32 -8.5 -59.5t-28.5 -51.5q18 7 40 10t42 1t34.5 -9.5t17.5 -22.5q5 -28 -16 -59.5t-53.5 -54t-68.5 -31t-61 8.5q-9 6 -14 17.5t-12 21.5q-4 11 7 11v2q0 40 1.5 80.5t9.5 82.5zM37 220q-5 -48 -7.5 -96.5
t-4.5 -96.5q7 -12 14 -18q18 -15 45 -8t53 24.5t47 40t27 38.5q7 17 -1 26.5t-21 14.5q-10 4 -24.5 5t-30 -1.5t-29 -7t-22.5 -11.5q-2 -6 -6.5 -8t-7.5 -0.5t-3.5 6.5t5.5 13q7 15 16 29t15.5 28.5t10.5 30t2 33.5q-1 9 -5 18t-10.5 14t-14 4.5t-16.5 -9.5q-23 -27 -32 -69
z" />
    <glyph glyph-name="C" unicode="C" horiz-adv-x="267" 
d="M92 296q10 3 23.5 2t25.5 -6t19.5 -14t5.5 -21q0 -7 -4 -10.5t-8 -4.5t-6.5 2t0.5 10q4 9 -1 15.5t-14 10t-19 4t-17 -1.5q-16 -5 -28.5 -16.5t-21.5 -25.5t-15 -30t-9 -31q-5 -27 -1 -56t18 -52q21 -33 49 -41t56.5 -0.5t55 26.5t45.5 41q8 5 12.5 0.5t-0.5 -11.5
q-16 -19 -35 -35t-41 -26.5t-46.5 -13.5t-49.5 4q-24 6 -41 23.5t-26.5 41t-12.5 50.5t2 53q3 18 9.5 35.5t17 33t24.5 27t33 17.5z" />
    <glyph glyph-name="D" unicode="D" horiz-adv-x="296" 
d="M3 37q2 35 3.5 69.5t3.5 69.5q-2 40 -1 73.5t13 45.5l9.5 9.5t9.5 5.5q8 2 23 -5t30.5 -16.5t28.5 -19.5t19 -13q13 -9 36 -24.5t45.5 -33.5t40.5 -37t21 -35q7 -33 -12.5 -59.5t-51 -43t-68.5 -21t-66 6.5q-5 6 -1 11.5t11 0.5q10 -8 28.5 -7.5t39.5 6.5t42.5 17
t37.5 25t23.5 29.5t1.5 31.5q-5 11 -20 27.5t-36 34t-45.5 36t-48 33.5t-43.5 26t-32 14q-9 -9 -13 -25.5t-5.5 -35.5t-1 -38t-0.5 -33q3 -39 4 -74.5t-10 -52.5v-4l-2 1q-1 0 -1 -1q-5 -2 -8.5 -0.5t-4.5 6.5z" />
    <glyph glyph-name="E" unicode="E" horiz-adv-x="216" 
d="M10 130q-9 -2 -10 4.5t5 10.5l27 11q-6 38 -4 75t21 62q5 6 21.5 8t35 2t36 -1t23.5 -1q7 -2 7 -8t-8 -8q-12 0 -27.5 1t-31 1.5t-28 -1t-17.5 -5.5q-12 -11 -14.5 -45t2.5 -74q36 13 72.5 21.5t73.5 17.5q8 0 9.5 -5.5t-4.5 -9.5q-38 -9 -75.5 -17.5t-74.5 -22.5
q3 -21 8 -41t11 -36.5t12.5 -28.5t14.5 -16q9 -5 23.5 -1t29.5 11t29 15t22 12q7 0 9 -5.5t-5 -9.5q-13 -7 -26.5 -15t-27.5 -14t-29 -8.5t-31 1.5q-14 4 -23 21.5t-12 28.5q-5 16 -10 37t-9 44l-25 -11v0z" />
    <glyph glyph-name="F" unicode="F" horiz-adv-x="242" 
d="M56 108q-7 2 -7 7t5 9h12l-10 77l-5 41q-21 -3 -41 -3q-8 1 -8 6.5t6 8.5q11 0 20.5 1t19.5 3v1q0 5 -2.5 11t-3 11t1.5 9t10 6q8 0 9.5 -6t-4.5 -10h-2q2 -2 3.5 -5.5t3.5 -11.5v-3q41 7 80.5 15t81.5 10q8 0 9 -7t-8 -8q-41 -2 -80.5 -10.5t-79.5 -14.5l5 -43l9 -77
q38 5 73 13t72 17q7 0 9 -6t-5 -10q-37 -8 -73 -16t-73 -13q6 -46 16 -87q0 -7 -6 -8.5t-9 5.5q-5 22 -9 44t-8 45q-4 -1 -12 -1z" />
    <glyph glyph-name="G" unicode="G" 
d="M122 298q14 -27 17.5 -56t0.5 -52q8 -32 16.5 -64t14.5 -61l7 2q8 0 9.5 -5.5t-5.5 -9.5l-7 -4q5 -24 11 -49.5t10 -52t5 -52t-3 -49.5q-4 -19 -19.5 -27.5t-36 -9t-43 5.5t-38.5 15q-14 8 -26 20t-20.5 27t-12 32.5t1.5 36.5q4 17 19 34t36 32.5t46 28t51 20.5l-19 91
l-3 11q-6 -19 -17 -36.5t-25.5 -28t-32 -12t-35.5 11.5q-8 6 -12.5 16t-6 21.5t-0.5 21.5t3 16q6 19 15 36.5t22 30.5t28.5 20t35.5 5h2q-3 13 -3 29q2 6 6.5 8t7.5 -3zM172 -17q-3 15 -6.5 30t-5.5 30q-24 -9 -51.5 -20.5t-49.5 -28.5t-34 -39.5t-5 -53.5q6 -24 31 -44
t53.5 -28.5t52.5 0t28 41.5q3 29 -2 57t-11 56zM127 190q-3 14 -6.5 28.5t-6.5 28.5q-3 0 -5 1q-26 3 -46.5 -14.5t-31.5 -41t-11.5 -47.5t13.5 -35q16 -12 31 -7.5t28 17.5t21.5 30t11.5 30q2 6 2 10z" />
    <glyph glyph-name="H" unicode="H" horiz-adv-x="254" 
d="M12 305q2 8 8 8t8 -7q1 -45 6.5 -89t10.5 -89q38 8 77.5 13t78.5 7q-3 42 -5.5 82.5t-3.5 82.5q2 8 7.5 7.5t7.5 -6.5q1 -42 4 -82.5t6 -82.5q6 1 11.5 1h11.5q8 0 9 -7t-7 -9h-12t-11 -1q2 -35 4 -69.5t3 -69.5q0 -8 -6.5 -8.5t-8.5 7.5q-2 35 -3.5 70t-4.5 70
q-80 -3 -156 -22q2 -25 4.5 -50.5t3.5 -50.5q0 -9 -7 -9t-8 8q-3 49 -9 99l-20 -5q-8 -2 -9.5 4.5t5.5 10.5l22 6q-5 45 -10 90.5t-7 90.5z" />
    <glyph glyph-name="I" unicode="I" horiz-adv-x="290" 
d="M9 -3q-8 1 -8 6.5t6 8.5q29 0 58.5 2t58.5 5q-9 69 -11.5 138t-2.5 138q-25 -4 -49 -6.5t-49 -3.5q-7 2 -7 7t5 9q13 0 27 1t37 4t58 8t89 14q8 0 9 -7t-7 -9q-25 -3 -49 -7t-49 -9q0 -69 3 -137.5t11 -137.5q35 4 68.5 9t68.5 10q8 0 9 -7t-8 -9q-34 -5 -67.5 -10
t-68.5 -9q0 -8 -7 -8.5t-9 6.5l-58 -4t-58 -2z" />
    <glyph glyph-name="J" unicode="J" horiz-adv-x="279" 
d="M201 132q-10 38 -22 75t-26 75q-4 1 -4.5 4t1 6t5 4.5t7.5 -0.5q7 -6 14.5 -26.5t15 -44.5t14 -48t9.5 -38l49 21q7 0 9 -5.5t-5 -10.5q-10 -5 -22 -10t-26 -10q8 -32 14 -63t10 -63q2 -20 2 -45.5t-6 -45.5q-10 -36 -36.5 -50.5t-59 -12t-64.5 18t-52.5 39t-23.5 53
t23 58.5q21 24 41 40t48 33q20 13 41 24.5t44 21.5zM212 -118q15 19 18 49t-0.5 63.5t-11 66t-13.5 56.5q-29 -13 -59.5 -29.5t-57 -35.5t-45 -40.5t-22.5 -45.5q-3 -19 6.5 -36.5t26.5 -32t39.5 -24t44.5 -12.5t42 1.5t32 19.5z" />
    <glyph glyph-name="K" unicode="K" horiz-adv-x="394" 
d="M92 316q2 8 7.5 8t7.5 -7q-2 -45 -3 -88.5t-2 -88.5q16 16 35 35.5t37 39t33.5 38t24.5 32.5q-4 6 0 11q5 5 8 7t8 5q10 0 9 -9q-3 -12 -20.5 -35t-41 -49t-49 -52t-44.5 -44q0 -1 0.5 -2t0.5 -2q8 4 17 7t17 7q92 31 154 -1t94 -115q2 -8 -3.5 -10.5t-10.5 1.5
q-35 100 -103 118.5t-166 -26.5v-50t4 -57q-1 -8 -7 -9t-8 5q-4 24 -4 50t-1 51q-9 -7 -19 -15.5t-19.5 -16t-20 -11.5t-21.5 -2q-6 3 -3 10q1 4 10.5 12t21 17t22 17.5t13.5 11.5l16 15l2 96t4 96z" />
    <glyph glyph-name="L" unicode="L" horiz-adv-x="244" 
d="M7 321q2 8 8.5 7t6.5 -9q0 -6 -0.5 -26.5t-0.5 -44.5t-0.5 -45t-0.5 -27q1 -31 3.5 -65t14.5 -59t37 -35t69 7q23 9 42.5 21t39.5 23q8 0 9.5 -5.5t-4.5 -9.5q-20 -11 -40 -23t-41 -20q-47 -19 -76 -9.5t-45 36.5t-21.5 66t-6 80t2 78t3.5 60z" />
    <glyph glyph-name="M" unicode="M" horiz-adv-x="368" 
d="M21 -19q-4 -8 -8.5 -6t-7 7t-2 10t7.5 4q28 44 41 95t24 101v1q3 21 5.5 42.5t4.5 42.5v15.5t2 14.5v6l1 -1v1q4 6 9.5 4t5.5 -9q0 -11 -0.5 -20.5t-1.5 -20.5q1 -23 5 -50.5t9.5 -54t12.5 -49.5t13 -37q3 -6 7 -15t10 -17.5t13.5 -13.5t16.5 -2q17 4 28.5 19.5t18 37.5
t10 48.5t3.5 52.5q-4 25 -5.5 51t-1.5 52q2 8 7.5 8t7.5 -6h1v-1q5 -29 8 -62.5t0 -67.5q5 -34 14.5 -64t25.5 -47q2 -2 6 -4t10 -2.5t13.5 2.5t16.5 12q7 0 8 -5.5t-4 -10.5q-8 -7 -15.5 -11.5t-16.5 -4.5q-20 0 -32 16.5t-17 31.5q-4 13 -7.5 25t-6.5 25q-4 -23 -14 -48
q-15 -39 -33.5 -53t-36.5 -9t-33.5 27t-25.5 55q-8 28 -13.5 56t-9.5 51q-8 -59 -26 -115.5t-48 -106.5z" />
    <glyph glyph-name="N" unicode="N" horiz-adv-x="313" 
d="M16 279q1 8 8 7t7 -9q-1 -30 -4 -60l-6 -60t-4.5 -60t1.5 -60q16 26 28 57t22.5 62.5t20.5 60t23 50.5q6 4 10 2q7 -3 11.5 -13t6.5 -23t3.5 -26t2.5 -21q6 -37 14 -69t23.5 -51t41.5 -20t68 25q8 5 12 0.5t-1 -11.5q-12 -11 -28.5 -18t-33.5 -9.5t-33 0.5t-27 12
q-24 21 -35.5 60t-15.5 80q-2 17 -3.5 33.5t-7.5 32.5q-1 0 -6.5 -14.5t-13.5 -38t-17.5 -51.5t-19.5 -53.5t-19.5 -45.5t-16.5 -26q-5 -6 -13.5 -4t-10.5 11q-3 31 -2 62.5t4 63t6.5 62.5t4.5 62z" />
    <glyph glyph-name="O" unicode="O" horiz-adv-x="245" 
d="M95 271q32 -12 65 -39.5t53.5 -60.5t22 -66.5t-30.5 -56.5q-23 -16 -52.5 -25.5t-58.5 -7.5q-41 2 -64 32.5t-27.5 70t8.5 78t43 56.5l4 3q-1 0 -1 1l-3.5 7t0.5 8q5 6 16.5 5.5t24.5 -5.5zM98 30q23 -1 48 6.5t46 21.5q27 21 25.5 51t-19.5 59t-47 52.5t-57 33.5
q-13 -5 -22 -10t-10 -5q-24 -18 -35.5 -52t-8 -68.5t22.5 -60.5t57 -28z" />
    <glyph glyph-name="P" unicode="P" 
d="M18 265q2 7 7 8.5t7 -1.5l3 9q4 9 13 14t19 6.5t18.5 0.5t13.5 -2q14 -5 30.5 -14.5t29.5 -23t19.5 -32.5t2.5 -44q-5 -21 -21 -40t-40 -33q-37 -21 -75 -31q0 -3 1.5 -15.5t3 -26.5t2.5 -25t1 -12q-2 -5 -9 -6t-9 4q-1 6 -2.5 16.5t-3 22t-3 22t-1.5 17.5q-9 -1 -15 1
t-7 8q-2 8 5.5 14.5t13.5 8.5q-3 38 -4 77t0 77zM49 275q-7 -9 -9 -28.5t-2 -44.5t2 -52.5t4 -52.5q28 5 56 20t46.5 35.5t22 45t-17.5 49.5q-5 6 -17.5 16t-28 17t-31 7.5t-25.5 -12.5zM20 95q2 0 2 -0.5t1 -0.5q0 3 -1 4z" />
    <glyph glyph-name="Q" unicode="Q" horiz-adv-x="226" 
d="M41 271q10 12 28 19t36.5 7t32.5 -7.5t16 -25.5q-2 -7 -8 -7t-8 8q0 7 -7.5 12t-18.5 6t-24 -2t-25 -11q-1 0 -1 -1q35 -3 69.5 -10.5t60.5 -33.5q17 -18 21 -41t-2 -47.5t-19.5 -47.5t-31.5 -41q18 -32 36 -64.5t35 -66.5q2 -7 -3.5 -10t-10.5 2q-17 33 -34 65.5
t-35 63.5q-31 -25 -62 -25q-29 0 -47.5 15t-27.5 38.5t-10 52.5t3.5 58t14 54t22.5 40zM98 123q-3 7 2.5 11t10.5 -3l39 -66q16 15 29 34.5t18.5 40t2 39.5t-19.5 34q-28 26 -62 32.5t-70 8.5q-11 -16 -18 -39t-10 -49t-1 -52t9.5 -45.5t21.5 -31t36 -8.5q12 1 25.5 7.5
t26.5 17.5l-20 34t-20 35z" />
    <glyph glyph-name="R" unicode="R" horiz-adv-x="277" 
d="M3 289q-3 7 2.5 11t10.5 -4q10 -21 14 -41l5 5q20 13 47 15.5t50 -6.5t36 -28.5t4 -49.5q-6 -22 -24.5 -42.5t-40 -37t-41 -29t-27.5 -17.5q18 -4 47.5 -11t61 -13t62 -10t51.5 -2q8 0 9 -7t-7 -9q-26 -2 -56 1.5t-60.5 9.5t-60.5 13.5t-55 13.5q1 -12 1 -22v-18
q-2 -5 -7 -6t-8 5h-1v5q-2 16 -2.5 31.5t0.5 32.5q-1 19 -2 40t-0.5 41t2 38.5t5.5 32.5q-5 31 -16 58zM47 249q-9 -9 -12 -22q3 -37 -1 -74t-5 -75q7 3 25 14t38.5 27t38.5 35.5t25 40.5q7 22 -4 38t-30.5 23.5t-41 6.5t-33.5 -14z" />
    <glyph glyph-name="S" unicode="S" horiz-adv-x="284" 
d="M203 220q3 -8 -4 -11t-11 4l-4 18t-8 15q-12 14 -32.5 17.5t-41.5 -1t-40.5 -14t-30.5 -21.5q-11 -11 -11.5 -28t10.5 -29q20 -20 41.5 -32t45 -19t48 -11.5t49.5 -9.5q6 -2 17 -4.5t21.5 -7.5t17 -11.5t3.5 -15.5t-13 -14.5t-22 -9.5t-24.5 -5.5t-21.5 -2.5
q-15 -2 -34 -3t-39 -0.5t-39.5 2.5t-34.5 6q-19 5 -24.5 13.5t1.5 27.5q5 7 10.5 5.5t5.5 -9.5l-6 -14q7 -5 25 -8.5t41 -5.5t48.5 -2t48 2.5t39 7.5t21.5 13q-1 5 -7 8.5t-13 6t-14.5 4t-11.5 2.5q-15 5 -49 10.5t-69 17.5t-62 33t-27 57q0 26 24.5 45t56.5 27t62.5 5
t42.5 -20q11 -15 11.5 -22t3.5 -16z" />
    <glyph glyph-name="T" unicode="T" horiz-adv-x="288" 
d="M10 258q-8 2 -8 7.5t6 8.5q66 2 132 8t132 8q8 0 9 -7t-7 -9q-32 -2 -63.5 -3.5t-63.5 -4.5q1 -66 7 -130t19 -129q0 -8 -6 -9t-10 5q-12 66 -18.5 131t-7.5 131q-30 -2 -60.5 -4t-60.5 -3z" />
    <glyph glyph-name="U" unicode="U" horiz-adv-x="247" 
d="M2 267q1 8 7 8t8 -7q0 -25 3 -58.5t10.5 -67t20 -63.5t32.5 -48q15 -13 30.5 -3.5t29 28t23.5 40.5t14 35q-7 21 -11.5 43t-5 42t2.5 36.5t11 26.5q4 3 7 3q13 -6 18.5 -25.5t5.5 -43t-4 -46.5t-8 -35q9 -27 20 -49.5t21 -32.5q5 -7 -0.5 -11t-11.5 2q-10 9 -19.5 26.5
t-17.5 39.5q-14 -36 -32.5 -62.5t-39 -34t-42 8.5t-41.5 64q-17 42 -23.5 89t-7.5 95zM185 262q-8 -15 -6.5 -42.5t9.5 -57.5v2q3 11 4.5 24.5t1.5 27t-2 25.5t-7 21z" />
    <glyph glyph-name="V" unicode="V" horiz-adv-x="194" 
d="M125 32q9 28 15.5 54.5t11 55t8.5 59.5t9 67q4 7 9.5 5t5.5 -9q-3 -17 -7.5 -53.5t-10.5 -76t-14.5 -74t-20.5 -46.5q-6 -4 -13 2q-19 21 -35 54t-30 69.5t-26.5 72.5t-23.5 63q-3 7 2.5 11t10.5 -3q9 -22 22 -58.5t28 -75t30 -71t29 -46.5z" />
    <glyph glyph-name="W" unicode="W" horiz-adv-x="334" 
d="M58 18q-6 29 -9.5 65t-8 71t-12 66t-19.5 51q-5 0 -6.5 4t0 7.5t5 6t8.5 -0.5q14 -17 23 -48t14.5 -64.5t8.5 -65.5t5 -51q3 15 9 43.5t14.5 59t19 55.5t22.5 32q3 0 3 0.5t2 -1.5q7 -6 17 -29t21 -51t21 -54.5t16 -39.5q7 -16 18.5 -32.5t23.5 -23t23.5 0.5t18.5 38
q14 58 6 124t-31 121q-8 17 -18.5 32t-20.5 31q-3 6 1.5 9.5t10.5 -0.5l22 -32t19 -34q12 -27 20 -59.5t11.5 -66.5t2 -67t-7.5 -63q-5 -26 -21.5 -44t-44.5 -8q-21 15 -38 46t-30.5 66t-24 67.5t-18.5 50.5q-14 -23 -21.5 -49.5t-13 -54l-11 -55t-15.5 -52.5q-3 -5 -8 -6
t-7 5z" />
    <glyph glyph-name="X" unicode="X" horiz-adv-x="213" 
d="M1 262q-2 8 3 11.5t12 -4.5l99 -131l76 163q4 6 8.5 4.5t4.5 -9.5l-80 -171q19 -25 37.5 -49t35.5 -46q5 -6 0 -10.5t-12 1.5q-17 20 -34 42.5t-34 45.5l-50 -105q-4 -6 -8.5 -4.5t-3.5 10.5l52 112z" />
    <glyph glyph-name="Z" unicode="Z" horiz-adv-x="287" 
d="M26 260q-7 3 -5 8.5t9 7.5q7 1 24.5 6t39.5 10t45 8t42 1t30.5 -11.5t10.5 -29.5q-1 -17 -17.5 -37.5t-40 -42t-50.5 -44t-49 -42t-36 -35.5t-12 -25q6 -12 35 -11.5t67.5 5.5t80 10.5t72.5 2.5q8 -2 6.5 -9t-10.5 -7q-14 3 -37.5 0.5t-51 -6.5t-56.5 -7.5t-54 -4.5
t-43 3.5t-23 17.5q-6 13 7 31.5t35.5 40t50.5 44.5t53 44.5t41.5 39.5t16.5 31q1 15 -9 21.5t-26 7t-36.5 -3.5t-40.5 -9t-38.5 -9.5t-30.5 -5.5z" />
    <glyph glyph-name="zero" unicode="0" horiz-adv-x="151" 
d="M46 297q30 -11 54 -38t33 -60q8 -30 8 -64t-8.5 -62.5t-25 -48t-41.5 -20.5q-14 0 -23.5 7t-16.5 18t-10.5 24t-4.5 25q-2 25 -2 54t5 56t15.5 49.5t28.5 35.5l-18 9v-2q-4 -6 -9 -6t-7 8q3 22 22 15zM122 96q7 65 -3.5 103t-45.5 66q-14 -9 -22.5 -21.5t-13.5 -26
t-7.5 -28t-3.5 -28.5q-1 -11 -1.5 -34.5t3 -47.5t12.5 -42t27 -18q19 1 35.5 24.5t19.5 52.5z" />
    <glyph glyph-name="one" unicode="1" horiz-adv-x="75" 
d="M26 302q2 8 7.5 7.5t7.5 -6.5q1 -78 5.5 -155t17.5 -154q0 -8 -7 -8.5t-9 7.5q-13 78 -17 154.5t-5 154.5z" />
    <glyph glyph-name="two" unicode="2" horiz-adv-x="240" 
d="M31 245q-6 -5 -10.5 0t-0.5 11q9 8 15.5 14t17.5 13q17 13 34 16.5t28.5 -1.5t15.5 -19t-4 -36q-7 -20 -17.5 -39t-22.5 -37.5t-24 -38t-22 -39.5q-3 -7 -8 -17.5t-6.5 -20.5t1.5 -18t16 -10q21 2 45 9.5t49 17t48.5 21t41.5 21.5q8 0 9.5 -5.5t-5.5 -9.5
q-15 -9 -40.5 -20.5t-53 -22.5t-53 -18.5t-41.5 -7.5q-8 0 -18.5 5t-14.5 13q-6 14 2.5 38t23.5 51.5t33 55.5t30 50q18 33 16 48t-15.5 16.5t-33.5 -9.5t-36 -31z" />
    <glyph glyph-name="three" unicode="3" horiz-adv-x="165" 
d="M15 263q-6 -4 -10.5 1t-0.5 10q21 13 46 17q33 7 50.5 3.5t23.5 -14.5t3 -27t-11.5 -34t-21 -35.5t-23.5 -31.5q18 -7 40.5 -11.5t34.5 -19.5q11 -14 9 -31t-12.5 -32t-26.5 -26.5t-31 -15t-26.5 3.5t-13.5 28q-2 9 6 10t10 -7q0 -12 6 -18q10 -4 24.5 2.5t26.5 18
t18.5 25t2.5 23.5q-3 10 -13.5 16t-23.5 10t-26.5 7t-21.5 8q-4 7 -1 13q8 9 19 23.5t20.5 30t15 30t3 25t-16 14.5t-41.5 -2q-10 -2 -19.5 -5.5t-18.5 -8.5z" />
    <glyph glyph-name="four" unicode="4" horiz-adv-x="181" 
d="M165 146q8 0 9 -7t-7 -8q-5 -1 -13.5 -4t-20.5 -7q2 -29 2.5 -57t1.5 -57q0 -8 -7 -8.5t-9 7.5q-1 28 -1.5 56t-1.5 56q-14 -4 -30 -7t-30.5 -3.5t-27.5 2.5t-21 11q-4 5 -4 10q7 16 20.5 33t28.5 33.5t29.5 32t22.5 29.5q-2 16 -3 32t1 30q1 9 11 7q16 -7 16 -27
q0 -13 -2 -23t-6 -20q4 -42 6 -69t3 -51q10 4 18 5.5t15 3.5zM22 129q6 -6 16.5 -8t23 -0.5t27 5t28.5 7.5q-2 25 -3.5 49.5t-3.5 49.5v1q-9 -13 -21 -25.5t-24 -26.5q-6 -7 -13 -15.5t-14 -16.5z" />
    <glyph glyph-name="five" unicode="5" horiz-adv-x="178" 
d="M122 284q-17 1 -35 3.5t-30 -7.5q-11 -9 -18 -27.5t-10 -39.5t-2 -41t7 -33q19 -2 37.5 0t37.5 0q27 -3 41 -12.5t17 -22t-3 -27t-18 -27.5q-13 -14 -31 -23.5t-37 -11.5t-37 5t-31 25q-2 7 2.5 10.5t9.5 -1.5q13 -21 36 -24t44 5.5t36 25.5t14 37q-1 11 -9 16.5
t-19.5 7.5t-23 2h-18.5q-14 0 -24 -1.5t-18 -1t-14 5t-11 16.5t-5 34.5t4.5 46t12.5 43.5t20 28q11 7 28.5 6t45.5 -1q13 0 11 -7t-10 -9z" />
    <glyph glyph-name="six" unicode="6" horiz-adv-x="182" 
d="M29 297q2 9 9.5 8t6.5 -9q-3 -31 -6.5 -65.5t-5.5 -65.5t-1.5 -55.5t5.5 -35.5q10 22 24.5 42t31 32t33.5 13.5t32 -13.5q12 -12 12 -27.5t-7.5 -32t-21 -32t-29.5 -26t-32 -14t-29 3.5q-9 5 -15 15t-10 22t-5.5 24t-2.5 23q-2 26 0 54.5t4 54.5t4.5 48t2.5 36zM44 50
q7 -13 17.5 -16.5t21 -0.5t21 10.5t18.5 15.5q10 10 18 21t11.5 22t2 21t-10.5 18q-8 8 -23.5 4.5t-37.5 -27.5q-11 -12 -21.5 -30t-16.5 -38z" />
    <glyph glyph-name="seven" unicode="7" horiz-adv-x="150" 
d="M15 257q-9 -2 -10 4.5t5 10.5q28 5 52 16.5t50 17.5q16 3 21 -5.5t5 -21.5t-3.5 -26t-4.5 -18q-14 -43 -26.5 -85.5t-20.5 -87.5q-1 -5 -3 -14t-3 -18.5t0 -17.5t7 -12q4 -6 0.5 -10.5t-10.5 -1.5q-8 6 -10.5 15.5t-2 20.5t2.5 22t3 19q3 16 13 50t20.5 70t17 66t2.5 38
q-10 2 -23 -2t-27.5 -10t-28.5 -12t-26 -8z" />
    <glyph glyph-name="eight" unicode="8" horiz-adv-x="205" 
d="M11 202q-6 26 4.5 47.5t30.5 35t45 17t47 -6.5q4 6 9 16.5t8 16.5q3 7 7.5 5.5t6.5 -6.5q-16 -47 -42 -87.5t-53 -80.5q16 -9 40.5 -22t45 -29t31 -33.5t0.5 -34.5q-13 -21 -34.5 -30.5t-47.5 -11.5q-12 -1 -25 0t-24 5q-12 3 -21 10.5t-15 17.5q-18 32 -6.5 64t32.5 61
q-14 10 -24.5 21t-14.5 25zM177 48q4 15 -5.5 28t-26 24.5t-38 22.5t-40.5 23q-13 -17 -25.5 -35.5t-12.5 -40.5q1 -31 22.5 -44t48.5 -13.5t50 9.5t27 26zM133 280l-13.5 4.5t-22.5 2.5q-14 0 -28 -6.5t-25.5 -18t-17 -25.5t-0.5 -29q4 -14 13 -22t20 -17q9 11 17.5 22
t15.5 22q8 11 14.5 23t14.5 23z" />
    <glyph glyph-name="nine" unicode="9" horiz-adv-x="167" 
d="M9 189q0 16 11.5 32t29 28t38 17.5t37.5 -0.5l4 31q3 12 8.5 9t7.5 -9v-1q-2 -18 -2.5 -33t-5.5 -37q-2 -21 -4 -49.5t-4 -58.5t-3.5 -58t-1.5 -49q-1 -9 -8.5 -7t-7.5 12q0 15 1.5 37.5t3.5 47t3.5 48t2.5 39.5q-12 -19 -30.5 -30t-36 -12t-30.5 9.5t-13 33.5zM124 250
q-14 8 -30.5 4.5t-31.5 -13.5t-25.5 -23.5t-12.5 -26.5q-2 -16 7.5 -22.5t23.5 -5t28 9.5t22 21q5 8 9 16t7 16z" />
    <glyph glyph-name="parenleft" unicode="(" horiz-adv-x="165" 
d="M148 417q7 0 9 -5.5t-5 -9.5q-1 0 -1.5 -1.5t-0.5 -0.5q-22 -38 -42.5 -77.5t-37.5 -81t-28.5 -84t-14.5 -87.5q-2 -26 1 -53t13.5 -49.5t30 -39t50.5 -20.5q26 -5 52 -1.5t52 5.5q8 0 9 -7t-8 -9q-26 -1 -53.5 -5t-54.5 1q-41 7 -65 28.5t-34.5 52.5t-10.5 68t7 75
t18.5 74t23.5 64q3 6 14 31.5t25 54t28 52t23 25.5z" />
    <glyph glyph-name="parenright" unicode=")" horiz-adv-x="175" 
d="M-109 390q-5 5 -2.5 10.5t10.5 3.5q32 -15 68 -38t70 -51t62.5 -61.5t45.5 -70.5t19 -77.5t-17 -82.5q-12 -26 -35.5 -52.5t-52 -48.5t-59.5 -38t-56 -21q-5 0 -6 5.5t5 9.5q31 8 65.5 28t64 47.5t50 61.5t25.5 70q4 53 -21 99.5t-64 85t-85.5 69t-86.5 51.5z" />
    <glyph glyph-name="bracketleft" unicode="[" horiz-adv-x="106" 
d="M140 424q8 0 8 -7.5t-8 -8.5q-20 0 -33.5 -3t-23.5 -6q-16 -4 -23 -13.5t-9 -22.5q-2 -20 -5.5 -55.5t-5.5 -69.5q-2 -30 -4 -78t-2.5 -95.5t2 -85t9.5 -45.5q7 -6 20.5 -6.5t30 1.5t34 5.5t31.5 5.5q6 -2 6.5 -8t-7.5 -8q-36 -8 -61.5 -11.5t-42.5 -1.5q-12 2 -20 8
t-12 26q-6 28 -6 61v67q0 69 3 142.5t14 150.5q4 24 12.5 32.5t22.5 13.5q12 4 28.5 8t41.5 4z" />
    <glyph glyph-name="bracketright" unicode="]" horiz-adv-x="118" 
d="M-24 379q-8 2 -7.5 7.5t7.5 7.5q34 1 53.5 4.5t30.5 -1t15.5 -22t8.5 -57.5q8 -69 12 -140t7 -145q0 -28 -1.5 -44.5t-6.5 -32.5t-30 -21t-54 -4t-54 4t-30 4q-8 2 -7 9t9 6q7 -1 29.5 -4t48 -4t47 2t26.5 14q6 11 6.5 41.5t-0.5 65t-3.5 65t-2.5 41.5q-1 17 -2.5 45.5
t-4.5 59t-7 57.5t-10 41q-3 6 -12.5 7t-21.5 -0.5t-24.5 -3.5t-21.5 -2z" />
    <glyph glyph-name="braceleft" unicode="{" horiz-adv-x="165" 
d="M199 402q8 -2 8 -9.5t-8 -6.5l-20 4t-21 2q-32 3 -46 -12.5t-17.5 -40.5t-1 -56t4 -59.5t-3 -51t-21.5 -29.5q13 -5 20 -22t10 -37.5t3 -40t1 -29.5q1 -6 2 -16t4 -19.5t8.5 -17t15.5 -7.5q10 2 18 5l16 6q8 -2 9 -8t-5 -8l-36 -12q-19 -3 -28.5 9t-13.5 33t-5.5 46.5
t-4.5 49t-10 41t-23 22.5q-15 -5 -27 -2.5t-15.5 7.5t4.5 9.5t33 3.5q21 -3 28 13t6.5 42t-3.5 58t-1.5 60.5t10.5 49.5t34 25q32 7 76 -2z" />
    <glyph glyph-name="braceright" unicode="}" horiz-adv-x="166" 
d="M-15 384q-5 -3 -9 -1.5t-5 5t4 7.5t19 7t27.5 4.5t25 -1t20 -9.5t13.5 -21q7 -22 5.5 -48.5t-4.5 -53.5t-4 -53t8 -47q3 -8 14 -12.5t25 -8.5q20 7 27 4.5t5 -8t-12 -10t-23 -1.5q-14 -7 -25.5 -19t-15.5 -26q-2 -9 2 -28.5t7 -41.5t1.5 -41t-14.5 -28q-17 -11 -41 -10.5
t-41 5.5q-7 5 -3.5 11t11.5 4q20 -6 36.5 -5t26.5 9q6 6 9.5 17.5t1.5 30.5q-2 17 -6 35t-3.5 35.5t8 32.5t29.5 25q-6 0 -18.5 6t-15.5 14q-9 21 -9 47t2.5 52.5t4.5 53t-1 49.5q-3 16 -16 21t-28 4.5t-26.5 -3.5z" />
    <glyph glyph-name="period" unicode="." horiz-adv-x="56" 
d="M19 21q2 11 11 9.5t9 -12.5q-1 -10 -9.5 -10t-10.5 10v3v0z" />
    <glyph glyph-name="comma" unicode="," horiz-adv-x="61" 
d="M23 10q-3 7 1 11t11 1q9 -11 10.5 -21.5t-1.5 -21.5t-9 -21.5t-13 -20.5q-5 -5 -10.5 -0.5t-1.5 10.5q4 7 9.5 14.5t8.5 16t2.5 16.5t-7.5 16z" />
    <glyph glyph-name="hyphen" unicode="-" horiz-adv-x="131" 
d="M16 115q-7 2 -6.5 7t6.5 9l100 6q8 0 9 -6.5t-7 -8.5z" />
    <glyph glyph-name="slash" unicode="/" horiz-adv-x="117" 
d="M99 393q5 7 10.5 5t5.5 -9l-114 -484q-4 -7 -10.5 -5.5t-5.5 9.5z" />
    <glyph glyph-name="fraction" unicode="&#x2044;" horiz-adv-x="117" 
d="M99 393q5 7 10.5 5t5.5 -9l-114 -484q-4 -7 -10.5 -5.5t-5.5 9.5z" />
    <glyph glyph-name="backslash" unicode="\" horiz-adv-x="117" 
d="M130 -91q1 -8 -5.5 -9.5t-10.5 5.5l-114 484q0 7 5.5 9t10.5 -5z" />
    <glyph glyph-name="colon" unicode=":" horiz-adv-x="56" 
d="M21 55q2 11 11 10t9 -12q-1 -10 -9.5 -10t-10.5 10v2zM19 142q2 11 11 9.5t9 -12.5q-1 -10 -9.5 -10t-10.5 10v3z" />
    <glyph glyph-name="semicolon" unicode=";" horiz-adv-x="56" 
d="M22 142q2 11 10.5 9.5t8.5 -12.5q0 -10 -8.5 -10t-10.5 10v3zM26 51q-3 7 1 11t10 0q9 -10 10.5 -21t-1.5 -21.5t-9 -21t-12 -20.5q-6 -5 -11 -1t-2 11q5 7 10.5 14.5t8.5 16t2.5 16.5t-7.5 16z" />
    <glyph glyph-name="at" unicode="@" horiz-adv-x="283" 
d="M75 81q0 16 7.5 34t19 31.5t24.5 18.5t24 -4v4q0 6 5.5 7.5t8.5 -3.5q6 -17 10 -34.5t9 -35.5t12 -34.5t18 -29.5q15 -6 25 4t15 26.5t4.5 34.5t-7.5 30q-11 18 -27.5 35t-37 29t-42.5 17.5t-44 1.5q-26 -5 -44.5 -32t-26 -59.5t-1 -63.5t29.5 -45q10 -5 38.5 -7.5
t67.5 14.5q6 3 11.5 -2t-2.5 -9q-18 -10 -38 -14t-37.5 -4t-30.5 2.5t-18 5.5q-28 20 -35.5 55t0.5 71t29.5 65.5t52.5 37.5q19 6 44.5 -0.5t50 -20t45 -32t29.5 -38.5q14 -31 7.5 -60t-22 -45.5t-34.5 -14t-30 34.5l-25 72q-10 -26 -24 -41t-25 -22q-15 -11 -25 -9t-11 29z
M92 67q23 8 36 27.5t18 42.5q-6 18 -15.5 14t-18.5 -18.5t-15 -34t-6 -31.5h1z" />
    <glyph glyph-name="less" unicode="&#x3c;" horiz-adv-x="175" 
d="M127 218q8 3 11.5 -2t-1.5 -11q-20 -18 -39 -32.5t-39 -33.5q-29 -26 -33 -41.5t12 -29.5q26 -21 57.5 -34t65.5 -24q8 -5 5 -12t-11 -4q-32 14 -68 27t-64 38q-19 18 -15 36t22 37.5t44.5 40.5t52.5 45z" />
    <glyph glyph-name="greater" unicode="&#x3e;" horiz-adv-x="160" 
d="M29 212q-6 6 -2 11.5t11 0.5l54 -42q43 -32 53 -55.5t-4 -44.5t-47.5 -43t-77.5 -53q-5 -5 -10 -1t-1 10q23 16 45 31t43 32q23 18 32 31t6 25.5t-15.5 25.5t-33.5 30q-13 11 -26 21t-27 21z" />
    <glyph glyph-name="exclam" unicode="!" horiz-adv-x="54" 
d="M19 290q2 9 9 8t7 -9q-1 -57 -2 -112.5t4 -112.5q0 -8 -7 -8.5t-8 7.5q-5 57 -4.5 113.5t1.5 113.5zM35 16q2 -3 1 -8t-7 -5q-5 0 -6.5 3.5t-0.5 6.5t4.5 4.5t8.5 -1.5z" />
    <glyph glyph-name="quotedbl" unicode="&#x22;" horiz-adv-x="103" 
d="M71 300q2 8 8.5 7t6.5 -9v-142q0 -9 -6.5 -9t-8.5 8v145zM12 290q2 8 8 8t8 -7q1 -35 2 -70.5t2 -70.5q0 -8 -7 -8t-9 8q0 35 -1.5 70t-2.5 70z" />
    <glyph glyph-name="numbersign" unicode="#" horiz-adv-x="238" 
d="M21 94q-8 2 -8 9t9 7h32l2 52q-10 0 -20 -0.5t-20 -0.5q-7 1 -7 6.5t6 8.5q11 0 21 0.5t21 1.5l2 65q2 8 8.5 7t6.5 -9l-1 -61q13 2 25.5 3t25.5 3v64q1 8 8 7t7 -9v-60q18 4 36.5 7t37.5 8q7 0 9 -5.5t-5 -9.5q-39 -9 -78 -15q0 -15 0.5 -30t0.5 -30q41 3 80 9q8 0 9 -7
t-7 -9q-21 -3 -41 -5t-40 -3q0 -21 0.5 -41.5t0.5 -40.5q0 -8 -7 -8t-9 8q0 20 -0.5 40.5t-0.5 40.5q-14 -2 -28.5 -2t-29.5 -1q-1 -20 -3 -39t-4 -39q-4 -5 -9 -5t-7 7q2 19 4 37.5t4 38.5h-31zM69 110l55 2v58q-14 -2 -26.5 -3.5t-25.5 -3.5z" />
    <glyph glyph-name="dollar" unicode="$" horiz-adv-x="138" 
d="M49 315q2 9 9 8t7 -9v-67q9 -3 16.5 -14.5t11.5 -32.5q0 -8 -6 -9t-9 5q-4 22 -12 30q1 -20 1 -41.5t2 -41.5q14 -5 30 -10t28 -13q2 -2 2 -8q-6 -15 -22 -23.5t-34 -10.5l4 -46l4 -46q0 -8 -7 -8.5t-8 7.5q-6 46 -9 92q-17 2 -31 11.5t-17 28.5q-2 8 5.5 9.5t9.5 -6.5
q3 -15 12 -21t20 -6l-2 44q-22 8 -35 24q-10 12 -10.5 26t4.5 26.5t15 22t21 12.5v67zM32 169q7 -11 21 -19q-3 40 -3 82q-13 -4 -21 -24t3 -39zM111 111q-10 8 -20.5 11.5t-21.5 8.5l3 -36q20 6 39 16z" />
    <glyph glyph-name="percent" unicode="%" horiz-adv-x="221" 
d="M46 175q-16 0 -24.5 10.5t-11 24.5t0.5 28t11 22q-4 3 -1 10t8 7q31 0 42.5 -16t11 -35t-11.5 -35t-25 -16zM198 303q7 5 11.5 1t1.5 -12q-24 -33 -50.5 -66t-50.5 -67.5t-44.5 -70.5t-33.5 -76q-3 -7 -9.5 -6.5t-6.5 9.5q14 41 34.5 78t45 72.5t51 69t51.5 68.5z
M156 150q6 0 9 -5q19 -6 29.5 -20.5t10.5 -29.5t-10.5 -26t-31.5 -11q-12 0 -20 12.5t-10 29t3 31t20 19.5zM36 190q12 -1 19.5 7t10 19.5t-1 23t-14.5 17.5q-12 3 -18.5 -5t-7.5 -19.5t2.5 -24t9.5 -18.5zM165 73q12 -2 18.5 6t5.5 18.5t-9 20.5t-25 13q-6 -5 -7 -14.5
t1 -19t6 -16.5t10 -8z" />
    <glyph glyph-name="ampersand" unicode="&#x26;" horiz-adv-x="163" 
d="M155 24q2 -8 -5 -10.5t-10 4.5q-4 12 -10 23t-13 22q-14 -7 -28.5 -9t-33.5 5q-4 3 -5 8q1 15 6.5 29t13.5 28q-11 14 -23 29t-21 30t-14 31t-2 31q6 26 25.5 34t40 2t36 -23.5t14.5 -41.5q-1 -11 -2.5 -18.5t-5.5 -16.5t-11.5 -22t-19.5 -34q9 -11 17.5 -20.5
t16.5 -20.5l18 14q8 5 12 0.5t-1 -12.5q-5 -4 -10 -7.5t-10 -6.5q8 -12 14 -23.5t11 -24.5zM34 201q8 -17 19.5 -33t24.5 -31q11 19 21.5 39t11.5 43q0 25 -18.5 37.5t-37.5 11.5t-28.5 -17.5t7.5 -49.5zM66 71q11 -4 21.5 -2t20.5 7q-7 9 -13.5 18t-14.5 18q-5 -10 -9 -20
t-5 -21z" />
    <glyph glyph-name="quotesingle" unicode="'" horiz-adv-x="48" 
d="M10 294q1 8 7 7.5t8 -6.5q1 -35 5 -68.5t5 -68.5q0 -8 -7 -8.5t-9 7.5q-1 35 -5 69t-4 68z" />
    <glyph glyph-name="asterisk" unicode="*" horiz-adv-x="180" 
d="M12 194q-6 6 -1.5 11.5t11.5 0.5l56 -46q-2 21 -1.5 42.5t0.5 42.5q2 9 8.5 8t6.5 -9v-41.5t1 -40.5q14 11 25.5 22t24.5 22q7 5 11.5 0.5t-0.5 -12.5q-14 -13 -27.5 -25t-27.5 -24q17 -12 34.5 -24t35.5 -23q5 -6 1.5 -10.5t-10.5 -1.5q-17 10 -32.5 20.5t-31.5 21.5
q2 -20 5.5 -40t9.5 -40q0 -7 -6 -8.5t-9 5.5q-7 21 -10.5 43t-5.5 44q-14 -11 -29 -20.5t-31 -17.5q-8 -2 -9.5 5t5.5 11q14 7 28 16t28 19l-60 49v0z" />
    <glyph glyph-name="plus" unicode="+" horiz-adv-x="188" 
d="M16 123q-7 1 -7 6.5t6 8.5q16 0 32 0.5t33 1.5q-1 20 -1 40v40q1 9 8 8t7 -9v-39t1 -39q23 2 37 2h37q8 0 9 -6.5t-7 -8.5q-23 -1 -37.5 -1t-37.5 -2q1 -18 1.5 -36.5t0.5 -36.5q0 -8 -7 -8.5t-9 7.5q0 18 -0.5 36.5t-1.5 36.5q-15 0 -31 -0.5t-33 -0.5z" />
    <glyph glyph-name="minus" unicode="&#x2212;" horiz-adv-x="170" 
d="M17 124q-8 1 -7.5 8t8.5 8l132 7q8 0 9.5 -7t-6.5 -9z" />
    <glyph glyph-name="equal" unicode="=" horiz-adv-x="194" 
d="M17 155q-7 1 -7 6.5t6 8.5q41 1 81 3t81 -3q7 -2 7 -8t-8 -7q-40 5 -79.5 3t-80.5 -3zM17 85q-8 1 -7.5 8t8.5 7q39 0 77.5 1.5t76.5 8.5q8 0 9.5 -6t-5.5 -10q-39 -6 -78.5 -7.5t-80.5 -1.5z" />
    <glyph glyph-name="question" unicode="?" horiz-adv-x="137" 
d="M25 229q-4 -7 -10.5 -5.5t-4.5 9.5q6 14 19 29.5t28.5 27t32 14.5t28.5 -9q6 -4 7.5 -13.5t1 -20t-2.5 -20.5l-3 -15q-3 -12 -9 -28t-12.5 -32.5t-12.5 -32.5t-9 -28q-4 -12 -1.5 -17.5t11.5 -8.5q8 -5 4 -11t-12 -3q-5 2 -10.5 5.5t-7.5 9.5q-4 16 3 38t17.5 46.5
t19.5 50.5t9 50q0 21 -12.5 22t-28 -9t-29 -24.5t-16.5 -24.5zM87 22q0 -10 -8.5 -10t-10.5 10q2 16 10.5 15t8.5 -15z" />
    <glyph glyph-name="asciicircum" unicode="^" horiz-adv-x="147" 
d="M24 169q-3 -6 -8.5 -6t-6.5 7q0 6 6.5 24.5t14.5 40.5t16 41t11 27q6 8 13 3q7 -4 15.5 -22t17 -40l17 -44t17.5 -34q5 -7 -0.5 -11t-12.5 1q-12 18 -21 37.5t-16 37.5t-12 32.5t-9 21.5q-11 -30 -21 -58.5t-21 -57.5z" />
    <glyph glyph-name="underscore" unicode="_" horiz-adv-x="186" 
d="M17 3q-7 1 -7 6.5t6 8.5q38 1 76.5 5.5t76.5 11.5q7 0 9 -6t-5 -10q-38 -7 -77 -11.5t-79 -4.5z" />
    <glyph glyph-name="bar" unicode="|" horiz-adv-x="60" 
d="M20 367q2 9 8.5 8t6.5 -9q0 -116 -0.5 -230.5t7.5 -229.5q0 -8 -6.5 -8.5t-8.5 7.5q-8 117 -8 231.5t1 230.5z" />
    <glyph glyph-name="asciitilde" unicode="~" horiz-adv-x="199" 
d="M22 110q-5 -4 -10 0.5t-1 10.5q9 10 20.5 25t25.5 19q15 4 28.5 -8t27 -22t28 -9t31.5 30q4 7 10 5.5t6 -9.5q-20 -36 -41 -40t-57 19q-1 0 -5 3t-8.5 6.5t-9 6t-6.5 2.5q-11 -3 -21 -17t-18 -22z" />
    <glyph glyph-name="currency" unicode="&#xa4;" horiz-adv-x="177" 
d="M10 252q-2 8 3.5 12t10.5 -4q7 -16 16 -32q10 15 27 12q9 -1 15.5 -7t13.5 -11q2 -4 2 -7q13 34 32 71q4 7 9.5 5t5.5 -9q-11 -23 -20.5 -44t-18.5 -44q12 -12 21 -26.5t14 -31.5q3 -22 -9 -42q10 -14 18.5 -27t17.5 -27q2 -8 -3.5 -10.5t-10.5 2.5q-8 12 -15.5 24.5
t-15.5 23.5q-8 -7 -17 -11.5t-19 -2.5q-5 1 -13 6t-11 7q-4 -11 -7 -23t-8 -23q-4 -7 -10.5 -5.5t-4.5 9.5l18 55q-6 10 -11 24.5t-7.5 30.5t-3 32.5t2.5 29.5q-6 11 -11.5 21.5t-10.5 21.5zM58 113q10 -14 18.5 -21t15.5 -8.5t12 1.5t9 8q8 9 10 20.5t0 23t-8.5 22
t-14.5 19.5q-2 1 -8.5 8t-14 14.5t-14.5 13.5t-8 6q-2 -3 -6 -13t-4 -28q0 -14 3.5 -33t9.5 -33zM97 213q-2 -4 -5 -4l2 -2z" />
    <glyph glyph-name="cent" unicode="&#xa2;" horiz-adv-x="138" 
d="M46 312q2 8 7.5 8t7.5 -7q0 -18 0.5 -36.5t1.5 -36.5q14 -4 28 -22.5t14 -45.5q-1 -8 -7 -7.5t-8 8.5q0 14 -7.5 30t-18.5 23q2 -32 4 -64.5t5 -63.5q4 1 7.5 2t8.5 4q8 4 13 9t12 10q8 5 12 0.5t-1 -12.5q-11 -8 -24 -17t-28 -13l7 -81q0 -8 -7 -8.5t-9 7.5l-6 81
q-4 0 -12 4q-17 7 -26.5 31.5t-10.5 51.5t8.5 49.5t30.5 26.5q-1 17 -1.5 34.5t-0.5 34.5zM48 227q-10 -3 -16 -22t-6.5 -41.5t6.5 -42t24 -23.5q-2 33 -4 64.5t-4 64.5z" />
    <glyph glyph-name="Euro" unicode="&#x20ac;" horiz-adv-x="218" 
d="M16 75q-8 2 -8 7t6 9l24 2t23 4q-2 6 -3 11.5t-3 12.5q-8 -1 -16.5 -2t-17.5 -1q-8 2 -8 7.5t6 8.5q16 0 34 3q-5 25 -4.5 50.5t4.5 47.5q3 19 11.5 31t19.5 16t23 -0.5t23 -18.5q5 -7 8 -19t5.5 -25t3.5 -25t2 -19q0 -8 -7 -8t-9 8q-1 11 -3 28t-6.5 32t-12 25.5
t-19.5 9.5q-11 -2 -17 -15.5t-8.5 -32.5t-2.5 -40.5t3 -37.5v-6q33 5 64.5 13t63.5 19q8 0 9.5 -5.5t-4.5 -9.5q-33 -10 -65 -18.5t-64 -13.5q2 -6 3.5 -12t3.5 -11q23 5 46.5 12.5t46.5 15.5q8 0 9.5 -5.5t-5.5 -10.5q-23 -7 -45.5 -14t-45.5 -12q10 -21 22.5 -34.5
t26.5 -16t28 9t27 41.5q5 7 10.5 5.5t5.5 -9.5q-9 -20 -23 -35.5t-31 -22t-35 -0.5t-33 30q-5 6 -8.5 13t-6.5 14q-26 -5 -51 -6z" />
    <glyph glyph-name="franc" unicode="&#x20a3;" horiz-adv-x="172" 
d="M19 45q-8 -2 -9.5 4.5t5.5 11.5q26 10 50 14l-11 64q-5 2 -5 6t4 7q-5 28 -6.5 47.5t-3.5 48.5q-6 2 -6 6.5t5 8.5v8q2 8 8 7.5t8 -7.5v-7q24 2 48 5t48 4q8 0 9 -7t-7 -8q-24 -1 -48.5 -4.5t-48.5 -5.5q2 -28 3 -47t5 -46q17 2 32 6.5t31 9.5q7 0 9 -5.5t-5 -9.5
q-16 -5 -31.5 -9.5t-32.5 -7.5l10 -61l34 4t35 4q8 0 9 -6.5t-8 -8.5q-22 -3 -38 -4.5t-30 -3.5l10 -53q0 -8 -7 -8t-9 8l-9 51q-11 -3 -22.5 -6.5t-25.5 -9.5z" />
    <glyph glyph-name="sterling" unicode="&#xa3;" horiz-adv-x="203" 
d="M16 118q-7 2 -7 7.5t6 8.5q12 1 24.5 2.5t25.5 5.5q-2 5 -3 8.5t-3 8.5q-4 13 -8 32t-4 37.5t7.5 32t25.5 15.5q10 1 20 -7t18 -20.5t13 -27t7 -26.5q0 -8 -7 -8.5t-8 7.5q-2 16 -11.5 33t-20 25.5t-19 2t-8.5 -37.5q0 -15 5 -33t11 -38q24 7 47.5 14.5t47.5 14.5
q8 0 9.5 -6t-4.5 -10q-24 -7 -47.5 -14.5t-47.5 -13.5q5 -17 9 -34.5t3 -33.5q22 2 44 2.5t42 0.5q8 0 9 -7t-7 -9q-21 0 -44.5 -0.5t-46.5 -2.5q-3 -11 -10.5 -17.5t-20.5 -7.5q-11 -2 -23.5 -3t-23.5 3q-5 2 -5.5 7t1.5 9q30 19 69 24q2 14 -2 31t-10 34q-13 -3 -26 -5.5
t-27 -3.5zM40 35q10 0 19.5 1.5t14.5 7.5q-9 -2 -17.5 -4t-16.5 -5z" />
    <glyph glyph-name="yen" unicode="&#xa5;" horiz-adv-x="218" 
d="M58 48q-8 -2 -9.5 4.5t5.5 10.5l49 16q1 7 1 12t1 8l-3 3l-59 -16q-8 -1 -9.5 5.5t5.5 10.5l53 14l-80 110q-6 7 -1.5 12.5t11.5 0.5l83 -115q3 48 4.5 80.5t2 53.5t1.5 33t3 18q3 5 8.5 3t5.5 -9q0 -31 -3 -78t-5 -101q20 5 38.5 10.5t38.5 11.5q7 0 9 -5.5t-5 -9.5
q-20 -7 -41 -13t-41 -11l-2 -24q19 5 38 9t39 8q8 0 9.5 -5.5t-4.5 -9.5q-21 -4 -42 -8.5t-41 -9.5v-60q0 -3 -2.5 -6t-6 -4.5t-6 0.5t-2.5 10v24t1 30l-44 -13v0z" />
    <glyph glyph-name="florin" unicode="&#x192;" horiz-adv-x="175" 
d="M12 137q-7 3 -5.5 9t9.5 6q13 -5 27.5 -4.5t28.5 2.5q-4 24 -7.5 47.5t-5 43.5t-0.5 34.5t6 20.5q6 4 9 2q20 -8 29.5 -30t12.5 -41q2 -8 -5.5 -8.5t-10.5 7.5q-1 12 -7 29.5t-17 25.5q-1 -5 -0.5 -14.5t1 -18.5t2 -16.5t1.5 -8.5q1 -16 4 -33t6 -35q17 5 34.5 10t32.5 8
q8 0 9.5 -6t-4.5 -10q-16 -3 -33.5 -8t-35.5 -9q6 -34 9.5 -64t-2.5 -47q-4 -13 -17 -18t-27.5 -2t-27.5 13.5t-17 27.5q1 8 7 8.5t9 -6.5q2 -9 11.5 -16.5t20 -10t19 3t8.5 23.5q0 11 -3.5 33.5t-8.5 50.5q-33 -8 -62 1z" />
    <glyph glyph-name="lira" unicode="&#x20a4;" horiz-adv-x="211" 
d="M33 85q-8 -2 -9.5 4.5t5.5 10.5q9 5 20 8.5t22 7.5l-2 6t-2 8q-12 -4 -23.5 -7t-22.5 -7q-8 -2 -9.5 4.5t4.5 10.5q11 5 22.5 8t22.5 6v3q-4 13 -8.5 34t-4.5 41t7 35.5t25 17.5q10 1 20 -7t18 -20.5t13 -27t7 -26.5q0 -8 -7 -8.5t-8 7.5q-2 16 -11.5 33t-20 25.5t-19 2
t-8.5 -37.5q0 -12 4 -32t9 -35q28 8 56.5 13.5t57.5 9.5q8 0 9 -7t-7 -9q-28 -4 -56 -9.5t-55 -12.5q4 -10 4 -16q18 4 35 7l34 6q7 0 9 -5.5t-5 -9.5q-17 -4 -34 -6t-34 -6q4 -14 5 -21.5t1 -20.5q22 2 44 2.5t42 0.5q8 0 9 -7t-7 -9q-21 0 -44.5 -0.5t-46.5 -2.5
q-3 -11 -10.5 -17.5t-20.5 -7.5q-11 -2 -23.5 -3t-23.5 3q-5 2 -5.5 7t1.5 9q30 19 69 24q1 11 -0.5 18t-5.5 20q-23 -5 -42 -15zM40 35q10 0 19.5 1.5t14.5 7.5q-9 -2 -17.5 -4t-16.5 -5z" />
    <glyph glyph-name="colonmonetary" unicode="&#x20a1;" horiz-adv-x="177" 
d="M121 300q4 7 10 5t6 -9l-16 -74q5 -12 7.5 -23.5t3.5 -19.5q0 -8 -7 -8.5t-8 7.5q-1 3 -1 6t-2 7q-8 -38 -15.5 -75.5t-13.5 -75.5q16 -8 33.5 1.5t32.5 44.5q4 7 10 5.5t6 -9.5q-13 -29 -36.5 -48t-49.5 -12l-10 -68q-3 -6 -8.5 -6t-7.5 8q3 19 5.5 37t6.5 36
q-5 4 -9.5 8t-8.5 10l-6 -32t-6 -31q-4 -7 -10.5 -5.5t-4.5 9.5q4 20 7.5 39.5t6.5 39.5q-19 38 -23 84t3 84q3 20 12 32t20 16q13 3 27 -1l7 33q4 6 10 4.5t6 -9.5l-8 -38q12 -11 20 -26q3 14 6 27t5 27zM29 144q2 -12 5 -24t7 -23l32 167q-11 7 -19 6q-10 -2 -16 -15.5
t-9 -32.5t-3 -40.5t3 -37.5zM54 73q4 -7 7.5 -12.5t8.5 -10.5q8 43 16.5 85t18.5 85q-5 8 -9.5 16t-9.5 15z" />
    <glyph glyph-name="germandbls" unicode="&#xdf;" horiz-adv-x="205" 
d="M45 10q0 -8 -7 -8t-9 8q-2 39 -6 77.5t-4 77.5q0 20 0.5 39t5 36t14 31.5t27.5 26.5q8 5 19 6.5t20 -3.5q18 -8 16.5 -32.5t-8.5 -54t-12.5 -58.5t3.5 -46q6 -11 19 -18t27.5 -13.5t25.5 -13.5t13 -17t-12.5 -19.5t-34 -16t-38 -8t-24.5 4.5q-5 6 -1 11.5t11 0.5
q3 -3 16 -0.5t27.5 7.5t26.5 10.5t13 8.5q-6 10 -19 14.5l-26 9t-24.5 11.5t-14.5 22q-2 8 -5 17t-2 17q1 14 6.5 35.5t9.5 43t5 40.5t-6 29q-15 0 -23.5 -0.5t-19.5 -14.5q-14 -17 -18 -51.5t-2.5 -73.5t5.5 -76t6 -60z" />
    <glyph glyph-name="eth" unicode="&#xf0;" horiz-adv-x="187" 
d="M22 150q-6 -5 -11 0t-1 11q14 10 36.5 18.5t46.5 16.5q-8 23 -13 35.5l-8 20l-5 12.5t-5 13q-7 -2 -9.5 7.5t-2.5 14.5q0 7 5.5 10t11.5 0q3 -3 8.5 -16t11.5 -30l12 -34t9 -28q17 5 32 9.5t27 9.5q7 0 9 -6t-5 -10q-14 -5 -28.5 -9t-30.5 -9q7 -24 14.5 -51.5
t11.5 -52.5t2.5 -44.5t-10.5 -26.5q-18 -14 -39 -14.5t-36.5 7.5t-21.5 24.5t6 37.5q3 9 13 19t21.5 19t22.5 16t17 11q-3 14 -6.5 26t-7.5 24q-21 -7 -40.5 -14.5t-36.5 -16.5zM118 22q9 11 7.5 37t-8.5 56q-10 -6 -22 -14t-22.5 -17.5t-17.5 -20.5t-7 -24q0 -11 9 -18
t20.5 -9t23 0t17.5 10z" />
    <glyph glyph-name="thorn" unicode="&#xfe;" horiz-adv-x="137" 
d="M17 330q2 8 8 8t8 -7q0 -32 0.5 -61.5t1.5 -62.5q23 -2 42 -17t31 -37.5t15.5 -47.5t-3.5 -46.5t-26.5 -35.5t-52.5 -13q0 -26 0.5 -51t0.5 -51q0 -8 -6.5 -8t-8.5 8zM41 24q25 1 40.5 12.5t22 28.5t4.5 37t-11.5 38.5t-25 33t-36.5 19.5z" />
    <glyph glyph-name="Thorn" unicode="&#xde;" horiz-adv-x="181" 
d="M29 186q-8 2 -7.5 8.5t8.5 6.5h1q-1 26 -1 51t-3 50q2 8 7.5 7.5t7.5 -6.5q4 -26 4 -51.5t1 -51.5q29 -2 60.5 -6t53.5 -26q12 -13 3.5 -28t-27 -29t-42.5 -26t-45 -18q1 -19 1 -37.5v-37.5q0 -8 -7 -8.5t-9 7.5v73q-7 -2 -15.5 -2t-9.5 11q0 7 9.5 10.5t9.5 -5.5l6 2
q0 52 -3 105q-1 0 -1.5 0.5t-1.5 0.5zM48 184q1 -26 1.5 -50.5t0.5 -50.5q16 5 35 14t34.5 19t24 21t4.5 21q-4 7 -15.5 12t-26.5 8t-30.5 4t-27.5 2z" />
    <glyph glyph-name="longs" unicode="&#x17f;" horiz-adv-x="114" 
d="M17 114q-7 2 -7 7t6 9q6 0 13 0.5t13 0.5q-1 62 3 125q1 24 8.5 37t17.5 15.5t19 -7t14 -30.5q0 -7 -6.5 -8.5t-9.5 5.5q-1 6 -4.5 15t-10.5 9q-6 -2 -9.5 -18.5t-4.5 -41.5t-1 -55t0.5 -60.5t1.5 -58.5t1 -47q0 -8 -7 -8.5t-9 7.5q-1 27 -2 53t-1 53q-6 -1 -12.5 -1.5
t-12.5 -0.5z" />
    <glyph glyph-name="mu" unicode="&#xb5;" horiz-adv-x="297" 
d="M30 204q2 8 9 7t7 -9q1 -7 4 -34t10.5 -58t21 -57t34.5 -30q18 -3 29 14t17 40.5t8 47t2 33.5q0 6 6.5 9t9.5 -5q1 -20 6 -43t16 -41t28.5 -27.5t43.5 -3.5q9 2 8 -5.5t-8 -9.5q-21 -5 -36.5 -2t-27.5 12t-20 23t-14 30q-1 -13 -6 -28t-13.5 -28t-20.5 -21.5t-28 -8.5
q-18 0 -30 11t-20.5 28t-13.5 37t-9 39q-2 -48 -6 -95.5t-4 -96.5q-3 -6 -8.5 -6t-7.5 7q1 69 6.5 136t6.5 135z" />
    <glyph glyph-name="dotlessi" unicode="&#x131;" horiz-adv-x="78" 
d="M34 182q2 5 8 7.5t7 -5.5q-1 -38 -3 -74.5t-3 -74.5q-2 -7 -8.5 -9.5t-6.5 6.5q1 38 3 75t3 75z" />
    <glyph glyph-name="bullet" unicode="&#x2022;" horiz-adv-x="94" 
d="M22 99q-16 10 -12.5 27.5t16.5 25.5q10 8 23 9.5t24 -8.5q16 -15 6 -35q3 -5 -5 -7q-1 0 -1 -1q-9 -11 -23.5 -16t-27.5 5zM44 114q-10 11 -5 26h-4q-8 -6 -5.5 -15t14.5 -11zM52 131l4 -4t5 -3q0 2 -1 4t-3.5 2.5t-4.5 0.5z" />
    <glyph glyph-name="tilde" unicode="&#x2dc;" horiz-adv-x="105" 
d="M24 230q-2 -8 -8 -7.5t-7 9.5q-1 10 3 18t9 16q8 11 15.5 7t14 -13t12 -17.5t9.5 -6.5t6 11t2 16q0 8 7 5.5t8 -10.5q0 -6 -1.5 -14.5t-6 -15t-11 -8.5t-15.5 5q-8 6 -13.5 14.5t-12.5 16.5q-5 -5 -8 -11.5t-3 -14.5z" />
    <glyph glyph-name="ring" unicode="&#x2da;" horiz-adv-x="66" 
d="M35 266q6 0 9 -5q8 -6 12 -14t2.5 -15t-8.5 -11.5t-20 -3.5q-19 1 -21.5 15t7.5 25q-2 4 -0.5 8t7.5 4l10 -3h2zM31 232q14 -2 12.5 5t-10.5 12q-7 -3 -10 -9t8 -8z" />
    <glyph glyph-name="ogonek" unicode="&#x2db;" horiz-adv-x="83" 
d="M35 1q8 5 12.5 0.5t-0.5 -11.5q-8 -11 -14 -22.5t-9 -25.5q4 -1 9.5 1t11.5 4.5t11 5t8 4.5q7 0 9 -6t-5 -10q-30 -15 -43.5 -14.5t-15 10.5t6 27t19.5 37z" />
    <glyph glyph-name="macron" unicode="&#xaf;" horiz-adv-x="125" 
d="M16 244q-7 1 -7 6.5t6 8.5q23 4 46.5 4t47.5 -2q7 -2 7 -8t-8 -8q-23 2 -45.5 2t-46.5 -3z" />
    <glyph glyph-name="grave" unicode="`" horiz-adv-x="70" 
d="M12 264q-6 6 -1.5 11.5t11.5 0.5q10 -9 18 -19t17 -20q5 -7 0 -11t-12 1q-8 9 -15.5 19t-17.5 18z" />
    <glyph glyph-name="dieresis" unicode="&#xa8;" horiz-adv-x="80" 
d="M28 244q0 -11 -8 -11.5t-10 10.5v3q2 11 10 10t8 -11v-1zM71 252q4 -10 -4.5 -13t-12.5 6v1l-1 2q-1 8 5.5 11.5t11.5 -4.5v-2q0 -1 1 -1z" />
    <glyph glyph-name="dotaccent" unicode="&#x2d9;" horiz-adv-x="40" 
d="M28 252q4 -10 -4.5 -13t-13.5 6v3q-1 8 5.5 11.5t11.5 -4.5v-2q0 -1 1 -1z" />
    <glyph glyph-name="hungarumlaut" unicode="&#x2dd;" horiz-adv-x="100" 
d="M35 300q2 8 9 7t7 -9q-2 -24 -10 -45t-16 -44q-4 -6 -10.5 -5t-4.5 9q8 23 15.5 43.5t9.5 43.5zM76 294q-1 7 5 10t10 -4q1 -5 -1.5 -18t-6 -27t-7.5 -26t-4 -15q-4 -6 -11 -5t-5 10l3.5 11.5t7.5 25t7 25.5t2 13z" />
    <glyph glyph-name="caron" unicode="&#x2c7;" horiz-adv-x="92" 
d="M11 277q-2 6 2.5 9.5t9.5 -0.5q9 -11 15 -23t13 -24q4 16 8 36l5 25q2 8 9 7t7 -9q0 -3 -2.5 -14.5t-5.5 -25.5t-6 -25.5t-4 -14.5q-6 -11 -14 -3q-12 13 -19 30.5t-18 31.5z" />
    <glyph glyph-name="cedilla" unicode="&#xb8;" horiz-adv-x="87" 
d="M10 34q2 8 9 7t7 -9q0 -4 -1.5 -11t-2 -14.5t0.5 -14.5t5 -11q5 -5 13 -6.5t16 -3.5t14 -5.5t8 -13.5q1 -7 -4 -14t-12.5 -12.5t-16.5 -8.5t-15 -1q-2 0 -4 2q-2 1 -3 2q-6 6 -1.5 11.5t11.5 0.5q2 -2 5 -0.5t6 2.5q14 9 17 18q-22 9 -33.5 13.5t-16 11.5t-4.5 19t2 38z
" />
    <glyph glyph-name="circumflex" unicode="&#x2c6;" horiz-adv-x="87" 
d="M24 224q-4 -6 -9 -7t-5 7q3 16 9.5 34t14.5 32q5 8 13 5q3 -3 7 -11t7.5 -17.5l7 -19t6.5 -14.5q8 -2 0 -12l-1 -1q-6 -4 -11 0q-7 9 -12 25t-10 27q-5 -11 -9.5 -24t-7.5 -24z" />
    <glyph glyph-name="breve" unicode="&#x2d8;" horiz-adv-x="108" 
d="M10 271q0 7 6.5 9t8.5 -5q4 -18 12 -26.5t17 -8t16.5 10t10.5 26.5q3 8 10.5 6t5.5 -10q-4 -23 -16.5 -35t-26.5 -13t-27 10.5t-17 35.5z" />
    <glyph glyph-name="acute" unicode="&#xb4;" horiz-adv-x="87" 
d="M22 228q-5 -4 -10 1t-1 10q13 17 26.5 31.5t27.5 29.5q7 5 11.5 0.5t-0.5 -11.5q-14 -15 -27.5 -29.5t-26.5 -31.5z" />
    <glyph glyph-name="commaaccent" unicode="&#xf6c3;" horiz-adv-x="58" 
d="M23 -41q-3 6 1 10t11 1q9 -11 10.5 -21.5t-1.5 -21.5t-9 -21.5t-13 -20.5q-5 -5 -10.5 -0.5t-1.5 10.5q4 7 9.5 15t8.5 16t2.5 16.5t-7.5 16.5z" />
    <glyph glyph-name="undercommaaccent" horiz-adv-x="58" 
d="M23 -41q-3 6 1 10t11 1q9 -11 10.5 -21.5t-1.5 -21.5t-9 -21.5t-13 -20.5q-5 -5 -10.5 -0.5t-1.5 10.5q4 7 9.5 15t8.5 16t2.5 16.5t-7.5 16.5z" />
    <glyph glyph-name="periodcentered" unicode="&#xb7;" horiz-adv-x="56" 
d="M19 142q2 11 11 9.5t9 -12.5q-1 -10 -9.5 -10t-10.5 10v3v0z" />
    <glyph glyph-name="periodcentered" horiz-adv-x="56" 
d="M19 142q2 11 11 9.5t9 -12.5q-1 -10 -9.5 -10t-10.5 10v3v0z" />
    <glyph glyph-name="questiondown" unicode="&#xbf;" horiz-adv-x="137" 
d="M116 80q4 7 10.5 5.5t4.5 -9.5q-6 -14 -19 -29.5t-29 -26.5t-32.5 -14t-28.5 9q-5 4 -6.5 13.5t-1 20t2 20t3.5 14.5q3 13 9 29t12.5 32.5t12.5 32.5t9 28q3 11 1 16.5t-11 9.5q-8 5 -4 10.5t12 3.5q5 -2 10.5 -5.5t7.5 -9.5q4 -17 -3 -38.5t-17.5 -46t-19.5 -50.5
t-9 -51q0 -21 12.5 -22t28 9t29 24.5t16.5 24.5zM54 287q0 11 8.5 11t10.5 -10q-2 -17 -10.5 -16t-8.5 15z" />
    <glyph glyph-name="exclamdown" unicode="&#xa1;" horiz-adv-x="54" 
d="M34 15q-2 -9 -9 -8t-7 9q1 57 2 112.5t-4 112.5q0 8 6.5 8.5t8.5 -7.5q5 -57 4.5 -113.5t-1.5 -113.5zM18 289q-2 3 -1 8t6 5t6.5 -3.5t0.5 -6.5t-4 -4.5t-8 1.5z" />
    <glyph glyph-name="brokenbar" unicode="&#xa6;" horiz-adv-x="60" 
d="M20 367q2 9 8.5 8t6.5 -9q0 -57 -0.5 -111t0.5 -110q-5 -5 -8 -6t-8 4q-1 57 -0.5 112t1.5 112zM27 -95q-4 53 -5.5 103.5t-2.5 102.5q5 11 16 2q0 -52 1.5 -103t5.5 -104q0 -8 -6.5 -8.5t-8.5 7.5z" />
    <glyph glyph-name="perthousand" unicode="&#x2030;" horiz-adv-x="252" 
d="M46 175q-16 0 -24.5 10.5t-11 24.5t0.5 28t11 22q-4 3 -1 10t8 7q31 0 42.5 -16t11 -35t-11.5 -35t-25 -16zM198 303q7 5 11.5 1t1.5 -12q-24 -33 -50.5 -66t-50.5 -67.5t-44.5 -70.5t-33.5 -76q-3 -7 -9.5 -6.5t-6.5 9.5q14 41 34.5 78t45 72.5t51 69t51.5 68.5z
M193 178q5 0 8 -5q19 -6 29.5 -20.5t11 -29.5t-10 -26t-31.5 -11q-12 0 -20 12.5t-10 29t3 31t20 19.5zM36 190q12 -1 19.5 7t10 19.5t-1 23t-14.5 17.5q-12 3 -18.5 -5t-7.5 -19.5t2.5 -24t9.5 -18.5zM201 101q12 -2 18.5 5.5t5.5 18t-9 21t-25 13.5q-6 -5 -7 -14.5t1 -19
t6.5 -16.5t9.5 -8zM131 131q6 0 9 -5q19 -6 29.5 -20.5t10.5 -29.5t-10.5 -26t-31.5 -11q-12 0 -20 12.5t-10 29t3 31t20 19.5zM140 54q12 -2 18.5 6t5.5 18.5t-9 20.5t-25 13q-6 -5 -7 -14.5t1 -19t6 -16.5t10 -8z" />
    <glyph glyph-name="dagger" unicode="&#x2020;" horiz-adv-x="132" 
d="M57 367q2 9 9 8t7 -9q-1 -116 -1 -230.5t8 -229.5q0 -8 -7 -8.5t-9 7.5q-8 117 -8 231.5t1 230.5zM16 193q-8 1 -7.5 6.5t6.5 8.5l100 6q8 0 9 -6.5t-7 -7.5z" />
    <glyph glyph-name="daggerdbl" unicode="&#x2021;" horiz-adv-x="132" 
d="M57 367q2 9 9 8t7 -9q-1 -116 -1 -230.5t8 -229.5q0 -8 -7 -8.5t-9 7.5q-8 117 -8 231.5t1 230.5zM16 193q-8 1 -7.5 6.5t6.5 8.5l100 6q8 0 9 -6.5t-7 -7.5zM16 -1q-8 2 -7.5 7t6.5 9l100 6q8 0 9 -6.5t-7 -8.5z" />
    <glyph glyph-name="ellipsis" unicode="&#x2026;" horiz-adv-x="133" 
d="M10 21q2 11 10.5 9.5t8.5 -12.5q0 -10 -8.5 -10t-10.5 10v3zM57 21q2 11 11 9.5t9 -12.5q-1 -10 -9.5 -10t-10.5 10v3zM105 21q2 11 10.5 9.5t8.5 -12.5q0 -10 -8.5 -10t-10.5 10v3z" />
    <glyph glyph-name="endash" unicode="&#x2013;" horiz-adv-x="150" 
d="M16 115q-7 2 -6.5 7t6.5 9l117 6q8 0 9 -6.5t-7 -8.5z" />
    <glyph glyph-name="emdash" unicode="&#x2014;" horiz-adv-x="165" 
d="M16 115q-7 2 -6.5 7t6.5 9l134 6q8 0 9 -6.5t-7 -8.5z" />
    <glyph glyph-name="quoteleft" unicode="&#x2018;" horiz-adv-x="129" 
d="M61 280q2 8 9 7t7 -9q-3 -17 -10.5 -33t-11.5 -31t0 -27.5t25 -21.5q8 -5 4 -10.5t-11 -3.5q-26 11 -32.5 25t-3 30.5t12 35t11.5 38.5z" />
    <glyph glyph-name="quoteright" unicode="&#x2019;" horiz-adv-x="129" 
d="M60 279q3 -20 11.5 -38.5t12 -35t-3 -30.5t-32.5 -25q-7 -2 -11 3.5t4 10.5q21 9 25 21.5t0 27.5t-11.5 31t-10.5 33q0 8 7 9t9 -7z" />
    <glyph glyph-name="quotedblleft" unicode="&#x201c;" horiz-adv-x="190" 
d="M58 288q4 6 9.5 4.5t5.5 -9.5q-2 -14 -9.5 -32t-11.5 -35t-1 -30t23 -17q8 -2 6.5 -9.5t-9.5 -5.5q-27 6 -33.5 21t-3 34t12 40t11.5 39zM122 280q2 8 8.5 7t6.5 -9q-2 -17 -9.5 -33t-11.5 -31t0 -27.5t25 -21.5q7 -5 3.5 -10.5t-11.5 -3.5q-26 11 -32 25t-2.5 30.5
t12 35t11.5 38.5z" />
    <glyph glyph-name="quotedblright" unicode="&#x201d;" horiz-adv-x="190" 
d="M127 288q3 -18 11.5 -39t12 -40t-3 -34t-33.5 -21q-8 -2 -9.5 5.5t6.5 9.5q19 4 22.5 17t-0.5 30t-11.5 35t-10.5 32q0 8 6 9.5t10 -4.5zM63 280q3 -20 11.5 -38.5t12 -35t-2.5 -30.5t-32 -25q-8 -2 -11.5 3.5t3.5 10.5q21 9 25 21.5t0 27.5t-11.5 31t-9.5 33q0 8 6.5 9
t8.5 -7z" />
    <glyph glyph-name="guilsinglleft" unicode="&#x2039;" horiz-adv-x="175" 
d="M127 218q8 3 11.5 -2t-1.5 -11q-20 -18 -39 -32.5t-39 -33.5q-29 -26 -33 -41.5t12 -29.5q26 -21 57.5 -34t65.5 -24q8 -5 5 -12t-11 -4q-32 14 -68 27t-64 38q-19 18 -15 36t22 37.5t44.5 40.5t52.5 45z" />
    <glyph glyph-name="guilsinglright" unicode="&#x203a;" horiz-adv-x="160" 
d="M29 212q-6 6 -2 11.5t11 0.5l54 -42q43 -32 53 -55.5t-4 -44.5t-47.5 -43t-77.5 -53q-5 -5 -10 -1t-1 10q23 16 45 31t43 32q23 18 32 31t6 25.5t-15.5 25.5t-33.5 30q-13 11 -26 21t-27 21z" />
    <glyph glyph-name="guillemotleft" unicode="&#xab;" horiz-adv-x="266" 
d="M127 218q8 3 11.5 -2t-1.5 -11q-20 -18 -39 -32.5t-39 -33.5q-29 -26 -33 -41.5t12 -29.5q26 -21 57.5 -34t65.5 -24q8 -5 5 -12t-11 -4q-32 14 -68 27t-64 38q-19 18 -15 36t22 37.5t44.5 40.5t52.5 45zM213 226q8 4 12 -1t-2 -12q-20 -18 -39 -32t-39 -33
q-29 -27 -32.5 -42.5t11.5 -28.5q26 -22 57.5 -34.5t65.5 -24.5q8 -4 5 -11t-11 -4q-31 14 -67.5 27t-63.5 37q-19 18 -15 36.5t21.5 37.5t44 40t52.5 45z" />
    <glyph glyph-name="guillemotright" unicode="&#xbb;" horiz-adv-x="244" 
d="M29 212q-6 6 -2 11.5t11 0.5l54 -42q43 -32 53 -55.5t-4 -44.5t-47.5 -43t-77.5 -53q-5 -5 -10 -1t-1 10q23 16 45 31t43 32q23 18 32 31t6 25.5t-15.5 25.5t-33.5 30q-13 11 -26 21t-27 21zM110 213q-6 6 -1.5 11.5t10.5 0.5l54 -42q43 -32 53.5 -55.5t-3.5 -44.5
t-47.5 -43t-77.5 -53q-6 -5 -11 -1t-1 10q23 16 45 31t44 32t31 30.5t6 25.5t-15.5 25.5t-33.5 30.5q-13 11 -26 21t-27 21z" />
    <glyph glyph-name="section" unicode="&#xa7;" horiz-adv-x="226" 
d="M148 270q6 -5 2.5 -9t-10.5 -4q-11 3 -25.5 4.5t-29 2t-27.5 0t-21 -2.5q-5 -2 -6.5 -5t3.5 -8q10 -10 25 -20t31.5 -20.5t33.5 -21.5t31 -22q14 3 29 4t29 3q8 -2 5.5 -7.5t-8.5 -7.5l-41 -5q13 -13 14 -25.5t-6 -23.5t-19.5 -19t-27.5 -11q-13 -3 -31 -3.5t-35 3.5
t-30 12.5t-15 22.5q0 8 14.5 16.5t33 16t37 13t27.5 7.5q-17 12 -37 25t-37.5 24.5t-30 21t-14.5 15.5q-3 9 -1.5 17.5t12.5 11.5q10 3 25 4.5t31.5 1t34.5 -3t34 -7.5zM96 194q-17 1 -33 0.5t-26 -2.5q-5 -2 -6.5 -5t3.5 -8q10 -10 25 -20l33 -22t38 -25.5t39 -29.5
q13 -13 14 -25.5t-6 -23.5t-19.5 -19t-27.5 -11q-13 -3 -31 -3.5t-35 3.5t-30 12.5t-15 22.5q0 6 8 12t21 12q9 0 10.5 -2t-2.5 -9q-19 -10 -20 -13q0 -8 10 -13t24 -8t28.5 -3t22.5 2q35 8 43.5 25.5t-17.5 37.5q-23 17 -46 32t-42 28t-32 22.5t-15 15.5q-3 8 -1.5 16.5
t12.5 12.5q20 5 49 5zM121 86q35 8 43.5 25t-17.5 37q-15 -2 -34 -7.5t-35.5 -11.5t-28.5 -12t-13 -10q0 -8 10 -13t24 -7.5t28.5 -2.5t22.5 2z" />
    <glyph glyph-name="copyright" unicode="&#xa9;" horiz-adv-x="348" 
d="M214 285q4 -7 -1 -11q25 -4 53.5 -19t48 -37.5t24 -51.5t-17.5 -62q-13 -19 -34.5 -38t-48 -33.5t-57.5 -23t-62 -6.5q-34 3 -58 23.5t-37 49t-15 61.5t9 61q6 17 12.5 27t14.5 17.5t18 14.5t24 18q9 6 25.5 11.5t35.5 8.5t37 1t29 -11zM111 261q-3 -5 -8 -6t-7 4
q-35 -12 -52.5 -42.5t-19 -65.5t12.5 -67.5t43 -50.5q10 -6 20.5 -9t20.5 -5q19 -6 46 0.5t54.5 20.5t51.5 34.5t37 44.5t11 49t-26 48q-18 17 -42 28t-47 16q-5 1 -20 3t-30.5 2.5t-29 0t-15.5 -4.5zM182 191q-6 -4 -11 1q-25 -2 -47 -19t-29 -34.5t8 -28t63 2.5
q12 4 22.5 8t21.5 8q8 0 9.5 -6t-5.5 -10q-10 -3 -21.5 -8t-23.5 -7q-10 -2 -19 -4t-18 -2q-29 -1 -41.5 8.5t-13 23t8.5 29.5t24 29t33.5 20.5t36.5 4.5q11 -3 4 -13zM196 277q-9 4 -22 4q7 -1 12 -2z" />
    <glyph glyph-name="registered" unicode="&#xae;" horiz-adv-x="348" 
d="M214 285q4 -7 -1 -11q25 -4 53.5 -19t48 -37.5t24 -51.5t-17.5 -62q-13 -19 -34.5 -38t-48 -33.5t-57.5 -23t-62 -6.5q-34 3 -58 23.5t-37 49t-15 61.5t9 61q6 17 12.5 27t14.5 17.5t18 14.5t24 18q9 6 25.5 11.5t35.5 8.5t37 1t29 -11zM115 213q2 9 9 8t7 -9v-22
q11 23 29.5 30t30.5 0q6 -3 10.5 -8.5t3 -15t-12 -24t-35.5 -36.5q33 -6 66.5 -18t62.5 -26l2 -2q13 14 21.5 30t10.5 32t-3.5 32.5t-21.5 31.5q-18 17 -42 28t-47 16q-5 1 -20 3t-30.5 2.5t-29 0t-15.5 -4.5q-3 -5 -8 -6t-7 4q-35 -12 -52.5 -42.5t-19 -65.5t12.5 -67.5
t43 -50.5q10 -6 20.5 -9t20.5 -5q15 -4 34.5 -1.5t41 11t42.5 21.5t38 29q-38 18 -76 30.5t-70 14.5q-1 -14 -1 -26.5t-1 -20.5v-2h-1q-4 -5 -8.5 -4t-6.5 8q2 34 2 67v67zM186 206q-14 2 -23 -2.5t-15 -13.5t-9.5 -22t-5.5 -26q9 4 19.5 12t19 17.5t13 19t1.5 15.5z
M196 277q-9 4 -22 4q7 -1 12 -2z" />
    <glyph glyph-name="AE" unicode="&#xc6;" horiz-adv-x="269" 
d="M248 121q-18 -2 -45 -7t-57 -11t-58 -12.5t-47 -10.5l-19 -78q-5 -4 -9.5 -2.5t-5.5 7.5q2 9 7.5 29.5t8.5 37.5l-11 -3q-9 1 -10.5 7.5t5.5 8.5l21 5q10 54 24.5 106t25.5 106q2 4 7 3.5t8 -7.5l4 -24l-8 -53l-4 28l-40 -153q3 0 26.5 6t54.5 12.5t63.5 12.5t52.5 8
q8 -1 10 -7t-4 -9zM86 141q-8 50 -6 88.5t21 63.5q5 6 21.5 8t35 2t36 -1t23.5 -1q7 -2 7 -8t-8 -8q-12 0 -28 1t-31.5 1.5t-28 -1t-17.5 -5.5q-11 -11 -14 -45t2 -74q8 -54 20.5 -92t27.5 -46q9 -5 23.5 -1t29.5 11t29 15t22 12q7 0 9 -5.5t-5 -9.5q-13 -7 -26.5 -15
t-28 -14t-29.5 -8.5t-30 1.5q-14 4 -23 21.5t-12 28.5q-5 16 -10 37t-10 44z" />
    <glyph glyph-name="ae" unicode="&#xe6;" horiz-adv-x="239" 
d="M139 150q2 -5 -3.5 -10t-10.5 0q4 -19 10 -40t12 -40.5t13 -35t13 -23.5q2 -6 -3.5 -10.5t-10.5 0.5q-17 25 -23 52t-13 56l-5 17q-5 -27 -19 -48q-9 -12 -22.5 -23t-27 -14.5t-24.5 3.5t-15 30q-3 21 4 42.5t20.5 39t31 29t33.5 13.5v4q2 5 6.5 7t8.5 -3l2 -12
q17 -7 23 -34zM87 74q14 22 16 47t-1 50q-12 2 -27 -6.5t-27 -23.5t-19 -33.5t-4 -34.5q3 -17 10 -22.5t16 -4t18.5 9t17.5 18.5zM126 110q1 16 7 32t16 27t22 15.5t25 -2.5q21 -11 23.5 -27.5t-7.5 -31t-28.5 -25t-40.5 -9.5q6 -17 25 -22.5t54 14.5q9 2 8.5 -4t-5.5 -10
q-16 -9 -34.5 -14.5t-37.5 3.5q-11 5 -19.5 16.5t-7.5 37.5zM188 167q-11 4 -20 -0.5t-15.5 -14t-10 -22t-3.5 -24.5q18 -5 32.5 2t23 18t7.5 23t-14 18z" />
    <glyph glyph-name="OE" unicode="&#x152;" horiz-adv-x="306" 
d="M162 35q-17 -6 -34 -9.5t-34 -2.5q-41 2 -64 33t-27.5 70.5t8.5 78t43 56.5l4 3h-1q-2 5 -3.5 7.5t0.5 7.5q5 7 16.5 6.5t24.5 -5.5q18 -6 38 -20l-8 -13q-14 10 -31 16q-13 -5 -22 -10t-10 -5q-24 -18 -35.5 -52t-8 -68.5t22.5 -60.5t57 -28q28 -2 55 9zM99 130
q-9 -2 -10 4.5t5 10.5l27 11q-6 38 -4 75t21 62q5 6 21.5 8t35 2t36 -1t23.5 -1q7 -2 7 -8t-8 -8q-12 0 -27.5 1t-31 1.5t-28 -1t-17.5 -5.5q-12 -11 -14.5 -45t2.5 -74q36 13 72.5 21.5t73.5 17.5q8 0 9.5 -5.5t-4.5 -9.5q-38 -9 -75.5 -17.5t-74.5 -22.5q3 -21 8 -41
t11 -36.5t12.5 -28.5t14.5 -16q9 -5 23.5 -1t29.5 11t29 15t22 12q7 0 9 -5.5t-5 -9.5q-13 -7 -26.5 -15t-27.5 -14t-29 -8.5t-31 1.5q-14 4 -23 21.5t-12 28.5q-5 16 -10 37t-9 44z" />
    <glyph glyph-name="oe" unicode="&#x153;" horiz-adv-x="199" 
d="M102 68q-8 -22 -27.5 -29t-39.5 2q-15 5 -22.5 21.5t0.5 42.5q6 17 17.5 35.5t23.5 26.5q-2 5 5.5 12t11.5 1q10 -10 16.5 -22t11.5 -25l-10 -22q-2 14 -7 26t-13 19q-11 -3 -22 -16.5t-17.5 -29.5t-5.5 -31t14 -21q24 -12 36 -3.5t15 25.5zM84 101q1 16 7 32t16 27
t22 15.5t25 -2.5q21 -11 23.5 -27.5t-7.5 -31t-28.5 -25t-40.5 -9.5q6 -17 25 -22.5t54 14.5q9 2 8.5 -4t-5.5 -10q-16 -9 -34.5 -14.5t-37.5 3.5q-11 5 -19.5 16.5t-7.5 37.5zM146 158q-11 4 -20 -0.5t-15.5 -14t-10 -22t-3.5 -24.5q18 -5 32.5 2t23 18t7.5 23t-14 18z" />
    <glyph glyph-name="trademark" unicode="&#x2122;" horiz-adv-x="245" 
d="M120 195q-6 -4 -10.5 1t-0.5 11q14 21 19.5 39t7.5 43q1 5 6.5 6.5t7.5 -3.5q4 -11 6 -20t3.5 -17.5t4.5 -16t9 -14.5q8 18 7 38.5t1 40.5q2 12 13 6q4 -3 9.5 -16.5t11 -30.5t10 -33t7.5 -24t-4 -11t-10 5l-22 66q0 -19 -3.5 -36t-17.5 -22q-2 -1 -3 -0.5t-3 0.5
q-10 9 -15 20t-9 22q-6 -26 -25 -54zM15 278q-8 2 -8 7.5t6 8.5q24 1 48 8q6 2 9 1l20 4t21 2q8 0 9 -6.5t-8 -8.5q-10 -1 -19 -2.5t-18 -3.5q0 -23 1.5 -47t1.5 -47q0 -9 -7 -9t-9 8q0 23 -1 46t-1 46q-11 -2 -22.5 -4t-22.5 -3z" />
    <glyph glyph-name="multiply" unicode="&#xd7;" horiz-adv-x="131" 
d="M85 189q4 7 9.5 5t5.5 -9q-5 -14 -12 -27.5t-15 -26.5q14 -20 26.5 -39t20.5 -28q5 -7 0 -11t-12 1q-7 8 -19 25.5t-26 37.5q-10 -15 -19 -29.5t-17 -29.5q-4 -7 -10.5 -5.5t-5.5 9.5q9 18 20.5 34.5t22.5 33.5q-11 15 -20.5 26.5t-15.5 16.5q-5 -2 -7 1.5t-1.5 7
t3.5 6.5t8 1q8 -2 19 -15t23 -30q7 11 12.5 22.5t9.5 22.5z" />
    <glyph glyph-name="divide" unicode="&#xf7;" horiz-adv-x="170" 
d="M17 124q-8 1 -7.5 8t8.5 8l132 7q8 0 9.5 -7t-6.5 -9zM76 92q2 9 9 8.5t9 -8.5q0 -10 -8 -10t-10 9v1zM86 184q4 -6 2 -9.5t-6 -5t-7.5 0.5t-3.5 8q0 8 5.5 8.5t9.5 -2.5z" />
    <glyph glyph-name="paragraph" unicode="&#xb6;" horiz-adv-x="214" 
d="M165 283q5 -38 9.5 -77t7.5 -79q5 0 14 -4.5t7 -12.5q-2 -12 -21 -17q0 -7 0.5 -18t0.5 -22.5t-0.5 -22.5t-0.5 -18q-1 -6 -8 -7t-10 4q0 1 -0.5 12.5t-0.5 25.5t-0.5 27t-0.5 16q-21 -1 -43 0q0 -23 -1 -46t-4 -46q-3 -6 -8.5 -6t-6.5 8q2 23 3.5 46t1.5 46l-22 5
q-26 6 -44 19.5t-25 33.5q-8 23 -3.5 44t15.5 39t26 32.5t29 24.5q4 3 13 7t18.5 5.5t19 -0.5t14.5 -10l5 -8q2 5 7.5 4.5t7.5 -5.5zM132 282q-10 8 -21 5l1 -3q2 -45 4.5 -89.5t2.5 -89.5q11 -2 21 -1.5t21 1.5q-2 26 -3.5 54.5t-4.5 53.5t-8 43.5t-13 25.5zM182 113v-3h1
l2 1z" />
    <glyph glyph-name="Aacute" unicode="&#xc1;" horiz-adv-x="199" 
d="M11 72q-8 1 -9.5 7.5t5.5 8.5l19 4q13 54 27 106t25 106q2 4 7 3.5t8 -7.5q1 -10 5 -31.5t9 -48.5t11.5 -56t12.5 -54l52 5q8 -2 9.5 -7.5t-4.5 -8.5q-27 -2 -54 -6q6 -23 18 -46.5t30 -30.5q8 -4 5.5 -11t-11.5 -4q-37 13 -58 91q-20 -3 -38.5 -6t-38.5 -7l-19 -77
q-5 -4 -9.5 -2.5t-5.5 7.5q2 9 7 29.5t9 37.5zM44 97q17 3 35 5.5t35 4.5q-11 38 -18 78t-11 66zM60 327q-5 -4 -10 1t-1 10q13 17 26.5 31.5t27.5 29.5q7 5 11.5 0.5t-0.5 -11.5q-14 -15 -27.5 -29.5t-26.5 -31.5z" />
    <glyph glyph-name="Abreve" unicode="&#x102;" horiz-adv-x="199" 
d="M11 72q-8 1 -9.5 7.5t5.5 8.5l19 4q13 54 27 106t25 106q2 4 7 3.5t8 -7.5q1 -10 5 -31.5t9 -48.5t11.5 -56t12.5 -54l52 5q8 -2 9.5 -7.5t-4.5 -8.5q-27 -2 -54 -6q6 -23 18 -46.5t30 -30.5q8 -4 5.5 -11t-11.5 -4q-37 13 -58 91q-20 -3 -38.5 -6t-38.5 -7l-19 -77
q-5 -4 -9.5 -2.5t-5.5 7.5q2 9 7 29.5t9 37.5zM44 97q17 3 35 5.5t35 4.5q-11 38 -18 78t-11 66zM38 371q0 7 6.5 9t8.5 -5q4 -18 12 -26.5t17 -8t16.5 10t10.5 26.5q3 8 10.5 6t5.5 -10q-4 -23 -16.5 -35t-26.5 -13t-27 10.5t-17 35.5z" />
    <glyph glyph-name="Acircumflex" unicode="&#xc2;" horiz-adv-x="199" 
d="M11 72q-8 1 -9.5 7.5t5.5 8.5l19 4q13 54 27 106t25 106q2 4 7 3.5t8 -7.5q1 -10 5 -31.5t9 -48.5t11.5 -56t12.5 -54l52 5q8 -2 9.5 -7.5t-4.5 -8.5q-27 -2 -54 -6q6 -23 18 -46.5t30 -30.5q8 -4 5.5 -11t-11.5 -4q-37 13 -58 91q-20 -3 -38.5 -6t-38.5 -7l-19 -77
q-5 -4 -9.5 -2.5t-5.5 7.5q2 9 7 29.5t9 37.5zM44 97q17 3 35 5.5t35 4.5q-11 38 -18 78t-11 66zM65 323q-4 -6 -9 -7t-5 7q3 16 9.5 34t14.5 32q5 8 13 5q3 -3 7 -11t7.5 -17.5l7 -19t6.5 -14.5q8 -2 0 -12l-1 -1q-6 -4 -11 0q-7 9 -12 25t-10 27q-5 -11 -9.5 -24t-7.5 -24
z" />
    <glyph glyph-name="Agrave" unicode="&#xc0;" horiz-adv-x="199" 
d="M11 72q-8 1 -9.5 7.5t5.5 8.5l19 4q13 54 27 106t25 106q2 4 7 3.5t8 -7.5q1 -10 5 -31.5t9 -48.5t11.5 -56t12.5 -54l52 5q8 -2 9.5 -7.5t-4.5 -8.5q-27 -2 -54 -6q6 -23 18 -46.5t30 -30.5q8 -4 5.5 -11t-11.5 -4q-37 13 -58 91q-20 -3 -38.5 -6t-38.5 -7l-19 -77
q-5 -4 -9.5 -2.5t-5.5 7.5q2 9 7 29.5t9 37.5zM44 97q17 3 35 5.5t35 4.5q-11 38 -18 78t-11 66zM67 363q-6 6 -1.5 11.5t11.5 0.5q10 -9 18 -19t17 -20q5 -7 0 -11t-12 1q-8 9 -15.5 19t-17.5 18z" />
    <glyph glyph-name="Adieresis" unicode="&#xc4;" horiz-adv-x="199" 
d="M11 72q-8 1 -9.5 7.5t5.5 8.5l19 4q13 54 27 106t25 106q2 4 7 3.5t8 -7.5q1 -10 5 -31.5t9 -48.5t11.5 -56t12.5 -54l52 5q8 -2 9.5 -7.5t-4.5 -8.5q-27 -2 -54 -6q6 -23 18 -46.5t30 -30.5q8 -4 5.5 -11t-11.5 -4q-37 13 -58 91q-20 -3 -38.5 -6t-38.5 -7l-19 -77
q-5 -4 -9.5 -2.5t-5.5 7.5q2 9 7 29.5t9 37.5zM44 97q17 3 35 5.5t35 4.5q-11 38 -18 78t-11 66zM70 343q0 -11 -8 -11.5t-10 10.5v3q2 11 10 10t8 -11v-1zM113 351q4 -10 -4.5 -13t-12.5 6v1l-1 2q-1 8 5.5 11.5t11.5 -4.5v-2q0 -1 1 -1z" />
    <glyph glyph-name="Amacron" unicode="&#x100;" horiz-adv-x="199" 
d="M11 72q-8 1 -9.5 7.5t5.5 8.5l19 4q13 54 27 106t25 106q2 4 7 3.5t8 -7.5q1 -10 5 -31.5t9 -48.5t11.5 -56t12.5 -54l52 5q8 -2 9.5 -7.5t-4.5 -8.5q-27 -2 -54 -6q6 -23 18 -46.5t30 -30.5q8 -4 5.5 -11t-11.5 -4q-37 13 -58 91q-20 -3 -38.5 -6t-38.5 -7l-19 -77
q-5 -4 -9.5 -2.5t-5.5 7.5q2 9 7 29.5t9 37.5zM44 97q17 3 35 5.5t35 4.5q-11 38 -18 78t-11 66zM38 343q-7 1 -7 6.5t6 8.5q23 4 46.5 4t47.5 -2q7 -2 7 -8t-8 -8q-23 2 -45.5 2t-46.5 -3z" />
    <glyph glyph-name="Aogonek" unicode="&#x104;" horiz-adv-x="199" 
d="M11 72q-8 1 -9.5 7.5t5.5 8.5l19 4q13 54 27 106t25 106q2 4 7 3.5t8 -7.5q1 -10 5 -31.5t9 -48.5t11.5 -56t12.5 -54l52 5q8 -2 9.5 -7.5t-4.5 -8.5q-27 -2 -54 -6q6 -23 18 -46.5t30 -30.5q8 -4 5.5 -11t-11.5 -4q-37 13 -58 91q-20 -3 -38.5 -6t-38.5 -7l-19 -77
q-5 -4 -9.5 -2.5t-5.5 7.5q2 9 7 29.5t9 37.5zM44 97q17 3 35 5.5t35 4.5q-11 38 -18 78t-11 66zM173 13q8 5 12.5 0.5t-0.5 -11.5q-8 -11 -14 -22.5t-9 -25.5q4 -1 9.5 1t11.5 4.5t11 5t8 4.5q7 0 9 -6t-5 -10q-30 -15 -43.5 -14.5t-15 10.5t6 27t19.5 37z" />
    <glyph glyph-name="Aring" unicode="&#xc5;" horiz-adv-x="199" 
d="M11 72q-8 1 -9.5 7.5t5.5 8.5l19 4q13 54 27 106t25 106q2 4 7 3.5t8 -7.5q1 -10 5 -31.5t9 -48.5t11.5 -56t12.5 -54l52 5q8 -2 9.5 -7.5t-4.5 -8.5q-27 -2 -54 -6q6 -23 18 -46.5t30 -30.5q8 -4 5.5 -11t-11.5 -4q-37 13 -58 91q-20 -3 -38.5 -6t-38.5 -7l-19 -77
q-5 -4 -9.5 -2.5t-5.5 7.5q2 9 7 29.5t9 37.5zM44 97q17 3 35 5.5t35 4.5q-11 38 -18 78t-11 66zM85 373q6 0 9 -5q8 -6 12 -14t2.5 -15t-8.5 -11.5t-20 -3.5q-19 1 -21.5 15t7.5 25q-2 4 -0.5 8t7.5 4l10 -3h2zM81 339q14 -2 12.5 5t-10.5 12q-7 -3 -10 -9t8 -8z" />
    <glyph glyph-name="Atilde" unicode="&#xc3;" horiz-adv-x="199" 
d="M11 72q-8 1 -9.5 7.5t5.5 8.5l19 4q13 54 27 106t25 106q2 4 7 3.5t8 -7.5q1 -10 5 -31.5t9 -48.5t11.5 -56t12.5 -54l52 5q8 -2 9.5 -7.5t-4.5 -8.5q-27 -2 -54 -6q6 -23 18 -46.5t30 -30.5q8 -4 5.5 -11t-11.5 -4q-37 13 -58 91q-20 -3 -38.5 -6t-38.5 -7l-19 -77
q-5 -4 -9.5 -2.5t-5.5 7.5q2 9 7 29.5t9 37.5zM44 97q17 3 35 5.5t35 4.5q-11 38 -18 78t-11 66zM57 335q-2 -8 -8 -7.5t-7 9.5q-1 10 3 18t9 16q8 11 15.5 7t14 -13t12 -17.5t9.5 -6.5t6 11t2 16q0 8 7 5.5t8 -10.5q0 -6 -1.5 -14.5t-6 -15t-11 -8.5t-15.5 5
q-8 6 -13.5 14.5t-12.5 16.5q-5 -5 -8 -11.5t-3 -14.5z" />
    <glyph glyph-name="AEacute" unicode="&#x1fc;" horiz-adv-x="269" 
d="M248 121q-18 -2 -45 -7t-57 -11t-58 -12.5t-47 -10.5l-19 -78q-5 -4 -9.5 -2.5t-5.5 7.5q2 9 7.5 29.5t8.5 37.5l-11 -3q-9 1 -10.5 7.5t5.5 8.5l21 5q10 54 24.5 106t25.5 106q2 4 7 3.5t8 -7.5l4 -24l-8 -53l-4 28l-40 -153q3 0 26.5 6t54.5 12.5t63.5 12.5t52.5 8
q8 -1 10 -7t-4 -9zM86 141q-8 50 -6 88.5t21 63.5q5 6 21.5 8t35 2t36 -1t23.5 -1q7 -2 7 -8t-8 -8q-12 0 -28 1t-31.5 1.5t-28 -1t-17.5 -5.5q-11 -11 -14 -45t2 -74q8 -54 20.5 -92t27.5 -46q9 -5 23.5 -1t29.5 11t29 15t22 12q7 0 9 -5.5t-5 -9.5q-13 -7 -26.5 -15
t-28 -14t-29.5 -8.5t-30 1.5q-14 4 -23 21.5t-12 28.5q-5 16 -10 37t-10 44zM112 327q-5 -4 -10 1t-1 10q13 17 26.5 31.5t27.5 29.5q7 5 11.5 0.5t-0.5 -11.5q-14 -15 -27.5 -29.5t-26.5 -31.5z" />
    <glyph glyph-name="Cacute" unicode="&#x106;" horiz-adv-x="267" 
d="M92 296q10 3 23.5 2t25.5 -6t19.5 -14t5.5 -21q0 -7 -4 -10.5t-8 -4.5t-6.5 2t0.5 10q4 9 -1 15.5t-14 10t-19 4t-17 -1.5q-16 -5 -28.5 -16.5t-21.5 -25.5t-15 -30t-9 -31q-5 -27 -1 -56t18 -52q21 -33 49 -41t56.5 -0.5t55 26.5t45.5 41q8 5 12.5 0.5t-0.5 -11.5
q-16 -19 -35 -35t-41 -26.5t-46.5 -13.5t-49.5 4q-24 6 -41 23.5t-26.5 41t-12.5 50.5t2 53q3 18 9.5 35.5t17 33t24.5 27t33 17.5zM76 327q-5 -4 -10 1t-1 10q13 17 26.5 31.5t27.5 29.5q7 5 11.5 0.5t-0.5 -11.5q-14 -15 -27.5 -29.5t-26.5 -31.5z" />
    <glyph glyph-name="Ccedilla" unicode="&#xc7;" horiz-adv-x="267" 
d="M133 22q-2 -11 -3 -22.5t6 -18.5q5 -5 13 -6.5t16 -3.5t14 -5.5t8 -13.5q1 -7 -4 -14t-12.5 -12.5t-16.5 -8.5t-15 -1q-2 0 -4 2q-2 1 -3 2q-6 6 -1.5 11.5t11.5 0.5q2 -2 5.5 -0.5t5.5 2.5q14 9 17 18q-21 9 -32.5 13t-16 9.5t-5 15.5t1.5 31zM92 296q10 3 23.5 2
t25.5 -6t19.5 -14t5.5 -21q0 -7 -4 -10.5t-8 -4.5t-6.5 2t0.5 10q4 9 -1 15.5t-14 10t-19 4t-17 -1.5q-16 -5 -28.5 -16.5t-21.5 -25.5t-15 -30t-9 -31q-5 -27 -1 -56t18 -52q21 -33 49 -41t56.5 -0.5t55 26.5t45.5 41q8 5 12.5 0.5t-0.5 -11.5q-16 -19 -35 -35t-41 -26.5
t-46.5 -13.5t-49.5 4q-24 6 -41 23.5t-26.5 41t-12.5 50.5t2 53q3 18 9.5 35.5t17 33t24.5 27t33 17.5z" />
    <glyph glyph-name="Ccircumflex" unicode="&#x108;" horiz-adv-x="267" 
d="M92 296q10 3 23.5 2t25.5 -6t19.5 -14t5.5 -21q0 -7 -4 -10.5t-8 -4.5t-6.5 2t0.5 10q4 9 -1 15.5t-14 10t-19 4t-17 -1.5q-16 -5 -28.5 -16.5t-21.5 -25.5t-15 -30t-9 -31q-5 -27 -1 -56t18 -52q21 -33 49 -41t56.5 -0.5t55 26.5t45.5 41q8 5 12.5 0.5t-0.5 -11.5
q-16 -19 -35 -35t-41 -26.5t-46.5 -13.5t-49.5 4q-24 6 -41 23.5t-26.5 41t-12.5 50.5t2 53q3 18 9.5 35.5t17 33t24.5 27t33 17.5zM87 329q-4 -6 -9 -7t-5 7q3 16 9.5 34t14.5 32q5 8 13 5q3 -3 7 -11t7.5 -17.5l7 -19t6.5 -14.5q8 -2 0 -12l-1 -1q-6 -4 -11 0q-7 9 -12 25
t-10 27q-5 -11 -9.5 -24t-7.5 -24z" />
    <glyph glyph-name="Cdotaccent" unicode="&#x10a;" horiz-adv-x="267" 
d="M92 296q10 3 23.5 2t25.5 -6t19.5 -14t5.5 -21q0 -7 -4 -10.5t-8 -4.5t-6.5 2t0.5 10q4 9 -1 15.5t-14 10t-19 4t-17 -1.5q-16 -5 -28.5 -16.5t-21.5 -25.5t-15 -30t-9 -31q-5 -27 -1 -56t18 -52q21 -33 49 -41t56.5 -0.5t55 26.5t45.5 41q8 5 12.5 0.5t-0.5 -11.5
q-16 -19 -35 -35t-41 -26.5t-46.5 -13.5t-49.5 4q-24 6 -41 23.5t-26.5 41t-12.5 50.5t2 53q3 18 9.5 35.5t17 33t24.5 27t33 17.5zM114 344q4 -10 -4.5 -13t-13.5 6v3q-1 8 5.5 11.5t11.5 -4.5v-2q0 -1 1 -1z" />
    <glyph glyph-name="Ccaron" unicode="&#x10c;" horiz-adv-x="267" 
d="M92 296q10 3 23.5 2t25.5 -6t19.5 -14t5.5 -21q0 -7 -4 -10.5t-8 -4.5t-6.5 2t0.5 10q4 9 -1 15.5t-14 10t-19 4t-17 -1.5q-16 -5 -28.5 -16.5t-21.5 -25.5t-15 -30t-9 -31q-5 -27 -1 -56t18 -52q21 -33 49 -41t56.5 -0.5t55 26.5t45.5 41q8 5 12.5 0.5t-0.5 -11.5
q-16 -19 -35 -35t-41 -26.5t-46.5 -13.5t-49.5 4q-24 6 -41 23.5t-26.5 41t-12.5 50.5t2 53q3 18 9.5 35.5t17 33t24.5 27t33 17.5zM63 383q-2 6 2.5 9.5t9.5 -0.5q9 -11 15 -23t13 -24q4 16 8 36l5 25q2 8 9 7t7 -9q0 -3 -2.5 -14.5t-5.5 -25.5t-6 -25.5t-4 -14.5
q-6 -11 -14 -3q-12 13 -19 30.5t-18 31.5z" />
    <glyph glyph-name="Dcaron" unicode="&#x10e;" horiz-adv-x="296" 
d="M3 37q2 35 3.5 69.5t3.5 69.5q-2 40 -1 73.5t13 45.5l9.5 9.5t9.5 5.5q8 2 23 -5t30.5 -16.5t28.5 -19.5t19 -13q13 -9 36 -24.5t45.5 -33.5t40.5 -37t21 -35q7 -33 -12.5 -59.5t-51 -43t-68.5 -21t-66 6.5q-5 6 -1 11.5t11 0.5q10 -8 28.5 -7.5t39.5 6.5t42.5 17
t37.5 25t23.5 29.5t1.5 31.5q-5 11 -20 27.5t-36 34t-45.5 36t-48 33.5t-43.5 26t-32 14q-9 -9 -13 -25.5t-5.5 -35.5t-1 -38t-0.5 -33q3 -39 4 -74.5t-10 -52.5v-4l-2 1q-1 0 -1 -1q-5 -2 -8.5 -0.5t-4.5 6.5zM10 403q-2 6 2.5 9.5t9.5 -0.5q9 -11 15 -23t13 -24q4 16 8 36
l5 25q2 8 9 7t7 -9q0 -3 -2.5 -14.5t-5.5 -25.5t-6 -25.5t-4 -14.5q-6 -11 -14 -3q-12 13 -19 30.5t-18 31.5z" />
    <glyph glyph-name="Dcroat" unicode="&#x110;" horiz-adv-x="310" 
d="M14 37q2 35 3.5 69.5t3.5 69.5q-2 40 -1 73.5t13 45.5l9.5 9.5t9.5 5.5q8 2 23 -5t30.5 -16.5t28.5 -19.5t19 -13q13 -9 36 -24.5t45.5 -33.5t40.5 -37t21 -35q7 -33 -12.5 -59.5t-51 -43t-68.5 -21t-66 6.5q-5 6 -1 11.5t11 0.5q10 -8 28.5 -7.5t39.5 6.5t42.5 17
t37.5 25t23.5 29.5t1.5 31.5q-5 11 -20 27.5t-36 34t-45.5 36t-48 33.5t-43.5 26t-32 14q-9 -9 -13 -25.5t-5.5 -35.5t-1 -38t-0.5 -33q3 -39 4 -74.5t-10 -52.5v-4l-2 1q-1 0 -1 -1q-5 -2 -8.5 -0.5t-4.5 6.5zM8 124q-7 1 -7 6.5t6 8.5q23 4 46.5 4t47.5 -2q7 -2 7 -8
t-8 -8q-23 2 -45.5 2t-46.5 -3z" />
    <glyph glyph-name="Eacute" unicode="&#xc9;" horiz-adv-x="216" 
d="M10 130q-9 -2 -10 4.5t5 10.5l27 11q-6 38 -4 75t21 62q5 6 21.5 8t35 2t36 -1t23.5 -1q7 -2 7 -8t-8 -8q-12 0 -27.5 1t-31 1.5t-28 -1t-17.5 -5.5q-12 -11 -14.5 -45t2.5 -74q36 13 72.5 21.5t73.5 17.5q8 0 9.5 -5.5t-4.5 -9.5q-38 -9 -75.5 -17.5t-74.5 -22.5
q3 -21 8 -41t11 -36.5t12.5 -28.5t14.5 -16q9 -5 23.5 -1t29.5 11t29 15t22 12q7 0 9 -5.5t-5 -9.5q-13 -7 -26.5 -15t-27.5 -14t-29 -8.5t-31 1.5q-14 4 -23 21.5t-12 28.5q-5 16 -10 37t-9 44l-25 -11v0zM86 327q-5 -4 -10 1t-1 10q13 17 26.5 31.5t27.5 29.5
q7 5 11.5 0.5t-0.5 -11.5q-14 -15 -27.5 -29.5t-26.5 -31.5z" />
    <glyph glyph-name="Ebreve" unicode="&#x114;" horiz-adv-x="216" 
d="M10 130q-9 -2 -10 4.5t5 10.5l27 11q-6 38 -4 75t21 62q5 6 21.5 8t35 2t36 -1t23.5 -1q7 -2 7 -8t-8 -8q-12 0 -27.5 1t-31 1.5t-28 -1t-17.5 -5.5q-12 -11 -14.5 -45t2.5 -74q36 13 72.5 21.5t73.5 17.5q8 0 9.5 -5.5t-4.5 -9.5q-38 -9 -75.5 -17.5t-74.5 -22.5
q3 -21 8 -41t11 -36.5t12.5 -28.5t14.5 -16q9 -5 23.5 -1t29.5 11t29 15t22 12q7 0 9 -5.5t-5 -9.5q-13 -7 -26.5 -15t-27.5 -14t-29 -8.5t-31 1.5q-14 4 -23 21.5t-12 28.5q-5 16 -10 37t-9 44l-25 -11v0zM64 371q0 7 6.5 9t8.5 -5q4 -18 12 -26.5t17 -8t16.5 10t10.5 26.5
q3 8 10.5 6t5.5 -10q-4 -23 -16.5 -35t-26.5 -13t-27 10.5t-17 35.5z" />
    <glyph glyph-name="Ecaron" unicode="&#x11a;" horiz-adv-x="216" 
d="M10 130q-9 -2 -10 4.5t5 10.5l27 11q-6 38 -4 75t21 62q5 6 21.5 8t35 2t36 -1t23.5 -1q7 -2 7 -8t-8 -8q-12 0 -27.5 1t-31 1.5t-28 -1t-17.5 -5.5q-12 -11 -14.5 -45t2.5 -74q36 13 72.5 21.5t73.5 17.5q8 0 9.5 -5.5t-4.5 -9.5q-38 -9 -75.5 -17.5t-74.5 -22.5
q3 -21 8 -41t11 -36.5t12.5 -28.5t14.5 -16q9 -5 23.5 -1t29.5 11t29 15t22 12q7 0 9 -5.5t-5 -9.5q-13 -7 -26.5 -15t-27.5 -14t-29 -8.5t-31 1.5q-14 4 -23 21.5t-12 28.5q-5 16 -10 37t-9 44l-25 -11v0zM65 384q-2 6 2.5 9.5t9.5 -0.5q9 -11 15 -23t13 -24q4 16 8 36
l5 25q2 8 9 7t7 -9q0 -3 -2.5 -14.5t-5.5 -25.5t-6 -25.5t-4 -14.5q-6 -11 -14 -3q-12 13 -19 30.5t-18 31.5z" />
    <glyph glyph-name="Ecircumflex" unicode="&#xca;" horiz-adv-x="216" 
d="M10 130q-9 -2 -10 4.5t5 10.5l27 11q-6 38 -4 75t21 62q5 6 21.5 8t35 2t36 -1t23.5 -1q7 -2 7 -8t-8 -8q-12 0 -27.5 1t-31 1.5t-28 -1t-17.5 -5.5q-12 -11 -14.5 -45t2.5 -74q36 13 72.5 21.5t73.5 17.5q8 0 9.5 -5.5t-4.5 -9.5q-38 -9 -75.5 -17.5t-74.5 -22.5
q3 -21 8 -41t11 -36.5t12.5 -28.5t14.5 -16q9 -5 23.5 -1t29.5 11t29 15t22 12q7 0 9 -5.5t-5 -9.5q-13 -7 -26.5 -15t-27.5 -14t-29 -8.5t-31 1.5q-14 4 -23 21.5t-12 28.5q-5 16 -10 37t-9 44l-25 -11v0zM87 331q-4 -6 -9 -7t-5 7q3 16 9.5 34t14.5 32q5 8 13 5
q3 -3 7 -11t7.5 -17.5l7 -19t6.5 -14.5q8 -2 0 -12l-1 -1q-6 -4 -11 0q-7 9 -12 25t-10 27q-5 -11 -9.5 -24t-7.5 -24z" />
    <glyph glyph-name="Edieresis" unicode="&#xcb;" horiz-adv-x="216" 
d="M10 130q-9 -2 -10 4.5t5 10.5l27 11q-6 38 -4 75t21 62q5 6 21.5 8t35 2t36 -1t23.5 -1q7 -2 7 -8t-8 -8q-12 0 -27.5 1t-31 1.5t-28 -1t-17.5 -5.5q-12 -11 -14.5 -45t2.5 -74q36 13 72.5 21.5t73.5 17.5q8 0 9.5 -5.5t-4.5 -9.5q-38 -9 -75.5 -17.5t-74.5 -22.5
q3 -21 8 -41t11 -36.5t12.5 -28.5t14.5 -16q9 -5 23.5 -1t29.5 11t29 15t22 12q7 0 9 -5.5t-5 -9.5q-13 -7 -26.5 -15t-27.5 -14t-29 -8.5t-31 1.5q-14 4 -23 21.5t-12 28.5q-5 16 -10 37t-9 44l-25 -11v0zM93 343q0 -11 -8 -11.5t-10 10.5v3q2 11 10 10t8 -11v-1zM136 351
q4 -10 -4.5 -13t-12.5 6v1l-1 2q-1 8 5.5 11.5t11.5 -4.5v-2q0 -1 1 -1z" />
    <glyph glyph-name="Edotaccent" unicode="&#x116;" horiz-adv-x="216" 
d="M10 130q-9 -2 -10 4.5t5 10.5l27 11q-6 38 -4 75t21 62q5 6 21.5 8t35 2t36 -1t23.5 -1q7 -2 7 -8t-8 -8q-12 0 -27.5 1t-31 1.5t-28 -1t-17.5 -5.5q-12 -11 -14.5 -45t2.5 -74q36 13 72.5 21.5t73.5 17.5q8 0 9.5 -5.5t-4.5 -9.5q-38 -9 -75.5 -17.5t-74.5 -22.5
q3 -21 8 -41t11 -36.5t12.5 -28.5t14.5 -16q9 -5 23.5 -1t29.5 11t29 15t22 12q7 0 9 -5.5t-5 -9.5q-13 -7 -26.5 -15t-27.5 -14t-29 -8.5t-31 1.5q-14 4 -23 21.5t-12 28.5q-5 16 -10 37t-9 44l-25 -11v0zM115 351q4 -10 -4.5 -13t-13.5 6v3q-1 8 5.5 11.5t11.5 -4.5v-2
q0 -1 1 -1z" />
    <glyph glyph-name="Egrave" unicode="&#xc8;" horiz-adv-x="216" 
d="M10 130q-9 -2 -10 4.5t5 10.5l27 11q-6 38 -4 75t21 62q5 6 21.5 8t35 2t36 -1t23.5 -1q7 -2 7 -8t-8 -8q-12 0 -27.5 1t-31 1.5t-28 -1t-17.5 -5.5q-12 -11 -14.5 -45t2.5 -74q36 13 72.5 21.5t73.5 17.5q8 0 9.5 -5.5t-4.5 -9.5q-38 -9 -75.5 -17.5t-74.5 -22.5
q3 -21 8 -41t11 -36.5t12.5 -28.5t14.5 -16q9 -5 23.5 -1t29.5 11t29 15t22 12q7 0 9 -5.5t-5 -9.5q-13 -7 -26.5 -15t-27.5 -14t-29 -8.5t-31 1.5q-14 4 -23 21.5t-12 28.5q-5 16 -10 37t-9 44l-25 -11v0zM88 371q-6 6 -1.5 11.5t11.5 0.5q10 -9 18 -19t17 -20q5 -7 0 -11
t-12 1q-8 9 -15.5 19t-17.5 18z" />
    <glyph glyph-name="Emacron" unicode="&#x112;" horiz-adv-x="216" 
d="M10 130q-9 -2 -10 4.5t5 10.5l27 11q-6 38 -4 75t21 62q5 6 21.5 8t35 2t36 -1t23.5 -1q7 -2 7 -8t-8 -8q-12 0 -27.5 1t-31 1.5t-28 -1t-17.5 -5.5q-12 -11 -14.5 -45t2.5 -74q36 13 72.5 21.5t73.5 17.5q8 0 9.5 -5.5t-4.5 -9.5q-38 -9 -75.5 -17.5t-74.5 -22.5
q3 -21 8 -41t11 -36.5t12.5 -28.5t14.5 -16q9 -5 23.5 -1t29.5 11t29 15t22 12q7 0 9 -5.5t-5 -9.5q-13 -7 -26.5 -15t-27.5 -14t-29 -8.5t-31 1.5q-14 4 -23 21.5t-12 28.5q-5 16 -10 37t-9 44l-25 -11v0zM61 343q-7 1 -7 6.5t6 8.5q23 4 46.5 4t47.5 -2q7 -2 7 -8t-8 -8
q-23 2 -45.5 2t-46.5 -3z" />
    <glyph glyph-name="Eogonek" unicode="&#x118;" horiz-adv-x="242" 
d="M10 130q-9 -2 -10 4.5t5 10.5l27 11q-6 38 -4 75t21 62q5 6 21.5 8t35 2t36 -1t23.5 -1q7 -2 7 -8t-8 -8q-12 0 -27.5 1t-31 1.5t-28 -1t-17.5 -5.5q-12 -11 -14.5 -45t2.5 -74q36 13 72.5 21.5t73.5 17.5q8 0 9.5 -5.5t-4.5 -9.5q-38 -9 -75.5 -17.5t-74.5 -22.5
q3 -21 8 -41t11 -36.5t12.5 -28.5t14.5 -16q9 -5 23.5 -1t29.5 11t29 15t22 12q7 0 9 -5.5t-5 -9.5q-13 -7 -26.5 -15t-27.5 -14t-29 -8.5t-31 1.5q-14 4 -23 21.5t-12 28.5q-5 16 -10 37t-9 44l-25 -11v0zM194 59q8 5 12.5 0.5t-0.5 -11.5q-8 -11 -14 -22.5t-9 -25.5
q4 -1 9.5 1t11.5 4.5t11 5t8 4.5q7 0 9 -6t-5 -10q-30 -15 -43.5 -14.5t-15 10.5t6 27t19.5 37z" />
    <glyph glyph-name="Gbreve" unicode="&#x11e;" 
d="M122 298q14 -27 17.5 -56t0.5 -52q8 -32 16.5 -64t14.5 -61l7 2q8 0 9.5 -5.5t-5.5 -9.5l-7 -4q5 -24 11 -49.5t10 -52t5 -52t-3 -49.5q-4 -19 -19.5 -27.5t-36 -9t-43 5.5t-38.5 15q-14 8 -26 20t-20.5 27t-12 32.5t1.5 36.5q4 17 19 34t36 32.5t46 28t51 20.5l-19 91
l-3 11q-6 -19 -17 -36.5t-25.5 -28t-32 -12t-35.5 11.5q-8 6 -12.5 16t-6 21.5t-0.5 21.5t3 16q6 19 15 36.5t22 30.5t28.5 20t35.5 5h2q-3 13 -3 29q2 6 6.5 8t7.5 -3zM172 -17q-3 15 -6.5 30t-5.5 30q-24 -9 -51.5 -20.5t-49.5 -28.5t-34 -39.5t-5 -53.5q6 -24 31 -44
t53.5 -28.5t52.5 0t28 41.5q3 29 -2 57t-11 56zM127 190q-3 14 -6.5 28.5t-6.5 28.5q-3 0 -5 1q-26 3 -46.5 -14.5t-31.5 -41t-11.5 -47.5t13.5 -35q16 -12 31 -7.5t28 17.5t21.5 30t11.5 30q2 6 2 10zM27 344q0 7 6.5 9t8.5 -5q4 -18 12 -26.5t17 -8t16.5 10t10.5 26.5
q3 8 10.5 6t5.5 -10q-4 -23 -16.5 -35t-26.5 -13t-27 10.5t-17 35.5z" />
    <glyph glyph-name="Gcircumflex" unicode="&#x11c;" 
d="M122 298q14 -27 17.5 -56t0.5 -52q8 -32 16.5 -64t14.5 -61l7 2q8 0 9.5 -5.5t-5.5 -9.5l-7 -4q5 -24 11 -49.5t10 -52t5 -52t-3 -49.5q-4 -19 -19.5 -27.5t-36 -9t-43 5.5t-38.5 15q-14 8 -26 20t-20.5 27t-12 32.5t1.5 36.5q4 17 19 34t36 32.5t46 28t51 20.5l-19 91
l-3 11q-6 -19 -17 -36.5t-25.5 -28t-32 -12t-35.5 11.5q-8 6 -12.5 16t-6 21.5t-0.5 21.5t3 16q6 19 15 36.5t22 30.5t28.5 20t35.5 5h2q-3 13 -3 29q2 6 6.5 8t7.5 -3zM172 -17q-3 15 -6.5 30t-5.5 30q-24 -9 -51.5 -20.5t-49.5 -28.5t-34 -39.5t-5 -53.5q6 -24 31 -44
t53.5 -28.5t52.5 0t28 41.5q3 29 -2 57t-11 56zM127 190q-3 14 -6.5 28.5t-6.5 28.5q-3 0 -5 1q-26 3 -46.5 -14.5t-31.5 -41t-11.5 -47.5t13.5 -35q16 -12 31 -7.5t28 17.5t21.5 30t11.5 30q2 6 2 10zM49 309q-4 -6 -9 -7t-5 7q3 16 9.5 34t14.5 32q5 8 13 5q3 -3 7 -11
t7.5 -17.5l7 -19t6.5 -14.5q8 -2 0 -12l-1 -1q-6 -4 -11 0q-7 9 -12 25t-10 27q-5 -11 -9.5 -24t-7.5 -24z" />
    <glyph glyph-name="Gcommaaccent" unicode="&#x122;" 
d="M122 298q14 -27 17.5 -56t0.5 -52q8 -32 16.5 -64t14.5 -61l7 2q8 0 9.5 -5.5t-5.5 -9.5l-7 -4q5 -24 11 -49.5t10 -52t5 -52t-3 -49.5q-4 -19 -19.5 -27.5t-36 -9t-43 5.5t-38.5 15q-14 8 -26 20t-20.5 27t-12 32.5t1.5 36.5q4 17 19 34t36 32.5t46 28t51 20.5l-19 91
l-3 11q-6 -19 -17 -36.5t-25.5 -28t-32 -12t-35.5 11.5q-8 6 -12.5 16t-6 21.5t-0.5 21.5t3 16q6 19 15 36.5t22 30.5t28.5 20t35.5 5h2q-3 13 -3 29q2 6 6.5 8t7.5 -3zM172 -17q-3 15 -6.5 30t-5.5 30q-24 -9 -51.5 -20.5t-49.5 -28.5t-34 -39.5t-5 -53.5q6 -24 31 -44
t53.5 -28.5t52.5 0t28 41.5q3 29 -2 57t-11 56zM127 190q-3 14 -6.5 28.5t-6.5 28.5q-3 0 -5 1q-26 3 -46.5 -14.5t-31.5 -41t-11.5 -47.5t13.5 -35q16 -12 31 -7.5t28 17.5t21.5 30t11.5 30q2 6 2 10zM53.9971 296.981q2.99902 -5.99902 -1 -9.99902q-4 -4 -11 -1
q-8.99902 10.999 -10.499 21.499q-1.5 10.499 1.5 21.498q3 11 8.99902 21.499q6 10.499 13 20.499q4.99902 4.99902 10.499 0.5q5.5 -4.5 1.5 -10.5q-4 -6.99902 -9.5 -14.999q-5.49902 -7.99902 -8.49902 -15.999q-3 -7.99902 -2.5 -16.499q0.5 -8.49902 7.5 -16.499z" />
    <glyph glyph-name="Gdotaccent" unicode="&#x120;" 
d="M122 298q14 -27 17.5 -56t0.5 -52q8 -32 16.5 -64t14.5 -61l7 2q8 0 9.5 -5.5t-5.5 -9.5l-7 -4q5 -24 11 -49.5t10 -52t5 -52t-3 -49.5q-4 -19 -19.5 -27.5t-36 -9t-43 5.5t-38.5 15q-14 8 -26 20t-20.5 27t-12 32.5t1.5 36.5q4 17 19 34t36 32.5t46 28t51 20.5l-19 91
l-3 11q-6 -19 -17 -36.5t-25.5 -28t-32 -12t-35.5 11.5q-8 6 -12.5 16t-6 21.5t-0.5 21.5t3 16q6 19 15 36.5t22 30.5t28.5 20t35.5 5h2q-3 13 -3 29q2 6 6.5 8t7.5 -3zM172 -17q-3 15 -6.5 30t-5.5 30q-24 -9 -51.5 -20.5t-49.5 -28.5t-34 -39.5t-5 -53.5q6 -24 31 -44
t53.5 -28.5t52.5 0t28 41.5q3 29 -2 57t-11 56zM127 190q-3 14 -6.5 28.5t-6.5 28.5q-3 0 -5 1q-26 3 -46.5 -14.5t-31.5 -41t-11.5 -47.5t13.5 -35q16 -12 31 -7.5t28 17.5t21.5 30t11.5 30q2 6 2 10zM64 320q4 -10 -4.5 -13t-13.5 6v3q-1 8 5.5 11.5t11.5 -4.5v-2
q0 -1 1 -1z" />
    <glyph glyph-name="Hbar" unicode="&#x126;" horiz-adv-x="297" 
d="M10 168q-8 -2 -9.5 4.5t5.5 10.5q69 14 136.5 23.5t136.5 17.5q8 0 9 -7t-7 -9q-83 -10 -146.5 -19.5t-124.5 -20.5zM56 124q-5 45 -10 90.5t-7 90.5q2 8 7.5 8t7.5 -7q2 -45 7.5 -89t10.5 -89q38 8 77 13t79 7q-3 42 -5.5 82.5t-3.5 82.5q1 8 7 7.5t8 -6.5
q1 -42 3.5 -82.5t6.5 -82.5q4 -47 6 -83.5t3 -71.5q0 -8 -7 -8.5t-8 7.5l-4 70l-4 70q-81 -3 -157 -22q3 -25 5 -50.5t4 -50.5q0 -9 -7 -9t-8 8q-2 25 -4 51.5t-7 63.5z" />
    <glyph glyph-name="Hcircumflex" unicode="&#x124;" horiz-adv-x="254" 
d="M12 305q2 8 8 8t8 -7q1 -45 6.5 -89t10.5 -89q38 8 77.5 13t78.5 7q-3 42 -5.5 82.5t-3.5 82.5q2 8 7.5 7.5t7.5 -6.5q1 -42 4 -82.5t6 -82.5q6 1 11.5 1h11.5q8 0 9 -7t-7 -9h-12t-11 -1q2 -35 4 -69.5t3 -69.5q0 -8 -6.5 -8.5t-8.5 7.5q-2 35 -3.5 70t-4.5 70
q-80 -3 -156 -22q2 -25 4.5 -50.5t3.5 -50.5q0 -9 -7 -9t-8 8q-3 49 -9 99l-20 -5q-8 -2 -9.5 4.5t5.5 10.5l22 6q-5 45 -10 90.5t-7 90.5zM89 323q-4 -6 -9 -7t-5 7q3 16 9.5 34t14.5 32q5 8 13 5q3 -3 7 -11t7.5 -17.5l7 -19t6.5 -14.5q8 -2 0 -12l-1 -1q-6 -4 -11 0
q-7 9 -12 25t-10 27q-5 -11 -9.5 -24t-7.5 -24z" />
    <glyph glyph-name="Iacute" unicode="&#xcd;" horiz-adv-x="290" 
d="M9 -3q-8 1 -8 6.5t6 8.5q29 0 58.5 2t58.5 5q-9 69 -11.5 138t-2.5 138q-25 -4 -49 -6.5t-49 -3.5q-7 2 -7 7t5 9q13 0 27 1t37 4t58 8t89 14q8 0 9 -7t-7 -9q-25 -3 -49 -7t-49 -9q0 -69 3 -137.5t11 -137.5q35 4 68.5 9t68.5 10q8 0 9 -7t-8 -9q-34 -5 -67.5 -10
t-68.5 -9q0 -8 -7 -8.5t-9 6.5l-58 -4t-58 -2zM97 335q-5 -4 -10 1t-1 10q13 17 26.5 31.5t27.5 29.5q7 5 11.5 0.5t-0.5 -11.5q-14 -15 -27.5 -29.5t-26.5 -31.5z" />
    <glyph glyph-name="Ibreve" unicode="&#x12c;" horiz-adv-x="290" 
d="M9 -3q-8 1 -8 6.5t6 8.5q29 0 58.5 2t58.5 5q-9 69 -11.5 138t-2.5 138q-25 -4 -49 -6.5t-49 -3.5q-7 2 -7 7t5 9q13 0 27 1t37 4t58 8t89 14q8 0 9 -7t-7 -9q-25 -3 -49 -7t-49 -9q0 -69 3 -137.5t11 -137.5q35 4 68.5 9t68.5 10q8 0 9 -7t-8 -9q-34 -5 -67.5 -10
t-68.5 -9q0 -8 -7 -8.5t-9 6.5l-58 -4t-58 -2zM75 387q0 7 6.5 9t8.5 -5q4 -18 12 -26.5t17 -8t16.5 10t10.5 26.5q3 8 10.5 6t5.5 -10q-4 -23 -16.5 -35t-26.5 -13t-27 10.5t-17 35.5z" />
    <glyph glyph-name="Icircumflex" unicode="&#xce;" horiz-adv-x="290" 
d="M9 -3q-8 1 -8 6.5t6 8.5q29 0 58.5 2t58.5 5q-9 69 -11.5 138t-2.5 138q-25 -4 -49 -6.5t-49 -3.5q-7 2 -7 7t5 9q13 0 27 1t37 4t58 8t89 14q8 0 9 -7t-7 -9q-25 -3 -49 -7t-49 -9q0 -69 3 -137.5t11 -137.5q35 4 68.5 9t68.5 10q8 0 9 -7t-8 -9q-34 -5 -67.5 -10
t-68.5 -9q0 -8 -7 -8.5t-9 6.5l-58 -4t-58 -2zM98 348q-4 -6 -9 -7t-5 7q3 16 9.5 34t14.5 32q5 8 13 5q3 -3 7 -11t7.5 -17.5l7 -19t6.5 -14.5q8 -2 0 -12l-1 -1q-6 -4 -11 0q-7 9 -12 25t-10 27q-5 -11 -9.5 -24t-7.5 -24z" />
    <glyph glyph-name="Idieresis" unicode="&#xcf;" horiz-adv-x="290" 
d="M9 -3q-8 1 -8 6.5t6 8.5q29 0 58.5 2t58.5 5q-9 69 -11.5 138t-2.5 138q-25 -4 -49 -6.5t-49 -3.5q-7 2 -7 7t5 9q13 0 27 1t37 4t58 8t89 14q8 0 9 -7t-7 -9q-25 -3 -49 -7t-49 -9q0 -69 3 -137.5t11 -137.5q35 4 68.5 9t68.5 10q8 0 9 -7t-8 -9q-34 -5 -67.5 -10
t-68.5 -9q0 -8 -7 -8.5t-9 6.5l-58 -4t-58 -2zM104 360q0 -11 -8 -11.5t-10 10.5v3q2 11 10 10t8 -11v-1zM147 368q4 -10 -4.5 -13t-12.5 6v1l-1 2q-1 8 5.5 11.5t11.5 -4.5v-2q0 -1 1 -1z" />
    <glyph glyph-name="Idotaccent" unicode="&#x130;" horiz-adv-x="290" 
d="M9 -3q-8 1 -8 6.5t6 8.5q29 0 58.5 2t58.5 5q-9 69 -11.5 138t-2.5 138q-25 -4 -49 -6.5t-49 -3.5q-7 2 -7 7t5 9q13 0 27 1t37 4t58 8t89 14q8 0 9 -7t-7 -9q-25 -3 -49 -7t-49 -9q0 -69 3 -137.5t11 -137.5q35 4 68.5 9t68.5 10q8 0 9 -7t-8 -9q-34 -5 -67.5 -10
t-68.5 -9q0 -8 -7 -8.5t-9 6.5l-58 -4t-58 -2zM127 368q4 -10 -4.5 -13t-13.5 6v3q-1 8 5.5 11.5t11.5 -4.5v-2q0 -1 1 -1z" />
    <glyph glyph-name="Igrave" unicode="&#xcc;" horiz-adv-x="290" 
d="M9 -3q-8 1 -8 6.5t6 8.5q29 0 58.5 2t58.5 5q-9 69 -11.5 138t-2.5 138q-25 -4 -49 -6.5t-49 -3.5q-7 2 -7 7t5 9q13 0 27 1t37 4t58 8t89 14q8 0 9 -7t-7 -9q-25 -3 -49 -7t-49 -9q0 -69 3 -137.5t11 -137.5q35 4 68.5 9t68.5 10q8 0 9 -7t-8 -9q-34 -5 -67.5 -10
t-68.5 -9q0 -8 -7 -8.5t-9 6.5l-58 -4t-58 -2zM98 380q-6 6 -1.5 11.5t11.5 0.5q10 -9 18 -19t17 -20q5 -7 0 -11t-12 1q-8 9 -15.5 19t-17.5 18z" />
    <glyph glyph-name="Imacron" unicode="&#x12a;" horiz-adv-x="290" 
d="M9 -3q-8 1 -8 6.5t6 8.5q29 0 58.5 2t58.5 5q-9 69 -11.5 138t-2.5 138q-25 -4 -49 -6.5t-49 -3.5q-7 2 -7 7t5 9q13 0 27 1t37 4t58 8t89 14q8 0 9 -7t-7 -9q-25 -3 -49 -7t-49 -9q0 -69 3 -137.5t11 -137.5q35 4 68.5 9t68.5 10q8 0 9 -7t-8 -9q-34 -5 -67.5 -10
t-68.5 -9q0 -8 -7 -8.5t-9 6.5l-58 -4t-58 -2zM72 351q-7 1 -7 6.5t6 8.5q23 4 46.5 4t47.5 -2q7 -2 7 -8t-8 -8q-23 2 -45.5 2t-46.5 -3z" />
    <glyph glyph-name="Iogonek" unicode="&#x12e;" horiz-adv-x="290" 
d="M9 -3q-8 1 -8 6.5t6 8.5q29 0 58.5 2t58.5 5q-9 69 -11.5 138t-2.5 138q-25 -4 -49 -6.5t-49 -3.5q-7 2 -7 7t5 9q13 0 27 1t37 4t58 8t89 14q8 0 9 -7t-7 -9q-25 -3 -49 -7t-49 -9q0 -69 3 -137.5t11 -137.5q35 4 68.5 9t68.5 10q8 0 9 -7t-8 -9q-34 -5 -67.5 -10
t-68.5 -9q0 -8 -7 -8.5t-9 6.5l-58 -4t-58 -2zM130 14q8 5 12.5 0.5t-0.5 -11.5q-8 -11 -14 -22.5t-9 -25.5q4 -1 9.5 1t11.5 4.5t11 5t8 4.5q7 0 9 -6t-5 -10q-30 -15 -43.5 -14.5t-15 10.5t6 27t19.5 37z" />
    <glyph glyph-name="Itilde" unicode="&#x128;" horiz-adv-x="290" 
d="M9 -3q-8 1 -8 6.5t6 8.5q29 0 58.5 2t58.5 5q-9 69 -11.5 138t-2.5 138q-25 -4 -49 -6.5t-49 -3.5q-7 2 -7 7t5 9q13 0 27 1t37 4t58 8t89 14q8 0 9 -7t-7 -9q-25 -3 -49 -7t-49 -9q0 -69 3 -137.5t11 -137.5q35 4 68.5 9t68.5 10q8 0 9 -7t-8 -9q-34 -5 -67.5 -10
t-68.5 -9q0 -8 -7 -8.5t-9 6.5l-58 -4t-58 -2zM91 346q-2 -8 -8 -7.5t-7 9.5q-1 10 3 18t9 16q8 11 15.5 7t14 -13t12 -17.5t9.5 -6.5t6 11t2 16q0 8 7 5.5t8 -10.5q0 -6 -1.5 -14.5t-6 -15t-11 -8.5t-15.5 5q-8 6 -13.5 14.5t-12.5 16.5q-5 -5 -8 -11.5t-3 -14.5z" />
    <glyph glyph-name="Jcircumflex" unicode="&#x134;" horiz-adv-x="279" 
d="M201 132q-10 38 -22 75t-26 75q-4 1 -4.5 4t1 6t5 4.5t7.5 -0.5q7 -6 14.5 -26.5t15 -44.5t14 -48t9.5 -38l49 21q7 0 9 -5.5t-5 -10.5q-10 -5 -22 -10t-26 -10q8 -32 14 -63t10 -63q2 -20 2 -45.5t-6 -45.5q-10 -36 -36.5 -50.5t-59 -12t-64.5 18t-52.5 39t-23.5 53
t23 58.5q21 24 41 40t48 33q20 13 41 24.5t44 21.5zM212 -118q15 19 18 49t-0.5 63.5t-11 66t-13.5 56.5q-29 -13 -59.5 -29.5t-57 -35.5t-45 -40.5t-22.5 -45.5q-3 -19 6.5 -36.5t26.5 -32t39.5 -24t44.5 -12.5t42 1.5t32 19.5zM129 324q-4 -6 -9 -7t-5 7q3 16 9.5 34
t14.5 32q5 8 13 5q3 -3 7 -11t7.5 -17.5l7 -19t6.5 -14.5q8 -2 0 -12l-1 -1q-6 -4 -11 0q-7 9 -12 25t-10 27q-5 -11 -9.5 -24t-7.5 -24z" />
    <glyph glyph-name="Kcommaaccent" unicode="&#x136;" horiz-adv-x="394" 
d="M92 316q2 8 7.5 8t7.5 -7q-2 -45 -3 -88.5t-2 -88.5q16 16 35 35.5t37 39t33.5 38t24.5 32.5q-4 6 0 11q5 5 8 7t8 5q10 0 9 -9q-3 -12 -20.5 -35t-41 -49t-49 -52t-44.5 -44q0 -1 0.5 -2t0.5 -2q8 4 17 7t17 7q92 31 154 -1t94 -115q2 -8 -3.5 -10.5t-10.5 1.5
q-35 100 -103 118.5t-166 -26.5v-50t4 -57q-1 -8 -7 -9t-8 5q-4 24 -4 50t-1 51q-9 -7 -19 -15.5t-19.5 -16t-20 -11.5t-21.5 -2q-6 3 -3 10q1 4 10.5 12t21 17t22 17.5t13.5 11.5l16 15l2 96t4 96zM221 -21q-3 6 1 10t11 1q9 -11 10.5 -21.5t-1.5 -21.5t-9 -21.5t-13 -20.5
q-5 -5 -10.5 -0.5t-1.5 10.5q4 7 9.5 15t8.5 16t2.5 16.5t-7.5 16.5z" />
    <glyph glyph-name="Lacute" unicode="&#x139;" horiz-adv-x="244" 
d="M7 321q2 8 8.5 7t6.5 -9q0 -6 -0.5 -26.5t-0.5 -44.5t-0.5 -45t-0.5 -27q1 -31 3.5 -65t14.5 -59t37 -35t69 7q23 9 42.5 21t39.5 23q8 0 9.5 -5.5t-4.5 -9.5q-20 -11 -40 -23t-41 -20q-47 -19 -76 -9.5t-45 36.5t-21.5 66t-6 80t2 78t3.5 60zM-7 341q-5 -4 -10 1t-1 10
q13 17 26.5 31.5t27.5 29.5q7 5 11.5 0.5t-0.5 -11.5q-14 -15 -27.5 -29.5t-26.5 -31.5z" />
    <glyph glyph-name="Lcaron" unicode="&#x13d;" horiz-adv-x="244" 
d="M7 321q2 8 8.5 7t6.5 -9q0 -6 -0.5 -26.5t-0.5 -44.5t-0.5 -45t-0.5 -27q1 -31 3.5 -65t14.5 -59t37 -35t69 7q23 9 42.5 21t39.5 23q8 0 9.5 -5.5t-4.5 -9.5q-20 -11 -40 -23t-41 -20q-47 -19 -76 -9.5t-45 36.5t-21.5 66t-6 80t2 78t3.5 60zM-26 420q-2 6 2.5 9.5
t9.5 -0.5q9 -11 15 -23t13 -24q4 16 8 36l5 25q2 8 9 7t7 -9q0 -3 -2.5 -14.5t-5.5 -25.5t-6 -25.5t-4 -14.5q-6 -11 -14 -3q-12 13 -19 30.5t-18 31.5z" />
    <glyph glyph-name="Lcommaaccent" unicode="&#x13b;" horiz-adv-x="244" 
d="M7 321q2 8 8.5 7t6.5 -9q0 -6 -0.5 -26.5t-0.5 -44.5t-0.5 -45t-0.5 -27q1 -31 3.5 -65t14.5 -59t37 -35t69 7q23 9 42.5 21t39.5 23q8 0 9.5 -5.5t-4.5 -9.5q-20 -11 -40 -23t-41 -20q-47 -19 -76 -9.5t-45 36.5t-21.5 66t-6 80t2 78t3.5 60zM113 -41q-3 6 1 10t11 1
q9 -11 10.5 -21.5t-1.5 -21.5t-9 -21.5t-13 -20.5q-5 -5 -10.5 -0.5t-1.5 10.5q4 7 9.5 15t8.5 16t2.5 16.5t-7.5 16.5z" />
    <glyph glyph-name="Ldot" unicode="&#x13f;" horiz-adv-x="244" 
d="M7 321q2 8 8.5 7t6.5 -9q0 -6 -0.5 -26.5t-0.5 -44.5t-0.5 -45t-0.5 -27q1 -31 3.5 -65t14.5 -59t37 -35t69 7q23 9 42.5 21t39.5 23q8 0 9.5 -5.5t-4.5 -9.5q-20 -11 -40 -23t-41 -20q-47 -19 -76 -9.5t-45 36.5t-21.5 66t-6 80t2 78t3.5 60zM62 208q2 11 11 9.5
t9 -12.5q-1 -10 -9.5 -10t-10.5 10v3v0z" />
    <glyph glyph-name="Lslash" unicode="&#x141;" horiz-adv-x="282" 
d="M20 86q-7 -4 -10 1t0 11l90 75q7 5 11.5 -0.5t-0.5 -10.5zM43 321q2 8 9 7t7 -9q0 -6 -0.5 -26.5t-1 -44.5t-1 -45t-0.5 -27q1 -31 4 -65t15 -59t36.5 -35t69.5 7q22 9 41.5 21t40.5 23q7 0 9 -5.5t-5 -9.5q-20 -11 -40 -23t-41 -20q-47 -19 -76 -9.5t-45 36.5t-21.5 66
t-6 80t2 78t3.5 60z" />
    <glyph glyph-name="Nacute" unicode="&#x143;" horiz-adv-x="313" 
d="M16 279q1 8 8 7t7 -9q-1 -30 -4 -60l-6 -60t-4.5 -60t1.5 -60q16 26 28 57t22.5 62.5t20.5 60t23 50.5q6 4 10 2q7 -3 11.5 -13t6.5 -23t3.5 -26t2.5 -21q6 -37 14 -69t23.5 -51t41.5 -20t68 25q8 5 12 0.5t-1 -11.5q-12 -11 -28.5 -18t-33.5 -9.5t-33 0.5t-27 12
q-24 21 -35.5 60t-15.5 80q-2 17 -3.5 33.5t-7.5 32.5q-1 0 -6.5 -14.5t-13.5 -38t-17.5 -51.5t-19.5 -53.5t-19.5 -45.5t-16.5 -26q-5 -6 -13.5 -4t-10.5 11q-3 31 -2 62.5t4 63t6.5 62.5t4.5 62zM97 295q-5 -4 -10 1t-1 10q13 17 26.5 31.5t27.5 29.5q7 5 11.5 0.5
t-0.5 -11.5q-14 -15 -27.5 -29.5t-26.5 -31.5z" />
    <glyph glyph-name="Ncaron" unicode="&#x147;" horiz-adv-x="313" 
d="M16 279q1 8 8 7t7 -9q-1 -30 -4 -60l-6 -60t-4.5 -60t1.5 -60q16 26 28 57t22.5 62.5t20.5 60t23 50.5q6 4 10 2q7 -3 11.5 -13t6.5 -23t3.5 -26t2.5 -21q6 -37 14 -69t23.5 -51t41.5 -20t68 25q8 5 12 0.5t-1 -11.5q-12 -11 -28.5 -18t-33.5 -9.5t-33 0.5t-27 12
q-24 21 -35.5 60t-15.5 80q-2 17 -3.5 33.5t-7.5 32.5q-1 0 -6.5 -14.5t-13.5 -38t-17.5 -51.5t-19.5 -53.5t-19.5 -45.5t-16.5 -26q-5 -6 -13.5 -4t-10.5 11q-3 31 -2 62.5t4 63t6.5 62.5t4.5 62zM76 354q-2 6 2.5 9.5t9.5 -0.5q9 -11 15 -23t13 -24q4 16 8 36l5 25
q2 8 9 7t7 -9q0 -3 -2.5 -14.5t-5.5 -25.5t-6 -25.5t-4 -14.5q-6 -11 -14 -3q-12 13 -19 30.5t-18 31.5z" />
    <glyph glyph-name="Ncommaaccent" unicode="&#x145;" horiz-adv-x="313" 
d="M16 279q1 8 8 7t7 -9q-1 -30 -4 -60l-6 -60t-4.5 -60t1.5 -60q16 26 28 57t22.5 62.5t20.5 60t23 50.5q6 4 10 2q7 -3 11.5 -13t6.5 -23t3.5 -26t2.5 -21q6 -37 14 -69t23.5 -51t41.5 -20t68 25q8 5 12 0.5t-1 -11.5q-12 -11 -28.5 -18t-33.5 -9.5t-33 0.5t-27 12
q-24 21 -35.5 60t-15.5 80q-2 17 -3.5 33.5t-7.5 32.5q-1 0 -6.5 -14.5t-13.5 -38t-17.5 -51.5t-19.5 -53.5t-19.5 -45.5t-16.5 -26q-5 -6 -13.5 -4t-10.5 11q-3 31 -2 62.5t4 63t6.5 62.5t4.5 62zM110 0q-3 6 1 10t11 1q9 -11 10.5 -21.5t-1.5 -21.5t-9 -21.5t-13 -20.5
q-5 -5 -10.5 -0.5t-1.5 10.5q4 7 9.5 15t8.5 16t2.5 16.5t-7.5 16.5z" />
    <glyph glyph-name="Ntilde" unicode="&#xd1;" horiz-adv-x="313" 
d="M16 279q1 8 8 7t7 -9q-1 -30 -4 -60l-6 -60t-4.5 -60t1.5 -60q16 26 28 57t22.5 62.5t20.5 60t23 50.5q6 4 10 2q7 -3 11.5 -13t6.5 -23t3.5 -26t2.5 -21q6 -37 14 -69t23.5 -51t41.5 -20t68 25q8 5 12 0.5t-1 -11.5q-12 -11 -28.5 -18t-33.5 -9.5t-33 0.5t-27 12
q-24 21 -35.5 60t-15.5 80q-2 17 -3.5 33.5t-7.5 32.5q-1 0 -6.5 -14.5t-13.5 -38t-17.5 -51.5t-19.5 -53.5t-19.5 -45.5t-16.5 -26q-5 -6 -13.5 -4t-10.5 11q-3 31 -2 62.5t4 63t6.5 62.5t4.5 62zM94 303q-2 -8 -8 -7.5t-7 9.5q-1 10 3 18t9 16q8 11 15.5 7t14 -13
t12 -17.5t9.5 -6.5t6 11t2 16q0 8 7 5.5t8 -10.5q0 -6 -1.5 -14.5t-6 -15t-11 -8.5t-15.5 5q-8 6 -13.5 14.5t-12.5 16.5q-5 -5 -8 -11.5t-3 -14.5z" />
    <glyph glyph-name="Oacute" unicode="&#xd3;" horiz-adv-x="245" 
d="M95 271q32 -12 65 -39.5t53.5 -60.5t22 -66.5t-30.5 -56.5q-23 -16 -52.5 -25.5t-58.5 -7.5q-41 2 -64 32.5t-27.5 70t8.5 78t43 56.5l4 3q-1 0 -1 1l-3.5 7t0.5 8q5 6 16.5 5.5t24.5 -5.5zM98 30q23 -1 48 6.5t46 21.5q27 21 25.5 51t-19.5 59t-47 52.5t-57 33.5
q-13 -5 -22 -10t-10 -5q-24 -18 -35.5 -52t-8 -68.5t22.5 -60.5t57 -28zM76 298q-5 -4 -10 1t-1 10q13 17 26.5 31.5t27.5 29.5q7 5 11.5 0.5t-0.5 -11.5q-14 -15 -27.5 -29.5t-26.5 -31.5z" />
    <glyph glyph-name="Obreve" unicode="&#x14e;" horiz-adv-x="245" 
d="M95 271q32 -12 65 -39.5t53.5 -60.5t22 -66.5t-30.5 -56.5q-23 -16 -52.5 -25.5t-58.5 -7.5q-41 2 -64 32.5t-27.5 70t8.5 78t43 56.5l4 3q-1 0 -1 1l-3.5 7t0.5 8q5 6 16.5 5.5t24.5 -5.5zM98 30q23 -1 48 6.5t46 21.5q27 21 25.5 51t-19.5 59t-47 52.5t-57 33.5
q-13 -5 -22 -10t-10 -5q-24 -18 -35.5 -52t-8 -68.5t22.5 -60.5t57 -28zM53 344q0 7 6.5 9t8.5 -5q4 -18 12 -26.5t17 -8t16.5 10t10.5 26.5q3 8 10.5 6t5.5 -10q-4 -23 -16.5 -35t-26.5 -13t-27 10.5t-17 35.5z" />
    <glyph glyph-name="Ocircumflex" unicode="&#xd4;" horiz-adv-x="245" 
d="M95 271q32 -12 65 -39.5t53.5 -60.5t22 -66.5t-30.5 -56.5q-23 -16 -52.5 -25.5t-58.5 -7.5q-41 2 -64 32.5t-27.5 70t8.5 78t43 56.5l4 3q-1 0 -1 1l-3.5 7t0.5 8q5 6 16.5 5.5t24.5 -5.5zM98 30q23 -1 48 6.5t46 21.5q27 21 25.5 51t-19.5 59t-47 52.5t-57 33.5
q-13 -5 -22 -10t-10 -5q-24 -18 -35.5 -52t-8 -68.5t22.5 -60.5t57 -28zM79 296q-4 -6 -9 -7t-5 7q3 16 9.5 34t14.5 32q5 8 13 5q3 -3 7 -11t7.5 -17.5l7 -19t6.5 -14.5q8 -2 0 -12l-1 -1q-6 -4 -11 0q-7 9 -12 25t-10 27q-5 -11 -9.5 -24t-7.5 -24z" />
    <glyph glyph-name="Odieresis" unicode="&#xd6;" horiz-adv-x="245" 
d="M95 271q32 -12 65 -39.5t53.5 -60.5t22 -66.5t-30.5 -56.5q-23 -16 -52.5 -25.5t-58.5 -7.5q-41 2 -64 32.5t-27.5 70t8.5 78t43 56.5l4 3q-1 0 -1 1l-3.5 7t0.5 8q5 6 16.5 5.5t24.5 -5.5zM98 30q23 -1 48 6.5t46 21.5q27 21 25.5 51t-19.5 59t-47 52.5t-57 33.5
q-13 -5 -22 -10t-10 -5q-24 -18 -35.5 -52t-8 -68.5t22.5 -60.5t57 -28zM70 311q0 -11 -8 -11.5t-10 10.5v3q2 11 10 10t8 -11v-1zM113 319q4 -10 -4.5 -13t-12.5 6v1l-1 2q-1 8 5.5 11.5t11.5 -4.5v-2q0 -1 1 -1z" />
    <glyph glyph-name="Ograve" unicode="&#xd2;" horiz-adv-x="245" 
d="M95 271q32 -12 65 -39.5t53.5 -60.5t22 -66.5t-30.5 -56.5q-23 -16 -52.5 -25.5t-58.5 -7.5q-41 2 -64 32.5t-27.5 70t8.5 78t43 56.5l4 3q-1 0 -1 1l-3.5 7t0.5 8q5 6 16.5 5.5t24.5 -5.5zM98 30q23 -1 48 6.5t46 21.5q27 21 25.5 51t-19.5 59t-47 52.5t-57 33.5
q-13 -5 -22 -10t-10 -5q-24 -18 -35.5 -52t-8 -68.5t22.5 -60.5t57 -28zM71 334q-6 6 -1.5 11.5t11.5 0.5q10 -9 18 -19t17 -20q5 -7 0 -11t-12 1q-8 9 -15.5 19t-17.5 18z" />
    <glyph glyph-name="Ohungarumlaut" unicode="&#x150;" horiz-adv-x="245" 
d="M95 271q32 -12 65 -39.5t53.5 -60.5t22 -66.5t-30.5 -56.5q-23 -16 -52.5 -25.5t-58.5 -7.5q-41 2 -64 32.5t-27.5 70t8.5 78t43 56.5l4 3q-1 0 -1 1l-3.5 7t0.5 8q5 6 16.5 5.5t24.5 -5.5zM98 30q23 -1 48 6.5t46 21.5q27 21 25.5 51t-19.5 59t-47 52.5t-57 33.5
q-13 -5 -22 -10t-10 -5q-24 -18 -35.5 -52t-8 -68.5t22.5 -60.5t57 -28zM98 392q2 8 9 7t7 -9q-2 -24 -10 -45t-16 -44q-4 -6 -10.5 -5t-4.5 9q8 23 15.5 43.5t9.5 43.5zM139 386q-1 7 5 10t10 -4q1 -5 -1.5 -18t-6 -27t-7.5 -26t-4 -15q-4 -6 -11 -5t-5 10l3.5 11.5t7.5 25
t7 25.5t2 13z" />
    <glyph glyph-name="Omacron" unicode="&#x14c;" horiz-adv-x="245" 
d="M95 271q32 -12 65 -39.5t53.5 -60.5t22 -66.5t-30.5 -56.5q-23 -16 -52.5 -25.5t-58.5 -7.5q-41 2 -64 32.5t-27.5 70t8.5 78t43 56.5l4 3q-1 0 -1 1l-3.5 7t0.5 8q5 6 16.5 5.5t24.5 -5.5zM98 30q23 -1 48 6.5t46 21.5q27 21 25.5 51t-19.5 59t-47 52.5t-57 33.5
q-13 -5 -22 -10t-10 -5q-24 -18 -35.5 -52t-8 -68.5t22.5 -60.5t57 -28zM53 308q-7 1 -7 6.5t6 8.5q23 4 46.5 4t47.5 -2q7 -2 7 -8t-8 -8q-23 2 -45.5 2t-46.5 -3z" />
    <glyph glyph-name="Oslash" unicode="&#xd8;" horiz-adv-x="245" 
d="M95 271q11 -5 22.5 -11t23.5 -15l12 34q4 7 10 5t6 -9l-14 -39q24 -20 44 -44t29 -49t4.5 -49.5t-27.5 -45.5q-23 -20 -59.5 -30t-68.5 -1l-16 -46q-5 -6 -11.5 -4.5t-4.5 9.5l16 46q-29 14 -43.5 45.5t-15 67.5t13.5 69.5t42 50.5q-1 0 -1 1l-3.5 7t0.5 8q5 6 16.5 5.5
t24.5 -5.5zM62 239q-22 -16 -33.5 -45t-11.5 -59.5t12 -57.5t38 -39l69 194q-23 15 -42 22q-13 -5 -22 -10t-10 -5zM82 32q27 -7 56.5 2t53.5 24q20 16 24 37t-4 43.5t-24.5 44t-37.5 38.5z" />
    <glyph glyph-name="Otilde" unicode="&#xd5;" horiz-adv-x="245" 
d="M95 271q32 -12 65 -39.5t53.5 -60.5t22 -66.5t-30.5 -56.5q-23 -16 -52.5 -25.5t-58.5 -7.5q-41 2 -64 32.5t-27.5 70t8.5 78t43 56.5l4 3q-1 0 -1 1l-3.5 7t0.5 8q5 6 16.5 5.5t24.5 -5.5zM98 30q23 -1 48 6.5t46 21.5q27 21 25.5 51t-19.5 59t-47 52.5t-57 33.5
q-13 -5 -22 -10t-10 -5q-24 -18 -35.5 -52t-8 -68.5t22.5 -60.5t57 -28zM71 303q-2 -8 -8 -7.5t-7 9.5q-1 10 3 18t9 16q8 11 15.5 7t14 -13t12 -17.5t9.5 -6.5t6 11t2 16q0 8 7 5.5t8 -10.5q0 -6 -1.5 -14.5t-6 -15t-11 -8.5t-15.5 5q-8 6 -13.5 14.5t-12.5 16.5
q-5 -5 -8 -11.5t-3 -14.5z" />
    <glyph glyph-name="Oslashacute" unicode="&#x1fe;" horiz-adv-x="245" 
d="M76 294q-5 -4 -10 1t-1 10q13 17 26.5 31.5t27.5 29.5q7 5 11.5 0.5t-0.5 -11.5q-14 -15 -27.5 -29.5t-26.5 -31.5zM95 271q11 -5 22.5 -11t23.5 -15l12 34q4 7 10 5t6 -9l-14 -39q24 -20 44 -44t29 -49t4.5 -49.5t-27.5 -45.5q-23 -20 -59.5 -30t-68.5 -1l-16 -46
q-5 -6 -11.5 -4.5t-4.5 9.5l16 46q-29 14 -43.5 45.5t-15 67.5t13.5 69.5t42 50.5q-1 0 -1 1l-3.5 7t0.5 8q5 6 16.5 5.5t24.5 -5.5zM62 239q-22 -16 -33.5 -45t-11.5 -59.5t12 -57.5t38 -39l69 194q-23 15 -42 22q-13 -5 -22 -10t-10 -5zM82 32q27 -7 56.5 2t53.5 24
q20 16 24 37t-4 43.5t-24.5 44t-37.5 38.5z" />
    <glyph glyph-name="Racute" unicode="&#x154;" horiz-adv-x="277" 
d="M3 289q-3 7 2.5 11t10.5 -4q10 -21 14 -41l5 5q20 13 47 15.5t50 -6.5t36 -28.5t4 -49.5q-6 -22 -24.5 -42.5t-40 -37t-41 -29t-27.5 -17.5q18 -4 47.5 -11t61 -13t62 -10t51.5 -2q8 0 9 -7t-7 -9q-26 -2 -56 1.5t-60.5 9.5t-60.5 13.5t-55 13.5q1 -12 1 -22v-18
q-2 -5 -7 -6t-8 5h-1v5q-2 16 -2.5 31.5t0.5 32.5q-1 19 -2 40t-0.5 41t2 38.5t5.5 32.5q-5 31 -16 58zM47 249q-9 -9 -12 -22q3 -37 -1 -74t-5 -75q7 3 25 14t38.5 27t38.5 35.5t25 40.5q7 22 -4 38t-30.5 23.5t-41 6.5t-33.5 -14zM69 309q-5 -4 -10 1t-1 10
q13 17 26.5 31.5t27.5 29.5q7 5 11.5 0.5t-0.5 -11.5q-14 -15 -27.5 -29.5t-26.5 -31.5z" />
    <glyph glyph-name="Rcaron" unicode="&#x158;" horiz-adv-x="277" 
d="M3 289q-3 7 2.5 11t10.5 -4q10 -21 14 -41l5 5q20 13 47 15.5t50 -6.5t36 -28.5t4 -49.5q-6 -22 -24.5 -42.5t-40 -37t-41 -29t-27.5 -17.5q18 -4 47.5 -11t61 -13t62 -10t51.5 -2q8 0 9 -7t-7 -9q-26 -2 -56 1.5t-60.5 9.5t-60.5 13.5t-55 13.5q1 -12 1 -22v-18
q-2 -5 -7 -6t-8 5h-1v5q-2 16 -2.5 31.5t0.5 32.5q-1 19 -2 40t-0.5 41t2 38.5t5.5 32.5q-5 31 -16 58zM47 249q-9 -9 -12 -22q3 -37 -1 -74t-5 -75q7 3 25 14t38.5 27t38.5 35.5t25 40.5q7 22 -4 38t-30.5 23.5t-41 6.5t-33.5 -14zM54 358q-2 6 2.5 9.5t9.5 -0.5
q9 -11 15 -23t13 -24q4 16 8 36l5 25q2 8 9 7t7 -9q0 -3 -2.5 -14.5t-5.5 -25.5t-6 -25.5t-4 -14.5q-6 -11 -14 -3q-12 13 -19 30.5t-18 31.5z" />
    <glyph glyph-name="Rcommaaccent" unicode="&#x156;" horiz-adv-x="277" 
d="M3 289q-3 7 2.5 11t10.5 -4q10 -21 14 -41l5 5q20 13 47 15.5t50 -6.5t36 -28.5t4 -49.5q-6 -22 -24.5 -42.5t-40 -37t-41 -29t-27.5 -17.5q18 -4 47.5 -11t61 -13t62 -10t51.5 -2q8 0 9 -7t-7 -9q-26 -2 -56 1.5t-60.5 9.5t-60.5 13.5t-55 13.5q1 -12 1 -22v-18
q-2 -5 -7 -6t-8 5h-1v5q-2 16 -2.5 31.5t0.5 32.5q-1 19 -2 40t-0.5 41t2 38.5t5.5 32.5q-5 31 -16 58zM47 249q-9 -9 -12 -22q3 -37 -1 -74t-5 -75q7 3 25 14t38.5 27t38.5 35.5t25 40.5q7 22 -4 38t-30.5 23.5t-41 6.5t-33.5 -14zM90 -11q-3 6 1 10t11 1q9 -11 10.5 -21.5
t-1.5 -21.5t-9 -21.5t-13 -20.5q-5 -5 -10.5 -0.5t-1.5 10.5q4 7 9.5 15t8.5 16t2.5 16.5t-7.5 16.5z" />
    <glyph glyph-name="Sacute" unicode="&#x15a;" horiz-adv-x="284" 
d="M203 220q3 -8 -4 -11t-11 4l-4 18t-8 15q-12 14 -32.5 17.5t-41.5 -1t-40.5 -14t-30.5 -21.5q-11 -11 -11.5 -28t10.5 -29q20 -20 41.5 -32t45 -19t48 -11.5t49.5 -9.5q6 -2 17 -4.5t21.5 -7.5t17 -11.5t3.5 -15.5t-13 -14.5t-22 -9.5t-24.5 -5.5t-21.5 -2.5
q-15 -2 -34 -3t-39 -0.5t-39.5 2.5t-34.5 6q-19 5 -24.5 13.5t1.5 27.5q5 7 10.5 5.5t5.5 -9.5l-6 -14q7 -5 25 -8.5t41 -5.5t48.5 -2t48 2.5t39 7.5t21.5 13q-1 5 -7 8.5t-13 6t-14.5 4t-11.5 2.5q-15 5 -49 10.5t-69 17.5t-62 33t-27 57q0 26 24.5 45t56.5 27t62.5 5
t42.5 -20q11 -15 11.5 -22t3.5 -16zM89 303q-5 -4 -10 1t-1 10q13 17 26.5 31.5t27.5 29.5q7 5 11.5 0.5t-0.5 -11.5q-14 -15 -27.5 -29.5t-26.5 -31.5z" />
    <glyph glyph-name="Scaron" unicode="&#x160;" horiz-adv-x="284" 
d="M203 220q3 -8 -4 -11t-11 4l-4 18t-8 15q-12 14 -32.5 17.5t-41.5 -1t-40.5 -14t-30.5 -21.5q-11 -11 -11.5 -28t10.5 -29q20 -20 41.5 -32t45 -19t48 -11.5t49.5 -9.5q6 -2 17 -4.5t21.5 -7.5t17 -11.5t3.5 -15.5t-13 -14.5t-22 -9.5t-24.5 -5.5t-21.5 -2.5
q-15 -2 -34 -3t-39 -0.5t-39.5 2.5t-34.5 6q-19 5 -24.5 13.5t1.5 27.5q5 7 10.5 5.5t5.5 -9.5l-6 -14q7 -5 25 -8.5t41 -5.5t48.5 -2t48 2.5t39 7.5t21.5 13q-1 5 -7 8.5t-13 6t-14.5 4t-11.5 2.5q-15 5 -49 10.5t-69 17.5t-62 33t-27 57q0 26 24.5 45t56.5 27t62.5 5
t42.5 -20q11 -15 11.5 -22t3.5 -16zM58 363q-2 6 2.5 9.5t9.5 -0.5q9 -11 15 -23t13 -24q4 16 8 36l5 25q2 8 9 7t7 -9q0 -3 -2.5 -14.5t-5.5 -25.5t-6 -25.5t-4 -14.5q-6 -11 -14 -3q-12 13 -19 30.5t-18 31.5z" />
    <glyph glyph-name="Scedilla" unicode="&#x15e;" horiz-adv-x="284" 
d="M150 31q-2 -11 -2.5 -22.5t5.5 -17.5q5 -5 13.5 -6.5t16.5 -3t14 -5.5t7 -13q0 -7 -4.5 -14t-12 -12.5t-16 -8.5t-15.5 -1q-3 0 -4 1l-2 2q-6 7 -2 12t11 0q3 -2 7.5 0t9 5.5t8 8t4.5 7.5q-21 8 -32.5 12.5t-16.5 10t-5.5 15.5t1.5 30h15zM203 220q3 -8 -4 -11t-11 4
l-4 18t-8 15q-12 14 -32.5 17.5t-41.5 -1t-40.5 -14t-30.5 -21.5q-11 -11 -11.5 -28t10.5 -29q20 -20 41.5 -32t45 -19t48 -11.5t49.5 -9.5q6 -2 17 -4.5t21.5 -7.5t17 -11.5t3.5 -15.5t-13 -14.5t-22 -9.5t-24.5 -5.5t-21.5 -2.5q-15 -2 -34 -3t-39 -0.5t-39.5 2.5t-34.5 6
q-19 5 -24.5 13.5t1.5 27.5q5 7 10.5 5.5t5.5 -9.5l-6 -14q7 -5 25 -8.5t41 -5.5t48.5 -2t48 2.5t39 7.5t21.5 13q-1 5 -7 8.5t-13 6t-14.5 4t-11.5 2.5q-15 5 -49 10.5t-69 17.5t-62 33t-27 57q0 26 24.5 45t56.5 27t62.5 5t42.5 -20q11 -15 11.5 -22t3.5 -16z" />
    <glyph glyph-name="Scircumflex" unicode="&#x15c;" horiz-adv-x="284" 
d="M203 220q3 -8 -4 -11t-11 4l-4 18t-8 15q-12 14 -32.5 17.5t-41.5 -1t-40.5 -14t-30.5 -21.5q-11 -11 -11.5 -28t10.5 -29q20 -20 41.5 -32t45 -19t48 -11.5t49.5 -9.5q6 -2 17 -4.5t21.5 -7.5t17 -11.5t3.5 -15.5t-13 -14.5t-22 -9.5t-24.5 -5.5t-21.5 -2.5
q-15 -2 -34 -3t-39 -0.5t-39.5 2.5t-34.5 6q-19 5 -24.5 13.5t1.5 27.5q5 7 10.5 5.5t5.5 -9.5l-6 -14q7 -5 25 -8.5t41 -5.5t48.5 -2t48 2.5t39 7.5t21.5 13q-1 5 -7 8.5t-13 6t-14.5 4t-11.5 2.5q-15 5 -49 10.5t-69 17.5t-62 33t-27 57q0 26 24.5 45t56.5 27t62.5 5
t42.5 -20q11 -15 11.5 -22t3.5 -16zM87 314q-4 -6 -9 -7t-5 7q3 16 9.5 34t14.5 32q5 8 13 5q3 -3 7 -11t7.5 -17.5l7 -19t6.5 -14.5q8 -2 0 -12l-1 -1q-6 -4 -11 0q-7 9 -12 25t-10 27q-5 -11 -9.5 -24t-7.5 -24z" />
    <glyph glyph-name="Scommaaccent" unicode="&#x218;" horiz-adv-x="284" 
d="M203 220q3 -8 -4 -11t-11 4l-4 18t-8 15q-12 14 -32.5 17.5t-41.5 -1t-40.5 -14t-30.5 -21.5q-11 -11 -11.5 -28t10.5 -29q20 -20 41.5 -32t45 -19t48 -11.5t49.5 -9.5q6 -2 17 -4.5t21.5 -7.5t17 -11.5t3.5 -15.5t-13 -14.5t-22 -9.5t-24.5 -5.5t-21.5 -2.5
q-15 -2 -34 -3t-39 -0.5t-39.5 2.5t-34.5 6q-19 5 -24.5 13.5t1.5 27.5q5 7 10.5 5.5t5.5 -9.5l-6 -14q7 -5 25 -8.5t41 -5.5t48.5 -2t48 2.5t39 7.5t21.5 13q-1 5 -7 8.5t-13 6t-14.5 4t-11.5 2.5q-15 5 -49 10.5t-69 17.5t-62 33t-27 57q0 26 24.5 45t56.5 27t62.5 5
t42.5 -20q11 -15 11.5 -22t3.5 -16zM136 -15q-3 6 1 10t11 1q9 -11 10.5 -21.5t-1.5 -21.5t-9 -21.5t-13 -20.5q-5 -5 -10.5 -0.5t-1.5 10.5q4 7 9.5 15t8.5 16t2.5 16.5t-7.5 16.5z" />
    <glyph glyph-name="Tbar" unicode="&#x166;" horiz-adv-x="288" 
d="M54 188q-8 1 -8 6.5t6 8.5q45 2 90.5 6.5t90.5 8.5q8 0 9 -7t-7 -9q-26 -2 -45.5 -4t-39.5 -4t-42.5 -3.5t-53.5 -2.5zM10 258q-8 2 -8 7.5t6 8.5q66 2 132 8t132 8q8 0 9 -7t-7 -9q-32 -2 -63.5 -3.5t-63.5 -4.5q1 -66 7 -130t19 -129q0 -8 -6 -9t-10 5
q-12 66 -18.5 131t-7.5 131q-30 -2 -60.5 -4t-60.5 -3z" />
    <glyph glyph-name="Tcaron" unicode="&#x164;" horiz-adv-x="288" 
d="M10 258q-8 2 -8 7.5t6 8.5q66 2 132 8t132 8q8 0 9 -7t-7 -9q-32 -2 -63.5 -3.5t-63.5 -4.5q1 -66 7 -130t19 -129q0 -8 -6 -9t-10 5q-12 66 -18.5 131t-7.5 131q-30 -2 -60.5 -4t-60.5 -3zM97 376q-2 6 2.5 9.5t9.5 -0.5q9 -11 15 -23t13 -24q4 16 8 36l5 25q2 8 9 7
t7 -9q0 -3 -2.5 -14.5t-5.5 -25.5t-6 -25.5t-4 -14.5q-6 -11 -14 -3q-12 13 -19 30.5t-18 31.5z" />
    <glyph glyph-name="Tcommaaccent" unicode="&#x162;" horiz-adv-x="288" 
d="M10 258q-8 2 -8 7.5t6 8.5q66 2 132 8t132 8q8 0 9 -7t-7 -9q-32 -2 -63.5 -3.5t-63.5 -4.5q1 -66 7 -130t19 -129q0 -8 -6 -9t-10 5q-12 66 -18.5 131t-7.5 131q-30 -2 -60.5 -4t-60.5 -3zM165 -38q-3 6 1 10t11 1q9 -11 10.5 -21.5t-1.5 -21.5t-9 -21.5t-13 -20.5
q-5 -5 -10.5 -0.5t-1.5 10.5q4 7 9.5 15t8.5 16t2.5 16.5t-7.5 16.5z" />
    <glyph glyph-name="Uacute" unicode="&#xda;" horiz-adv-x="247" 
d="M2 267q1 8 7 8t8 -7q0 -25 3 -58.5t10.5 -67t20 -63.5t32.5 -48q15 -13 30.5 -3.5t29 28t23.5 40.5t14 35q-7 21 -11.5 43t-5 42t2.5 36.5t11 26.5q4 3 7 3q13 -6 18.5 -25.5t5.5 -43t-4 -46.5t-8 -35q9 -27 20 -49.5t21 -32.5q5 -7 -0.5 -11t-11.5 2q-10 9 -19.5 26.5
t-17.5 39.5q-14 -36 -32.5 -62.5t-39 -34t-42 8.5t-41.5 64q-17 42 -23.5 89t-7.5 95zM185 262q-8 -15 -6.5 -42.5t9.5 -57.5v2q3 11 4.5 24.5t1.5 27t-2 25.5t-7 21zM76 318q-5 -4 -10 1t-1 10q13 17 26.5 31.5t27.5 29.5q7 5 11.5 0.5t-0.5 -11.5q-14 -15 -27.5 -29.5
t-26.5 -31.5z" />
    <glyph glyph-name="Ubreve" unicode="&#x16c;" horiz-adv-x="247" 
d="M2 267q1 8 7 8t8 -7q0 -25 3 -58.5t10.5 -67t20 -63.5t32.5 -48q15 -13 30.5 -3.5t29 28t23.5 40.5t14 35q-7 21 -11.5 43t-5 42t2.5 36.5t11 26.5q4 3 7 3q13 -6 18.5 -25.5t5.5 -43t-4 -46.5t-8 -35q9 -27 20 -49.5t21 -32.5q5 -7 -0.5 -11t-11.5 2q-10 9 -19.5 26.5
t-17.5 39.5q-14 -36 -32.5 -62.5t-39 -34t-42 8.5t-41.5 64q-17 42 -23.5 89t-7.5 95zM185 262q-8 -15 -6.5 -42.5t9.5 -57.5v2q3 11 4.5 24.5t1.5 27t-2 25.5t-7 21zM53 370q0 7 6.5 9t8.5 -5q4 -18 12 -26.5t17 -8t16.5 10t10.5 26.5q3 8 10.5 6t5.5 -10q-4 -23 -16.5 -35
t-26.5 -13t-27 10.5t-17 35.5z" />
    <glyph glyph-name="Ucircumflex" unicode="&#xdb;" horiz-adv-x="247" 
d="M2 267q1 8 7 8t8 -7q0 -25 3 -58.5t10.5 -67t20 -63.5t32.5 -48q15 -13 30.5 -3.5t29 28t23.5 40.5t14 35q-7 21 -11.5 43t-5 42t2.5 36.5t11 26.5q4 3 7 3q13 -6 18.5 -25.5t5.5 -43t-4 -46.5t-8 -35q9 -27 20 -49.5t21 -32.5q5 -7 -0.5 -11t-11.5 2q-10 9 -19.5 26.5
t-17.5 39.5q-14 -36 -32.5 -62.5t-39 -34t-42 8.5t-41.5 64q-17 42 -23.5 89t-7.5 95zM185 262q-8 -15 -6.5 -42.5t9.5 -57.5v2q3 11 4.5 24.5t1.5 27t-2 25.5t-7 21zM77 323q-4 -6 -9 -7t-5 7q3 16 9.5 34t14.5 32q5 8 13 5q3 -3 7 -11t7.5 -17.5l7 -19t6.5 -14.5
q8 -2 0 -12l-1 -1q-6 -4 -11 0q-7 9 -12 25t-10 27q-5 -11 -9.5 -24t-7.5 -24z" />
    <glyph glyph-name="Udieresis" unicode="&#xdc;" horiz-adv-x="247" 
d="M2 267q1 8 7 8t8 -7q0 -25 3 -58.5t10.5 -67t20 -63.5t32.5 -48q15 -13 30.5 -3.5t29 28t23.5 40.5t14 35q-7 21 -11.5 43t-5 42t2.5 36.5t11 26.5q4 3 7 3q13 -6 18.5 -25.5t5.5 -43t-4 -46.5t-8 -35q9 -27 20 -49.5t21 -32.5q5 -7 -0.5 -11t-11.5 2q-10 9 -19.5 26.5
t-17.5 39.5q-14 -36 -32.5 -62.5t-39 -34t-42 8.5t-41.5 64q-17 42 -23.5 89t-7.5 95zM185 262q-8 -15 -6.5 -42.5t9.5 -57.5v2q3 11 4.5 24.5t1.5 27t-2 25.5t-7 21zM82 343q0 -11 -8 -11.5t-10 10.5v3q2 11 10 10t8 -11v-1zM125 351q4 -10 -4.5 -13t-12.5 6v1l-1 2
q-1 8 5.5 11.5t11.5 -4.5v-2q0 -1 1 -1z" />
    <glyph glyph-name="Ugrave" unicode="&#xd9;" horiz-adv-x="247" 
d="M2 267q1 8 7 8t8 -7q0 -25 3 -58.5t10.5 -67t20 -63.5t32.5 -48q15 -13 30.5 -3.5t29 28t23.5 40.5t14 35q-7 21 -11.5 43t-5 42t2.5 36.5t11 26.5q4 3 7 3q13 -6 18.5 -25.5t5.5 -43t-4 -46.5t-8 -35q9 -27 20 -49.5t21 -32.5q5 -7 -0.5 -11t-11.5 2q-10 9 -19.5 26.5
t-17.5 39.5q-14 -36 -32.5 -62.5t-39 -34t-42 8.5t-41.5 64q-17 42 -23.5 89t-7.5 95zM185 262q-8 -15 -6.5 -42.5t9.5 -57.5v2q3 11 4.5 24.5t1.5 27t-2 25.5t-7 21zM76 363q-6 6 -1.5 11.5t11.5 0.5q10 -9 18 -19t17 -20q5 -7 0 -11t-12 1q-8 9 -15.5 19t-17.5 18z" />
    <glyph glyph-name="Uhungarumlaut" unicode="&#x170;" horiz-adv-x="247" 
d="M2 267q1 8 7 8t8 -7q0 -25 3 -58.5t10.5 -67t20 -63.5t32.5 -48q15 -13 30.5 -3.5t29 28t23.5 40.5t14 35q-7 21 -11.5 43t-5 42t2.5 36.5t11 26.5q4 3 7 3q13 -6 18.5 -25.5t5.5 -43t-4 -46.5t-8 -35q9 -27 20 -49.5t21 -32.5q5 -7 -0.5 -11t-11.5 2q-10 9 -19.5 26.5
t-17.5 39.5q-14 -36 -32.5 -62.5t-39 -34t-42 8.5t-41.5 64q-17 42 -23.5 89t-7.5 95zM185 262q-8 -15 -6.5 -42.5t9.5 -57.5v2q3 11 4.5 24.5t1.5 27t-2 25.5t-7 21zM81 399q2 8 9 7t7 -9q-2 -24 -10 -45t-16 -44q-4 -6 -10.5 -5t-4.5 9q8 23 15.5 43.5t9.5 43.5zM122 393
q-1 7 5 10t10 -4q1 -5 -1.5 -18t-6 -27t-7.5 -26t-4 -15q-4 -6 -11 -5t-5 10l3.5 11.5t7.5 25t7 25.5t2 13z" />
    <glyph glyph-name="Umacron" unicode="&#x16a;" horiz-adv-x="247" 
d="M2 267q1 8 7 8t8 -7q0 -25 3 -58.5t10.5 -67t20 -63.5t32.5 -48q15 -13 30.5 -3.5t29 28t23.5 40.5t14 35q-7 21 -11.5 43t-5 42t2.5 36.5t11 26.5q4 3 7 3q13 -6 18.5 -25.5t5.5 -43t-4 -46.5t-8 -35q9 -27 20 -49.5t21 -32.5q5 -7 -0.5 -11t-11.5 2q-10 9 -19.5 26.5
t-17.5 39.5q-14 -36 -32.5 -62.5t-39 -34t-42 8.5t-41.5 64q-17 42 -23.5 89t-7.5 95zM185 262q-8 -15 -6.5 -42.5t9.5 -57.5v2q3 11 4.5 24.5t1.5 27t-2 25.5t-7 21zM51 343q-7 1 -7 6.5t6 8.5q23 4 46.5 4t47.5 -2q7 -2 7 -8t-8 -8q-23 2 -45.5 2t-46.5 -3z" />
    <glyph glyph-name="Uring" unicode="&#x16e;" horiz-adv-x="247" 
d="M2 267q1 8 7 8t8 -7q0 -25 3 -58.5t10.5 -67t20 -63.5t32.5 -48q15 -13 30.5 -3.5t29 28t23.5 40.5t14 35q-7 21 -11.5 43t-5 42t2.5 36.5t11 26.5q4 3 7 3q13 -6 18.5 -25.5t5.5 -43t-4 -46.5t-8 -35q9 -27 20 -49.5t21 -32.5q5 -7 -0.5 -11t-11.5 2q-10 9 -19.5 26.5
t-17.5 39.5q-14 -36 -32.5 -62.5t-39 -34t-42 8.5t-41.5 64q-17 42 -23.5 89t-7.5 95zM185 262q-8 -15 -6.5 -42.5t9.5 -57.5v2q3 11 4.5 24.5t1.5 27t-2 25.5t-7 21zM98 365q6 0 9 -5q8 -6 12 -14t2.5 -15t-8.5 -11.5t-20 -3.5q-19 1 -21.5 15t7.5 25q-2 4 -0.5 8t7.5 4
l10 -3h2zM94 331q14 -2 12.5 5t-10.5 12q-7 -3 -10 -9t8 -8z" />
    <glyph glyph-name="Utilde" unicode="&#x168;" horiz-adv-x="247" 
d="M2 267q1 8 7 8t8 -7q0 -25 3 -58.5t10.5 -67t20 -63.5t32.5 -48q15 -13 30.5 -3.5t29 28t23.5 40.5t14 35q-7 21 -11.5 43t-5 42t2.5 36.5t11 26.5q4 3 7 3q13 -6 18.5 -25.5t5.5 -43t-4 -46.5t-8 -35q9 -27 20 -49.5t21 -32.5q5 -7 -0.5 -11t-11.5 2q-10 9 -19.5 26.5
t-17.5 39.5q-14 -36 -32.5 -62.5t-39 -34t-42 8.5t-41.5 64q-17 42 -23.5 89t-7.5 95zM185 262q-8 -15 -6.5 -42.5t9.5 -57.5v2q3 11 4.5 24.5t1.5 27t-2 25.5t-7 21zM70 329q-2 -8 -8 -7.5t-7 9.5q-1 10 3 18t9 16q8 11 15.5 7t14 -13t12 -17.5t9.5 -6.5t6 11t2 16
q0 8 7 5.5t8 -10.5q0 -6 -1.5 -14.5t-6 -15t-11 -8.5t-15.5 5q-8 6 -13.5 14.5t-12.5 16.5q-5 -5 -8 -11.5t-3 -14.5z" />
    <glyph glyph-name="Uogonek" unicode="&#x172;" horiz-adv-x="247" 
d="M2 267q1 8 7 8t8 -7q0 -25 3 -58.5t10.5 -67t20 -63.5t32.5 -48q15 -13 30.5 -3.5t29 28t23.5 40.5t14 35q-7 21 -11.5 43t-5 42t2.5 36.5t11 26.5q4 3 7 3q13 -6 18.5 -25.5t5.5 -43t-4 -46.5t-8 -35q9 -27 20 -49.5t21 -32.5q5 -7 -0.5 -11t-11.5 2q-10 9 -19.5 26.5
t-17.5 39.5q-14 -36 -32.5 -62.5t-39 -34t-42 8.5t-41.5 64q-17 42 -23.5 89t-7.5 95zM185 262q-8 -15 -6.5 -42.5t9.5 -57.5v2q3 11 4.5 24.5t1.5 27t-2 25.5t-7 21zM225 49q8 5 12.5 0.5t-0.5 -11.5q-8 -11 -14 -22.5t-9 -25.5q4 -1 9.5 1t11.5 4.5t11 5t8 4.5q7 0 9 -6
t-5 -10q-30 -15 -43.5 -14.5t-15 10.5t6 27t19.5 37z" />
    <glyph glyph-name="Wacute" unicode="&#x1e82;" horiz-adv-x="334" 
d="M58 18q-6 29 -9.5 65t-8 71t-12 66t-19.5 51q-5 0 -6.5 4t0 7.5t5 6t8.5 -0.5q14 -17 23 -48t14.5 -64.5t8.5 -65.5t5 -51q3 15 9 43.5t14.5 59t19 55.5t22.5 32q3 0 3 0.5t2 -1.5q7 -6 17 -29t21 -51t21 -54.5t16 -39.5q7 -16 18.5 -32.5t23.5 -23t23.5 0.5t18.5 38
q14 58 6 124t-31 121q-8 17 -18.5 32t-20.5 31q-3 6 1.5 9.5t10.5 -0.5l22 -32t19 -34q12 -27 20 -59.5t11.5 -66.5t2 -67t-7.5 -63q-5 -26 -21.5 -44t-44.5 -8q-21 15 -38 46t-30.5 66t-24 67.5t-18.5 50.5q-14 -23 -21.5 -49.5t-13 -54l-11 -55t-15.5 -52.5q-3 -5 -8 -6
t-7 5zM110 327q-5 -4 -10 1t-1 10q13 17 26.5 31.5t27.5 29.5q7 5 11.5 0.5t-0.5 -11.5q-14 -15 -27.5 -29.5t-26.5 -31.5z" />
    <glyph glyph-name="Wcircumflex" unicode="&#x174;" horiz-adv-x="334" 
d="M58 18q-6 29 -9.5 65t-8 71t-12 66t-19.5 51q-5 0 -6.5 4t0 7.5t5 6t8.5 -0.5q14 -17 23 -48t14.5 -64.5t8.5 -65.5t5 -51q3 15 9 43.5t14.5 59t19 55.5t22.5 32q3 0 3 0.5t2 -1.5q7 -6 17 -29t21 -51t21 -54.5t16 -39.5q7 -16 18.5 -32.5t23.5 -23t23.5 0.5t18.5 38
q14 58 6 124t-31 121q-8 17 -18.5 32t-20.5 31q-3 6 1.5 9.5t10.5 -0.5l22 -32t19 -34q12 -27 20 -59.5t11.5 -66.5t2 -67t-7.5 -63q-5 -26 -21.5 -44t-44.5 -8q-21 15 -38 46t-30.5 66t-24 67.5t-18.5 50.5q-14 -23 -21.5 -49.5t-13 -54l-11 -55t-15.5 -52.5q-3 -5 -8 -6
t-7 5zM111 323q-4 -6 -9 -7t-5 7q3 16 9.5 34t14.5 32q5 8 13 5q3 -3 7 -11t7.5 -17.5l7 -19t6.5 -14.5q8 -2 0 -12l-1 -1q-6 -4 -11 0q-7 9 -12 25t-10 27q-5 -11 -9.5 -24t-7.5 -24z" />
    <glyph glyph-name="Wdieresis" unicode="&#x1e84;" horiz-adv-x="334" 
d="M58 18q-6 29 -9.5 65t-8 71t-12 66t-19.5 51q-5 0 -6.5 4t0 7.5t5 6t8.5 -0.5q14 -17 23 -48t14.5 -64.5t8.5 -65.5t5 -51q3 15 9 43.5t14.5 59t19 55.5t22.5 32q3 0 3 0.5t2 -1.5q7 -6 17 -29t21 -51t21 -54.5t16 -39.5q7 -16 18.5 -32.5t23.5 -23t23.5 0.5t18.5 38
q14 58 6 124t-31 121q-8 17 -18.5 32t-20.5 31q-3 6 1.5 9.5t10.5 -0.5l22 -32t19 -34q12 -27 20 -59.5t11.5 -66.5t2 -67t-7.5 -63q-5 -26 -21.5 -44t-44.5 -8q-21 15 -38 46t-30.5 66t-24 67.5t-18.5 50.5q-14 -23 -21.5 -49.5t-13 -54l-11 -55t-15.5 -52.5q-3 -5 -8 -6
t-7 5zM117 343q0 -11 -8 -11.5t-10 10.5v3q2 11 10 10t8 -11v-1zM160 351q4 -10 -4.5 -13t-12.5 6v1l-1 2q-1 8 5.5 11.5t11.5 -4.5v-2q0 -1 1 -1z" />
    <glyph glyph-name="Wgrave" unicode="&#x1e80;" horiz-adv-x="334" 
d="M58 18q-6 29 -9.5 65t-8 71t-12 66t-19.5 51q-5 0 -6.5 4t0 7.5t5 6t8.5 -0.5q14 -17 23 -48t14.5 -64.5t8.5 -65.5t5 -51q3 15 9 43.5t14.5 59t19 55.5t22.5 32q3 0 3 0.5t2 -1.5q7 -6 17 -29t21 -51t21 -54.5t16 -39.5q7 -16 18.5 -32.5t23.5 -23t23.5 0.5t18.5 38
q14 58 6 124t-31 121q-8 17 -18.5 32t-20.5 31q-3 6 1.5 9.5t10.5 -0.5l22 -32t19 -34q12 -27 20 -59.5t11.5 -66.5t2 -67t-7.5 -63q-5 -26 -21.5 -44t-44.5 -8q-21 15 -38 46t-30.5 66t-24 67.5t-18.5 50.5q-14 -23 -21.5 -49.5t-13 -54l-11 -55t-15.5 -52.5q-3 -5 -8 -6
t-7 5zM111 363q-6 6 -1.5 11.5t11.5 0.5q10 -9 18 -19t17 -20q5 -7 0 -11t-12 1q-8 9 -15.5 19t-17.5 18z" />
    <glyph glyph-name="Yacute" unicode="&#xdd;" horiz-adv-x="284" 
d="M90 209q-4 8 3 11t9 -2q7 -13 14.5 -32t17 -37.5t20.5 -34.5t24 -22q12 11 14.5 38t2.5 56q-2 13 -3.5 29t-2.5 31t-1 27.5t1 19.5q2 6 6.5 7t7.5 -4q4 -6 5.5 -20.5t2 -31t0 -33t0.5 -25.5q5 -36 13 -71t17 -70l23 8q8 1 10.5 -4.5t-0.5 -7.5l-29 -10q5 -21 11.5 -42.5
t13.5 -43.5q11 -41 15.5 -74t-3 -56.5t-30.5 -36t-68 -12.5q-13 0 -39 4t-57 17q-34 14 -57 33.5t-29 41.5t7 45.5t50 47.5q36 23 80.5 45.5t86.5 39.5q-5 21 -9.5 42t-9.5 42q-1 -4 -3.5 -13t-6.5 -17.5t-9.5 -14.5t-12.5 -3q-17 8 -31 27t-25 39.5t-18.5 39.5t-10.5 27z
M261 -77q-7 26 -15 51t-14 52q-26 -11 -52 -23t-47.5 -23.5t-38.5 -21t-25 -14.5q-44 -26 -49 -51.5t10.5 -46.5t43 -36t47.5 -19q52 -12 85.5 -9.5t50 19t17 47t-12.5 75.5zM120 327q-5 -4 -10 1t-1 10q13 17 26.5 31.5t27.5 29.5q7 5 11.5 0.5t-0.5 -11.5
q-14 -15 -27.5 -29.5t-26.5 -31.5z" />
    <glyph glyph-name="Ycircumflex" unicode="&#x176;" horiz-adv-x="284" 
d="M90 209q-4 8 3 11t9 -2q7 -13 14.5 -32t17 -37.5t20.5 -34.5t24 -22q12 11 14.5 38t2.5 56q-2 13 -3.5 29t-2.5 31t-1 27.5t1 19.5q2 6 6.5 7t7.5 -4q4 -6 5.5 -20.5t2 -31t0 -33t0.5 -25.5q5 -36 13 -71t17 -70l23 8q8 1 10.5 -4.5t-0.5 -7.5l-29 -10q5 -21 11.5 -42.5
t13.5 -43.5q11 -41 15.5 -74t-3 -56.5t-30.5 -36t-68 -12.5q-13 0 -39 4t-57 17q-34 14 -57 33.5t-29 41.5t7 45.5t50 47.5q36 23 80.5 45.5t86.5 39.5q-5 21 -9.5 42t-9.5 42q-1 -4 -3.5 -13t-6.5 -17.5t-9.5 -14.5t-12.5 -3q-17 8 -31 27t-25 39.5t-18.5 39.5t-10.5 27z
M261 -77q-7 26 -15 51t-14 52q-26 -11 -52 -23t-47.5 -23.5t-38.5 -21t-25 -14.5q-44 -26 -49 -51.5t10.5 -46.5t43 -36t47.5 -19q52 -12 85.5 -9.5t50 19t17 47t-12.5 75.5zM122 323q-4 -6 -9 -7t-5 7q3 16 9.5 34t14.5 32q5 8 13 5q3 -3 7 -11t7.5 -17.5l7 -19t6.5 -14.5
q8 -2 0 -12l-1 -1q-6 -4 -11 0q-7 9 -12 25t-10 27q-5 -11 -9.5 -24t-7.5 -24z" />
    <glyph glyph-name="Ydieresis" unicode="&#x178;" horiz-adv-x="284" 
d="M90 209q-4 8 3 11t9 -2q7 -13 14.5 -32t17 -37.5t20.5 -34.5t24 -22q12 11 14.5 38t2.5 56q-2 13 -3.5 29t-2.5 31t-1 27.5t1 19.5q2 6 6.5 7t7.5 -4q4 -6 5.5 -20.5t2 -31t0 -33t0.5 -25.5q5 -36 13 -71t17 -70l23 8q8 1 10.5 -4.5t-0.5 -7.5l-29 -10q5 -21 11.5 -42.5
t13.5 -43.5q11 -41 15.5 -74t-3 -56.5t-30.5 -36t-68 -12.5q-13 0 -39 4t-57 17q-34 14 -57 33.5t-29 41.5t7 45.5t50 47.5q36 23 80.5 45.5t86.5 39.5q-5 21 -9.5 42t-9.5 42q-1 -4 -3.5 -13t-6.5 -17.5t-9.5 -14.5t-12.5 -3q-17 8 -31 27t-25 39.5t-18.5 39.5t-10.5 27z
M261 -77q-7 26 -15 51t-14 52q-26 -11 -52 -23t-47.5 -23.5t-38.5 -21t-25 -14.5q-44 -26 -49 -51.5t10.5 -46.5t43 -36t47.5 -19q52 -12 85.5 -9.5t50 19t17 47t-12.5 75.5zM127 343q0 -11 -8 -11.5t-10 10.5v3q2 11 10 10t8 -11v-1zM170 351q4 -10 -4.5 -13t-12.5 6v1
l-1 2q-1 8 5.5 11.5t11.5 -4.5v-2q0 -1 1 -1z" />
    <glyph glyph-name="Ygrave" unicode="&#x1ef2;" horiz-adv-x="284" 
d="M90 209q-4 8 3 11t9 -2q7 -13 14.5 -32t17 -37.5t20.5 -34.5t24 -22q12 11 14.5 38t2.5 56q-2 13 -3.5 29t-2.5 31t-1 27.5t1 19.5q2 6 6.5 7t7.5 -4q4 -6 5.5 -20.5t2 -31t0 -33t0.5 -25.5q5 -36 13 -71t17 -70l23 8q8 1 10.5 -4.5t-0.5 -7.5l-29 -10q5 -21 11.5 -42.5
t13.5 -43.5q11 -41 15.5 -74t-3 -56.5t-30.5 -36t-68 -12.5q-13 0 -39 4t-57 17q-34 14 -57 33.5t-29 41.5t7 45.5t50 47.5q36 23 80.5 45.5t86.5 39.5q-5 21 -9.5 42t-9.5 42q-1 -4 -3.5 -13t-6.5 -17.5t-9.5 -14.5t-12.5 -3q-17 8 -31 27t-25 39.5t-18.5 39.5t-10.5 27z
M261 -77q-7 26 -15 51t-14 52q-26 -11 -52 -23t-47.5 -23.5t-38.5 -21t-25 -14.5q-44 -26 -49 -51.5t10.5 -46.5t43 -36t47.5 -19q52 -12 85.5 -9.5t50 19t17 47t-12.5 75.5zM120 363q-6 6 -1.5 11.5t11.5 0.5q10 -9 18 -19t17 -20q5 -7 0 -11t-12 1q-8 9 -15.5 19t-17.5 18
z" />
    <glyph glyph-name="Zacute" unicode="&#x179;" horiz-adv-x="287" 
d="M26 260q-7 3 -5 8.5t9 7.5q7 1 24.5 6t39.5 10t45 8t42 1t30.5 -11.5t10.5 -29.5q-1 -17 -17.5 -37.5t-40 -42t-50.5 -44t-49 -42t-36 -35.5t-12 -25q6 -12 35 -11.5t67.5 5.5t80 10.5t72.5 2.5q8 -2 6.5 -9t-10.5 -7q-14 3 -37.5 0.5t-51 -6.5t-56.5 -7.5t-54 -4.5
t-43 3.5t-23 17.5q-6 13 7 31.5t35.5 40t50.5 44.5t53 44.5t41.5 39.5t16.5 31q1 15 -9 21.5t-26 7t-36.5 -3.5t-40.5 -9t-38.5 -9.5t-30.5 -5.5zM95 335q-5 -4 -10 1t-1 10q13 17 26.5 31.5t27.5 29.5q7 5 11.5 0.5t-0.5 -11.5q-14 -15 -27.5 -29.5t-26.5 -31.5z" />
    <glyph glyph-name="Zcaron" unicode="&#x17d;" horiz-adv-x="287" 
d="M26 260q-7 3 -5 8.5t9 7.5q7 1 24.5 6t39.5 10t45 8t42 1t30.5 -11.5t10.5 -29.5q-1 -17 -17.5 -37.5t-40 -42t-50.5 -44t-49 -42t-36 -35.5t-12 -25q6 -12 35 -11.5t67.5 5.5t80 10.5t72.5 2.5q8 -2 6.5 -9t-10.5 -7q-14 3 -37.5 0.5t-51 -6.5t-56.5 -7.5t-54 -4.5
t-43 3.5t-23 17.5q-6 13 7 31.5t35.5 40t50.5 44.5t53 44.5t41.5 39.5t16.5 31q1 15 -9 21.5t-26 7t-36.5 -3.5t-40.5 -9t-38.5 -9.5t-30.5 -5.5zM76 386q-2 6 2.5 9.5t9.5 -0.5q9 -11 15 -23t13 -24q4 16 8 36l5 25q2 8 9 7t7 -9q0 -3 -2.5 -14.5t-5.5 -25.5t-6 -25.5
t-4 -14.5q-6 -11 -14 -3q-12 13 -19 30.5t-18 31.5z" />
    <glyph glyph-name="Zdotaccent" unicode="&#x17b;" horiz-adv-x="287" 
d="M26 260q-7 3 -5 8.5t9 7.5q7 1 24.5 6t39.5 10t45 8t42 1t30.5 -11.5t10.5 -29.5q-1 -17 -17.5 -37.5t-40 -42t-50.5 -44t-49 -42t-36 -35.5t-12 -25q6 -12 35 -11.5t67.5 5.5t80 10.5t72.5 2.5q8 -2 6.5 -9t-10.5 -7q-14 3 -37.5 0.5t-51 -6.5t-56.5 -7.5t-54 -4.5
t-43 3.5t-23 17.5q-6 13 7 31.5t35.5 40t50.5 44.5t53 44.5t41.5 39.5t16.5 31q1 15 -9 21.5t-26 7t-36.5 -3.5t-40.5 -9t-38.5 -9.5t-30.5 -5.5zM118 359q4 -10 -4.5 -13t-13.5 6v3q-1 8 5.5 11.5t11.5 -4.5v-2q0 -1 1 -1z" />
    <glyph glyph-name="aacute" unicode="&#xe1;" horiz-adv-x="179" 
d="M139 150q2 -5 -3.5 -10t-10.5 0q4 -19 10 -40t12 -40.5t13 -35t13 -23.5q2 -6 -3.5 -10.5t-10.5 0.5q-17 25 -23 52t-13 56l-5 17q-5 -27 -19 -48q-9 -12 -22.5 -23t-27 -14.5t-24.5 3.5t-15 30q-3 21 4 42.5t20.5 39t31 29t33.5 13.5v4q2 5 6.5 7t8.5 -3l2 -12
q17 -7 23 -34zM87 74q14 22 16 47t-1 50q-12 2 -27 -6.5t-27 -23.5t-19 -33.5t-4 -34.5q3 -17 10 -22.5t16 -4t18.5 9t17.5 18.5zM58 211q-5 -4 -10 1t-1 10q13 17 26.5 31.5t27.5 29.5q7 5 11.5 0.5t-0.5 -11.5q-14 -15 -27.5 -29.5t-26.5 -31.5z" />
    <glyph glyph-name="abreve" unicode="&#x103;" horiz-adv-x="179" 
d="M139 150q2 -5 -3.5 -10t-10.5 0q4 -19 10 -40t12 -40.5t13 -35t13 -23.5q2 -6 -3.5 -10.5t-10.5 0.5q-17 25 -23 52t-13 56l-5 17q-5 -27 -19 -48q-9 -12 -22.5 -23t-27 -14.5t-24.5 3.5t-15 30q-3 21 4 42.5t20.5 39t31 29t33.5 13.5v4q2 5 6.5 7t8.5 -3l2 -12
q17 -7 23 -34zM87 74q14 22 16 47t-1 50q-12 2 -27 -6.5t-27 -23.5t-19 -33.5t-4 -34.5q3 -17 10 -22.5t16 -4t18.5 9t17.5 18.5zM37 271q0 7 6.5 9t8.5 -5q4 -18 12 -26.5t17 -8t16.5 10t10.5 26.5q3 8 10.5 6t5.5 -10q-4 -23 -16.5 -35t-26.5 -13t-27 10.5t-17 35.5z" />
    <glyph glyph-name="acircumflex" unicode="&#xe2;" horiz-adv-x="179" 
d="M139 150q2 -5 -3.5 -10t-10.5 0q4 -19 10 -40t12 -40.5t13 -35t13 -23.5q2 -6 -3.5 -10.5t-10.5 0.5q-17 25 -23 52t-13 56l-5 17q-5 -27 -19 -48q-9 -12 -22.5 -23t-27 -14.5t-24.5 3.5t-15 30q-3 21 4 42.5t20.5 39t31 29t33.5 13.5v4q2 5 6.5 7t8.5 -3l2 -12
q17 -7 23 -34zM87 74q14 22 16 47t-1 50q-12 2 -27 -6.5t-27 -23.5t-19 -33.5t-4 -34.5q3 -17 10 -22.5t16 -4t18.5 9t17.5 18.5zM60 224q-4 -6 -9 -7t-5 7q3 16 9.5 34t14.5 32q5 8 13 5q3 -3 7 -11t7.5 -17.5l7 -19t6.5 -14.5q8 -2 0 -12l-1 -1q-6 -4 -11 0q-7 9 -12 25
t-10 27q-5 -11 -9.5 -24t-7.5 -24z" />
    <glyph glyph-name="adieresis" unicode="&#xe4;" horiz-adv-x="179" 
d="M139 150q2 -5 -3.5 -10t-10.5 0q4 -19 10 -40t12 -40.5t13 -35t13 -23.5q2 -6 -3.5 -10.5t-10.5 0.5q-17 25 -23 52t-13 56l-5 17q-5 -27 -19 -48q-9 -12 -22.5 -23t-27 -14.5t-24.5 3.5t-15 30q-3 21 4 42.5t20.5 39t31 29t33.5 13.5v4q2 5 6.5 7t8.5 -3l2 -12
q17 -7 23 -34zM87 74q14 22 16 47t-1 50q-12 2 -27 -6.5t-27 -23.5t-19 -33.5t-4 -34.5q3 -17 10 -22.5t16 -4t18.5 9t17.5 18.5zM66 244q0 -11 -8 -11.5t-10 10.5v3q2 11 10 10t8 -11v-1zM109 252q4 -10 -4.5 -13t-12.5 6v1l-1 2q-1 8 5.5 11.5t11.5 -4.5v-2q0 -1 1 -1z
" />
    <glyph glyph-name="agrave" unicode="&#xe0;" horiz-adv-x="179" 
d="M139 150q2 -5 -3.5 -10t-10.5 0q4 -19 10 -40t12 -40.5t13 -35t13 -23.5q2 -6 -3.5 -10.5t-10.5 0.5q-17 25 -23 52t-13 56l-5 17q-5 -27 -19 -48q-9 -12 -22.5 -23t-27 -14.5t-24.5 3.5t-15 30q-3 21 4 42.5t20.5 39t31 29t33.5 13.5v4q2 5 6.5 7t8.5 -3l2 -12
q17 -7 23 -34zM87 74q14 22 16 47t-1 50q-12 2 -27 -6.5t-27 -23.5t-19 -33.5t-4 -34.5q3 -17 10 -22.5t16 -4t18.5 9t17.5 18.5zM50 255q-6 6 -1.5 11.5t11.5 0.5q10 -9 18 -19t17 -20q5 -7 0 -11t-12 1q-8 9 -15.5 19t-17.5 18z" />
    <glyph glyph-name="amacron" unicode="&#x101;" horiz-adv-x="179" 
d="M139 150q2 -5 -3.5 -10t-10.5 0q4 -19 10 -40t12 -40.5t13 -35t13 -23.5q2 -6 -3.5 -10.5t-10.5 0.5q-17 25 -23 52t-13 56l-5 17q-5 -27 -19 -48q-9 -12 -22.5 -23t-27 -14.5t-24.5 3.5t-15 30q-3 21 4 42.5t20.5 39t31 29t33.5 13.5v4q2 5 6.5 7t8.5 -3l2 -12
q17 -7 23 -34zM87 74q14 22 16 47t-1 50q-12 2 -27 -6.5t-27 -23.5t-19 -33.5t-4 -34.5q3 -17 10 -22.5t16 -4t18.5 9t17.5 18.5zM32 237q-7 1 -7 6.5t6 8.5q23 4 46.5 4t47.5 -2q7 -2 7 -8t-8 -8q-23 2 -45.5 2t-46.5 -3z" />
    <glyph glyph-name="aogonek" unicode="&#x105;" horiz-adv-x="179" 
d="M139 150q2 -5 -3.5 -10t-10.5 0q4 -19 10 -40t12 -40.5t13 -35t13 -23.5q2 -6 -3.5 -10.5t-10.5 0.5q-17 25 -23 52t-13 56l-5 17q-5 -27 -19 -48q-9 -12 -22.5 -23t-27 -14.5t-24.5 3.5t-15 30q-3 21 4 42.5t20.5 39t31 29t33.5 13.5v4q2 5 6.5 7t8.5 -3l2 -12
q17 -7 23 -34zM87 74q14 22 16 47t-1 50q-12 2 -27 -6.5t-27 -23.5t-19 -33.5t-4 -34.5q3 -17 10 -22.5t16 -4t18.5 9t17.5 18.5zM159 3q8 5 12.5 0.5t-0.5 -11.5q-8 -11 -14 -22.5t-9 -25.5q4 -1 9.5 1t11.5 4.5t11 5t8 4.5q7 0 9 -6t-5 -10q-30 -15 -43.5 -14.5t-15 10.5
t6 27t19.5 37z" />
    <glyph glyph-name="aring" unicode="&#xe5;" horiz-adv-x="179" 
d="M139 150q2 -5 -3.5 -10t-10.5 0q4 -19 10 -40t12 -40.5t13 -35t13 -23.5q2 -6 -3.5 -10.5t-10.5 0.5q-17 25 -23 52t-13 56l-5 17q-5 -27 -19 -48q-9 -12 -22.5 -23t-27 -14.5t-24.5 3.5t-15 30q-3 21 4 42.5t20.5 39t31 29t33.5 13.5v4q2 5 6.5 7t8.5 -3l2 -12
q17 -7 23 -34zM87 74q14 22 16 47t-1 50q-12 2 -27 -6.5t-27 -23.5t-19 -33.5t-4 -34.5q3 -17 10 -22.5t16 -4t18.5 9t17.5 18.5zM81 266q6 0 9 -5q8 -6 12 -14t2.5 -15t-8.5 -11.5t-20 -3.5q-19 1 -21.5 15t7.5 25q-2 4 -0.5 8t7.5 4l10 -3h2zM77 232q14 -2 12.5 5
t-10.5 12q-7 -3 -10 -9t8 -8z" />
    <glyph glyph-name="atilde" unicode="&#xe3;" horiz-adv-x="179" 
d="M139 150q2 -5 -3.5 -10t-10.5 0q4 -19 10 -40t12 -40.5t13 -35t13 -23.5q2 -6 -3.5 -10.5t-10.5 0.5q-17 25 -23 52t-13 56l-5 17q-5 -27 -19 -48q-9 -12 -22.5 -23t-27 -14.5t-24.5 3.5t-15 30q-3 21 4 42.5t20.5 39t31 29t33.5 13.5v4q2 5 6.5 7t8.5 -3l2 -12
q17 -7 23 -34zM87 74q14 22 16 47t-1 50q-12 2 -27 -6.5t-27 -23.5t-19 -33.5t-4 -34.5q3 -17 10 -22.5t16 -4t18.5 9t17.5 18.5zM53 224q-2 -8 -8 -7.5t-7 9.5q-1 10 3 18t9 16q8 11 15.5 7t14 -13t12 -17.5t9.5 -6.5t6 11t2 16q0 8 7 5.5t8 -10.5q0 -6 -1.5 -14.5t-6 -15
t-11 -8.5t-15.5 5q-8 6 -13.5 14.5t-12.5 16.5q-5 -5 -8 -11.5t-3 -14.5z" />
    <glyph glyph-name="aeacute" unicode="&#x1fd;" horiz-adv-x="239" 
d="M139 150q2 -5 -3.5 -10t-10.5 0q4 -19 10 -40t12 -40.5t13 -35t13 -23.5q2 -6 -3.5 -10.5t-10.5 0.5q-17 25 -23 52t-13 56l-5 17q-5 -27 -19 -48q-9 -12 -22.5 -23t-27 -14.5t-24.5 3.5t-15 30q-3 21 4 42.5t20.5 39t31 29t33.5 13.5v4q2 5 6.5 7t8.5 -3l2 -12
q17 -7 23 -34zM87 74q14 22 16 47t-1 50q-12 2 -27 -6.5t-27 -23.5t-19 -33.5t-4 -34.5q3 -17 10 -22.5t16 -4t18.5 9t17.5 18.5zM126 110q1 16 7 32t16 27t22 15.5t25 -2.5q21 -11 23.5 -27.5t-7.5 -31t-28.5 -25t-40.5 -9.5q6 -17 25 -22.5t54 14.5q9 2 8.5 -4t-5.5 -10
q-16 -9 -34.5 -14.5t-37.5 3.5q-11 5 -19.5 16.5t-7.5 37.5zM188 167q-11 4 -20 -0.5t-15.5 -14t-10 -22t-3.5 -24.5q18 -5 32.5 2t23 18t7.5 23t-14 18zM97 228q-5 -4 -10 1t-1 10q13 17 26.5 31.5t27.5 29.5q7 5 11.5 0.5t-0.5 -11.5q-14 -15 -27.5 -29.5t-26.5 -31.5z
" />
    <glyph glyph-name="cacute" unicode="&#x107;" 
d="M123 122q-1 -6 -7 -9.5t-9 4.5q-1 6 -1.5 17.5t-3 23t-8 20.5t-14.5 10q-11 1 -22 -12.5t-19.5 -33t-13 -42t-0.5 -41t17.5 -28.5t39.5 -4q22 5 49.5 17t48.5 25q8 5 9.5 -1.5t-4.5 -11.5q-36 -24 -77 -40q-39 -13 -61.5 -4t-32 31t-7 50.5t13 54t27.5 42t38 13.5
q12 -1 18.5 -10.5t10.5 -22t5.5 -26zM50 228q-5 -4 -10 1t-1 10q13 17 26.5 31.5t27.5 29.5q7 5 11.5 0.5t-0.5 -11.5q-14 -15 -27.5 -29.5t-26.5 -31.5z" />
    <glyph glyph-name="ccaron" unicode="&#x10d;" 
d="M123 122q-1 -6 -7 -9.5t-9 4.5q-1 6 -1.5 17.5t-3 23t-8 20.5t-14.5 10q-11 1 -22 -12.5t-19.5 -33t-13 -42t-0.5 -41t17.5 -28.5t39.5 -4q22 5 49.5 17t48.5 25q8 5 9.5 -1.5t-4.5 -11.5q-36 -24 -77 -40q-39 -13 -61.5 -4t-32 31t-7 50.5t13 54t27.5 42t38 13.5
q12 -1 18.5 -10.5t10.5 -22t5.5 -26zM39 287q-2 6 2.5 9.5t9.5 -0.5q9 -11 15 -23t13 -24q4 16 8 36l5 25q2 8 9 7t7 -9q0 -3 -2.5 -14.5t-5.5 -25.5t-6 -25.5t-4 -14.5q-6 -11 -14 -3q-12 13 -19 30.5t-18 31.5z" />
    <glyph glyph-name="ccedilla" unicode="&#xe7;" 
d="M80 16q-1 -10 -0.5 -20t5.5 -15t13 -6.5t16 -3.5t14 -5.5t8 -13.5q1 -7 -4 -14t-12.5 -12.5t-16.5 -8.5t-15 -1q-2 0 -4 2q-2 1 -3 2q-6 6 -1.5 11.5t11.5 0.5q2 -2 5.5 -0.5t5.5 2.5q14 9 17 18q-20 8 -31 12.5t-16.5 10t-6 14.5t1.5 27h13zM123 122q-1 -6 -7 -9.5
t-9 4.5q-1 6 -1.5 17.5t-3 23t-8 20.5t-14.5 10q-11 1 -22 -12.5t-19.5 -33t-13 -42t-0.5 -41t17.5 -28.5t39.5 -4q22 5 49.5 17t48.5 25q8 5 9.5 -1.5t-4.5 -11.5q-36 -24 -77 -40q-39 -13 -61.5 -4t-32 31t-7 50.5t13 54t27.5 42t38 13.5q12 -1 18.5 -10.5t10.5 -22
t5.5 -26z" />
    <glyph glyph-name="ccircumflex" unicode="&#x109;" 
d="M123 122q-1 -6 -7 -9.5t-9 4.5q-1 6 -1.5 17.5t-3 23t-8 20.5t-14.5 10q-11 1 -22 -12.5t-19.5 -33t-13 -42t-0.5 -41t17.5 -28.5t39.5 -4q22 5 49.5 17t48.5 25q8 5 9.5 -1.5t-4.5 -11.5q-36 -24 -77 -40q-39 -13 -61.5 -4t-32 31t-7 50.5t13 54t27.5 42t38 13.5
q12 -1 18.5 -10.5t10.5 -22t5.5 -26zM59 233q-4 -6 -9 -7t-5 7q3 16 9.5 34t14.5 32q5 8 13 5q3 -3 7 -11t7.5 -17.5l7 -19t6.5 -14.5q8 -2 0 -12l-1 -1q-6 -4 -11 0q-7 9 -12 25t-10 27q-5 -11 -9.5 -24t-7.5 -24z" />
    <glyph glyph-name="cdotaccent" unicode="&#x10b;" 
d="M123 122q-1 -6 -7 -9.5t-9 4.5q-1 6 -1.5 17.5t-3 23t-8 20.5t-14.5 10q-11 1 -22 -12.5t-19.5 -33t-13 -42t-0.5 -41t17.5 -28.5t39.5 -4q22 5 49.5 17t48.5 25q8 5 9.5 -1.5t-4.5 -11.5q-36 -24 -77 -40q-39 -13 -61.5 -4t-32 31t-7 50.5t13 54t27.5 42t38 13.5
q12 -1 18.5 -10.5t10.5 -22t5.5 -26zM87 252q4 -10 -4.5 -13t-13.5 6v3q-1 8 5.5 11.5t11.5 -4.5v-2q0 -1 1 -1z" />
    <glyph glyph-name="dcaron" unicode="&#x10f;" horiz-adv-x="193" 
d="M106 152q6 -7 5 -14t-4 -9q1 -17 1.5 -32.5t2.5 -30.5q1 -6 3.5 -20.5t6.5 -29t9 -25t11 -7.5q8 5 9.5 -1.5t-4.5 -11.5q-14 -9 -23.5 2.5t-15 29.5t-8 36t-2.5 22q-2 8 -3 19t-2 20q-5 -12 -15 -22.5t-21.5 -14.5t-23.5 -1t-19 18q-8 16 -3 32t18 28t30 18.5t33 3.5
l-9 206q3 4 6.5 6t6.5 -3q3 -18 5 -47.5t3 -62t2 -62t1 -47.5zM59 80q15 14 22.5 30t10.5 35q-11 3 -25 -0.5t-25 -12t-17 -20.5t0 -25q5 -9 14 -12t20 5zM156 288q3 -20 11.5 -38.5t12 -35t-3 -30.5t-32.5 -25q-7 -2 -11 3.5t4 10.5q21 9 25 21.5t0 27.5t-11.5 31t-10.5 33
q0 8 7 9t9 -7z" />
    <glyph glyph-name="dcroat" unicode="&#x111;" horiz-adv-x="165" 
d="M106 152q6 -7 5 -14t-4 -9q1 -17 1.5 -32.5t2.5 -30.5q1 -6 3.5 -20.5t6.5 -29t9 -25t11 -7.5q8 5 9.5 -1.5t-4.5 -11.5q-14 -9 -23.5 2.5t-15 29.5t-8 36t-2.5 22q-2 8 -3 19t-2 20q-5 -12 -15 -22.5t-21.5 -14.5t-23.5 -1t-19 18q-8 16 -3 32t18 28t30 18.5t33 3.5
l-9 206q3 4 6.5 6t6.5 -3q3 -18 5 -47.5t3 -62t2 -62t1 -47.5zM59 80q15 14 22.5 30t10.5 35q-11 3 -25 -0.5t-25 -12t-17 -20.5t0 -25q5 -9 14 -12t20 5zM47 198q-7 2 -6.5 7t6.5 9l100 6q8 0 9 -6.5t-7 -8.5z" />
    <glyph glyph-name="eacute" unicode="&#xe9;" horiz-adv-x="124" 
d="M10 101q1 16 7 32t16 27t22 15.5t25 -2.5q21 -11 23.5 -27.5t-7.5 -31t-28.5 -25t-40.5 -9.5q6 -17 25 -22.5t54 14.5q9 2 8.5 -4t-5.5 -10q-16 -9 -34.5 -14.5t-37.5 3.5q-11 5 -19.5 16.5t-7.5 37.5zM72 158q-11 4 -20 -0.5t-15.5 -14t-10 -22t-3.5 -24.5q18 -5 32.5 2
t23 18t7.5 23t-14 18zM31 193q-5 -4 -10 1t-1 10q13 17 26.5 31.5t27.5 29.5q7 5 11.5 0.5t-0.5 -11.5q-14 -15 -27.5 -29.5t-26.5 -31.5z" />
    <glyph glyph-name="ebreve" unicode="&#x115;" horiz-adv-x="124" 
d="M10 101q1 16 7 32t16 27t22 15.5t25 -2.5q21 -11 23.5 -27.5t-7.5 -31t-28.5 -25t-40.5 -9.5q6 -17 25 -22.5t54 14.5q9 2 8.5 -4t-5.5 -10q-16 -9 -34.5 -14.5t-37.5 3.5q-11 5 -19.5 16.5t-7.5 37.5zM72 158q-11 4 -20 -0.5t-15.5 -14t-10 -22t-3.5 -24.5q18 -5 32.5 2
t23 18t7.5 23t-14 18zM18 245q0 7 6.5 9t8.5 -5q4 -18 12 -26.5t17 -8t16.5 10t10.5 26.5q3 8 10.5 6t5.5 -10q-4 -23 -16.5 -35t-26.5 -13t-27 10.5t-17 35.5z" />
    <glyph glyph-name="ecaron" unicode="&#x11b;" horiz-adv-x="124" 
d="M10 101q1 16 7 32t16 27t22 15.5t25 -2.5q21 -11 23.5 -27.5t-7.5 -31t-28.5 -25t-40.5 -9.5q6 -17 25 -22.5t54 14.5q9 2 8.5 -4t-5.5 -10q-16 -9 -34.5 -14.5t-37.5 3.5q-11 5 -19.5 16.5t-7.5 37.5zM72 158q-11 4 -20 -0.5t-15.5 -14t-10 -22t-3.5 -24.5q18 -5 32.5 2
t23 18t7.5 23t-14 18zM15 261q-2 6 2.5 9.5t9.5 -0.5q9 -11 15 -23t13 -24q4 16 8 36l5 25q2 8 9 7t7 -9q0 -3 -2.5 -14.5t-5.5 -25.5t-6 -25.5t-4 -14.5q-6 -11 -14 -3q-12 13 -19 30.5t-18 31.5z" />
    <glyph glyph-name="ecircumflex" unicode="&#xea;" horiz-adv-x="124" 
d="M10 101q1 16 7 32t16 27t22 15.5t25 -2.5q21 -11 23.5 -27.5t-7.5 -31t-28.5 -25t-40.5 -9.5q6 -17 25 -22.5t54 14.5q9 2 8.5 -4t-5.5 -10q-16 -9 -34.5 -14.5t-37.5 3.5q-11 5 -19.5 16.5t-7.5 37.5zM72 158q-11 4 -20 -0.5t-15.5 -14t-10 -22t-3.5 -24.5q18 -5 32.5 2
t23 18t7.5 23t-14 18zM40 207q-4 -6 -9 -7t-5 7q3 16 9.5 34t14.5 32q5 8 13 5q3 -3 7 -11t7.5 -17.5l7 -19t6.5 -14.5q8 -2 0 -12l-1 -1q-6 -4 -11 0q-7 9 -12 25t-10 27q-5 -11 -9.5 -24t-7.5 -24z" />
    <glyph glyph-name="edieresis" unicode="&#xeb;" horiz-adv-x="124" 
d="M10 101q1 16 7 32t16 27t22 15.5t25 -2.5q21 -11 23.5 -27.5t-7.5 -31t-28.5 -25t-40.5 -9.5q6 -17 25 -22.5t54 14.5q9 2 8.5 -4t-5.5 -10q-16 -9 -34.5 -14.5t-37.5 3.5q-11 5 -19.5 16.5t-7.5 37.5zM72 158q-11 4 -20 -0.5t-15.5 -14t-10 -22t-3.5 -24.5q18 -5 32.5 2
t23 18t7.5 23t-14 18zM47 227q0 -11 -8 -11.5t-10 10.5v3q2 11 10 10t8 -11v-1zM90 235q4 -10 -4.5 -13t-12.5 6v1l-1 2q-1 8 5.5 11.5t11.5 -4.5v-2q0 -1 1 -1z" />
    <glyph glyph-name="edotaccent" unicode="&#x117;" horiz-adv-x="124" 
d="M10 101q1 16 7 32t16 27t22 15.5t25 -2.5q21 -11 23.5 -27.5t-7.5 -31t-28.5 -25t-40.5 -9.5q6 -17 25 -22.5t54 14.5q9 2 8.5 -4t-5.5 -10q-16 -9 -34.5 -14.5t-37.5 3.5q-11 5 -19.5 16.5t-7.5 37.5zM72 158q-11 4 -20 -0.5t-15.5 -14t-10 -22t-3.5 -24.5q18 -5 32.5 2
t23 18t7.5 23t-14 18zM69 226q4 -10 -4.5 -13t-13.5 6v3q-1 8 5.5 11.5t11.5 -4.5v-2q0 -1 1 -1z" />
    <glyph glyph-name="egrave" unicode="&#xe8;" horiz-adv-x="124" 
d="M10 101q1 16 7 32t16 27t22 15.5t25 -2.5q21 -11 23.5 -27.5t-7.5 -31t-28.5 -25t-40.5 -9.5q6 -17 25 -22.5t54 14.5q9 2 8.5 -4t-5.5 -10q-16 -9 -34.5 -14.5t-37.5 3.5q-11 5 -19.5 16.5t-7.5 37.5zM72 158q-11 4 -20 -0.5t-15.5 -14t-10 -22t-3.5 -24.5q18 -5 32.5 2
t23 18t7.5 23t-14 18zM41 238q-6 6 -1.5 11.5t11.5 0.5q10 -9 18 -19t17 -20q5 -7 0 -11t-12 1q-8 9 -15.5 19t-17.5 18z" />
    <glyph glyph-name="emacron" unicode="&#x113;" horiz-adv-x="124" 
d="M10 101q1 16 7 32t16 27t22 15.5t25 -2.5q21 -11 23.5 -27.5t-7.5 -31t-28.5 -25t-40.5 -9.5q6 -17 25 -22.5t54 14.5q9 2 8.5 -4t-5.5 -10q-16 -9 -34.5 -14.5t-37.5 3.5q-11 5 -19.5 16.5t-7.5 37.5zM72 158q-11 4 -20 -0.5t-15.5 -14t-10 -22t-3.5 -24.5q18 -5 32.5 2
t23 18t7.5 23t-14 18zM8 211q-7 1 -7 6.5t6 8.5q23 4 46.5 4t47.5 -2q7 -2 7 -8t-8 -8q-23 2 -45.5 2t-46.5 -3z" />
    <glyph glyph-name="eogonek" unicode="&#x119;" horiz-adv-x="148" 
d="M10 101q1 16 7 32t16 27t22 15.5t25 -2.5q21 -11 23.5 -27.5t-7.5 -31t-28.5 -25t-40.5 -9.5q6 -17 25 -22.5t54 14.5q9 2 8.5 -4t-5.5 -10q-16 -9 -34.5 -14.5t-37.5 3.5q-11 5 -19.5 16.5t-7.5 37.5zM72 158q-11 4 -20 -0.5t-15.5 -14t-10 -22t-3.5 -24.5q18 -5 32.5 2
t23 18t7.5 23t-14 18zM102 71q8 5 12.5 0.5t-0.5 -11.5q-8 -11 -14 -22.5t-9 -25.5q4 -1 9.5 1t11.5 4.5t11 5t8 4.5q7 0 9 -6t-5 -10q-30 -15 -43.5 -14.5t-15 10.5t6 27t19.5 37z" />
    <glyph glyph-name="gbreve" unicode="&#x11f;" horiz-adv-x="155" 
d="M143 121q2 -7 -4.5 -11.5t-9.5 3.5q-3 18 -12 25q5 -49 17 -90.5t23 -82.5q18 6 38.5 11.5t38 7t30.5 -2t17 -14.5q2 -6 -4.5 -11t-10.5 3q-3 9 -17.5 9.5t-31.5 -3t-33 -8.5t-22 -6q6 -20 14 -45.5t15.5 -54t11.5 -58t2 -57.5q-3 -37 -18 -62t-39.5 -39.5t-56 -17.5
t-66.5 5q-20 4 -39 12.5t-33.5 20.5t-23.5 27.5t-10 33.5q-3 43 17 81t53.5 69.5t74 55t77.5 37.5q-11 35 -21 70t-17 70q-3 -11 -14.5 -26t-25.5 -26q-24 -19 -41 -7t-12 43q2 15 10 28.5t20 24t25.5 17.5t26.5 9q-2 25 0 51q2 5 8 8.5t11 -1.5q7 -17 9 -32.5t0 -31.5
q19 -10 23 -35zM29 -361q29 -7 56 -5.5t48.5 13t36 33.5t18.5 56q3 25 0 51t-9.5 53t-15.5 53.5t-17 52.5q-30 -9 -68.5 -32.5t-72.5 -55.5t-55 -69t-15 -74q5 -29 32.5 -48.5t61.5 -27.5zM99 119q-2 7 -3 13.5t-2 14.5q-32 -9 -48 -26t-20 -34q-2 -7 -1 -14.5t5 -13
t10 -6.5t15 5q18 14 44 61zM13 260q0 7 6.5 9t8.5 -5q4 -18 12 -26.5t17 -8t16.5 10t10.5 26.5q3 8 10.5 6t5.5 -10q-4 -23 -16.5 -35t-26.5 -13t-27 10.5t-17 35.5z" />
    <glyph glyph-name="gcircumflex" unicode="&#x11d;" horiz-adv-x="155" 
d="M143 121q2 -7 -4.5 -11.5t-9.5 3.5q-3 18 -12 25q5 -49 17 -90.5t23 -82.5q18 6 38.5 11.5t38 7t30.5 -2t17 -14.5q2 -6 -4.5 -11t-10.5 3q-3 9 -17.5 9.5t-31.5 -3t-33 -8.5t-22 -6q6 -20 14 -45.5t15.5 -54t11.5 -58t2 -57.5q-3 -37 -18 -62t-39.5 -39.5t-56 -17.5
t-66.5 5q-20 4 -39 12.5t-33.5 20.5t-23.5 27.5t-10 33.5q-3 43 17 81t53.5 69.5t74 55t77.5 37.5q-11 35 -21 70t-17 70q-3 -11 -14.5 -26t-25.5 -26q-24 -19 -41 -7t-12 43q2 15 10 28.5t20 24t25.5 17.5t26.5 9q-2 25 0 51q2 5 8 8.5t11 -1.5q7 -17 9 -32.5t0 -31.5
q19 -10 23 -35zM29 -361q29 -7 56 -5.5t48.5 13t36 33.5t18.5 56q3 25 0 51t-9.5 53t-15.5 53.5t-17 52.5q-30 -9 -68.5 -32.5t-72.5 -55.5t-55 -69t-15 -74q5 -29 32.5 -48.5t61.5 -27.5zM99 119q-2 7 -3 13.5t-2 14.5q-32 -9 -48 -26t-20 -34q-2 -7 -1 -14.5t5 -13
t10 -6.5t15 5q18 14 44 61zM35 220q-4 -6 -9 -7t-5 7q3 16 9.5 34t14.5 32q5 8 13 5q3 -3 7 -11t7.5 -17.5l7 -19t6.5 -14.5q8 -2 0 -12l-1 -1q-6 -4 -11 0q-7 9 -12 25t-10 27q-5 -11 -9.5 -24t-7.5 -24z" />
    <glyph glyph-name="gcommaaccent" unicode="&#x123;" horiz-adv-x="155" 
d="M143 121q2 -7 -4.5 -11.5t-9.5 3.5q-3 18 -12 25q5 -49 17 -90.5t23 -82.5q18 6 38.5 11.5t38 7t30.5 -2t17 -14.5q2 -6 -4.5 -11t-10.5 3q-3 9 -17.5 9.5t-31.5 -3t-33 -8.5t-22 -6q6 -20 14 -45.5t15.5 -54t11.5 -58t2 -57.5q-3 -37 -18 -62t-39.5 -39.5t-56 -17.5
t-66.5 5q-20 4 -39 12.5t-33.5 20.5t-23.5 27.5t-10 33.5q-3 43 17 81t53.5 69.5t74 55t77.5 37.5q-11 35 -21 70t-17 70q-3 -11 -14.5 -26t-25.5 -26q-24 -19 -41 -7t-12 43q2 15 10 28.5t20 24t25.5 17.5t26.5 9q-2 25 0 51q2 5 8 8.5t11 -1.5q7 -17 9 -32.5t0 -31.5
q19 -10 23 -35zM29 -361q29 -7 56 -5.5t48.5 13t36 33.5t18.5 56q3 25 0 51t-9.5 53t-15.5 53.5t-17 52.5q-30 -9 -68.5 -32.5t-72.5 -55.5t-55 -69t-15 -74q5 -29 32.5 -48.5t61.5 -27.5zM99 119q-2 7 -3 13.5t-2 14.5q-32 -9 -48 -26t-20 -34q-2 -7 -1 -14.5t5 -13
t10 -6.5t15 5q18 14 44 61zM36 309q2 8 9 7t7 -9q-3 -17 -10.5 -33t-11.5 -31t0 -27.5t25 -21.5q8 -5 4 -10.5t-11 -3.5q-26 11 -32.5 25t-3 30.5t12 35t11.5 38.5z" />
    <glyph glyph-name="gdotaccent" unicode="&#x121;" horiz-adv-x="155" 
d="M143 121q2 -7 -4.5 -11.5t-9.5 3.5q-3 18 -12 25q5 -49 17 -90.5t23 -82.5q18 6 38.5 11.5t38 7t30.5 -2t17 -14.5q2 -6 -4.5 -11t-10.5 3q-3 9 -17.5 9.5t-31.5 -3t-33 -8.5t-22 -6q6 -20 14 -45.5t15.5 -54t11.5 -58t2 -57.5q-3 -37 -18 -62t-39.5 -39.5t-56 -17.5
t-66.5 5q-20 4 -39 12.5t-33.5 20.5t-23.5 27.5t-10 33.5q-3 43 17 81t53.5 69.5t74 55t77.5 37.5q-11 35 -21 70t-17 70q-3 -11 -14.5 -26t-25.5 -26q-24 -19 -41 -7t-12 43q2 15 10 28.5t20 24t25.5 17.5t26.5 9q-2 25 0 51q2 5 8 8.5t11 -1.5q7 -17 9 -32.5t0 -31.5
q19 -10 23 -35zM29 -361q29 -7 56 -5.5t48.5 13t36 33.5t18.5 56q3 25 0 51t-9.5 53t-15.5 53.5t-17 52.5q-30 -9 -68.5 -32.5t-72.5 -55.5t-55 -69t-15 -74q5 -29 32.5 -48.5t61.5 -27.5zM99 119q-2 7 -3 13.5t-2 14.5q-32 -9 -48 -26t-20 -34q-2 -7 -1 -14.5t5 -13
t10 -6.5t15 5q18 14 44 61zM50 206q4 -10 -4.5 -13t-13.5 6v3q-1 8 5.5 11.5t11.5 -4.5v-2q0 -1 1 -1z" />
    <glyph glyph-name="hbar" unicode="&#x127;" horiz-adv-x="223" 
d="M17 183q-7 0 -8 5t4 10q21 9 44.5 13.5t47.5 8.5q6 -1 8 -7t-6 -9q-45 -5 -90 -21zM37 346q0 7 7 10t9 -5q0 -70 4.5 -139t12.5 -139v2q0 3 0.5 -2.5t1.5 -8.5q5 21 11 40.5t16 38.5q9 18 19 21.5t19.5 -2t18.5 -16.5t18 -23.5t18 -22.5t17 -13q6 -4 2.5 -9t-10.5 -5
q-10 4 -22 16.5t-22.5 26.5t-19 25t-11.5 11q-23 -23 -30 -53.5t-16 -61.5q-3 -6 -9.5 -6t-10.5 5q-14 77 -18.5 154.5t-4.5 155.5z" />
    <glyph glyph-name="hcircumflex" unicode="&#x125;" horiz-adv-x="194" 
d="M10 346q0 7 7 10t9 -5q0 -70 4.5 -139t12.5 -139v2q0 3 0.5 -2.5t1.5 -8.5q5 21 11 40.5t17 38.5q9 18 19 21.5t19 -2t18.5 -16.5t18.5 -23.5t17.5 -22.5t16.5 -13q6 -4 2.5 -9t-9.5 -5q-11 4 -23 16.5t-22.5 26.5t-19 25t-11.5 11q-23 -23 -30 -53.5t-16 -61.5
q-3 -6 -9.5 -6t-10.5 5q-13 77 -18 154.5t-5 155.5zM72 203q-4 -6 -9 -7t-5 7q3 16 9.5 34t14.5 32q5 8 13 5q3 -3 7 -11t7.5 -17.5l7 -19t6.5 -14.5q8 -2 0 -12l-1 -1q-6 -4 -11 0q-7 9 -12 25t-10 27q-5 -11 -9.5 -24t-7.5 -24z" />
    <glyph glyph-name="iacute" unicode="&#xed;" horiz-adv-x="78" 
d="M34 182q2 5 8 7.5t7 -5.5q-1 -38 -3 -74.5t-3 -74.5q-2 -7 -8.5 -9.5t-6.5 6.5q1 38 3 75t3 75zM17 228q-5 -4 -10 1t-1 10q13 17 26.5 31.5t27.5 29.5q7 5 11.5 0.5t-0.5 -11.5q-14 -15 -27.5 -29.5t-26.5 -31.5z" />
    <glyph glyph-name="ibreve" unicode="&#x12d;" horiz-adv-x="78" 
d="M34 182q2 5 8 7.5t7 -5.5q-1 -38 -3 -74.5t-3 -74.5q-2 -7 -8.5 -9.5t-6.5 6.5q1 38 3 75t3 75zM-3 271q0 7 6.5 9t8.5 -5q4 -18 12 -26.5t17 -8t16.5 10t10.5 26.5q3 8 10.5 6t5.5 -10q-4 -23 -16.5 -35t-26.5 -13t-27 10.5t-17 35.5z" />
    <glyph glyph-name="icircumflex" unicode="&#xee;" horiz-adv-x="78" 
d="M34 182q2 5 8 7.5t7 -5.5q-1 -38 -3 -74.5t-3 -74.5q-2 -7 -8.5 -9.5t-6.5 6.5q1 38 3 75t3 75zM24 224q-4 -6 -9 -7t-5 7q3 16 9.5 34t14.5 32q5 8 13 5q3 -3 7 -11t7.5 -17.5l7 -19t6.5 -14.5q8 -2 0 -12l-1 -1q-6 -4 -11 0q-7 9 -12 25t-10 27q-5 -11 -9.5 -24
t-7.5 -24z" />
    <glyph glyph-name="idieresis" unicode="&#xef;" horiz-adv-x="78" 
d="M34 182q2 5 8 7.5t7 -5.5q-1 -38 -3 -74.5t-3 -74.5q-2 -7 -8.5 -9.5t-6.5 6.5q1 38 3 75t3 75zM26 244q0 -11 -8 -11.5t-10 10.5v3q2 11 10 10t8 -11v-1zM69 252q4 -10 -4.5 -13t-12.5 6v1l-1 2q-1 8 5.5 11.5t11.5 -4.5v-2q0 -1 1 -1z" />
    <glyph glyph-name="igrave" unicode="&#xec;" horiz-adv-x="78" 
d="M34 182q2 5 8 7.5t7 -5.5q-1 -38 -3 -74.5t-3 -74.5q-2 -7 -8.5 -9.5t-6.5 6.5q1 38 3 75t3 75zM17 264q-6 6 -1.5 11.5t11.5 0.5q10 -9 18 -19t17 -20q5 -7 0 -11t-12 1q-8 9 -15.5 19t-17.5 18z" />
    <glyph glyph-name="imacron" unicode="&#x12b;" horiz-adv-x="78" 
d="M34 182q2 5 8 7.5t7 -5.5q-1 -38 -3 -74.5t-3 -74.5q-2 -7 -8.5 -9.5t-6.5 6.5q1 38 3 75t3 75zM-7 244q-7 1 -7 6.5t6 8.5q23 4 46.5 4t47.5 -2q7 -2 7 -8t-8 -8q-23 2 -45.5 2t-46.5 -3z" />
    <glyph glyph-name="iogonek" unicode="&#x12f;" horiz-adv-x="78" 
d="M34 182q2 5 8 7.5t7 -5.5q-1 -38 -3 -74.5t-3 -74.5q-2 -7 -8.5 -9.5t-6.5 6.5q1 38 3 75t3 75zM48 285q4 -5 -1.5 -11t-10.5 -2q-6 4 0 10.5t12 2.5zM29 40q8 5 12.5 0.5t-0.5 -11.5q-8 -11 -14 -22.5t-9 -25.5q4 -1 9.5 1t11.5 4.5t11 5t8 4.5q7 0 9 -6t-5 -10
q-30 -15 -43.5 -14.5t-15 10.5t6 27t19.5 37z" />
    <glyph glyph-name="itilde" unicode="&#x129;" horiz-adv-x="78" 
d="M34 182q2 5 8 7.5t7 -5.5q-1 -38 -3 -74.5t-3 -74.5q-2 -7 -8.5 -9.5t-6.5 6.5q1 38 3 75t3 75zM11 230q-2 -8 -8 -7.5t-7 9.5q-1 10 3 18t9 16q8 11 15.5 7t14 -13t12 -17.5t9.5 -6.5t6 11t2 16q0 8 7 5.5t8 -10.5q0 -6 -1.5 -14.5t-6 -15t-11 -8.5t-15.5 5
q-8 6 -13.5 14.5t-12.5 16.5q-5 -5 -8 -11.5t-3 -14.5z" />
    <glyph glyph-name="dotlessj" unicode="&#x237;" horiz-adv-x="157" 
d="M30 198q-2 7 3.5 11.5t10.5 -2.5q14 -34 25 -72.5t19 -61.5l49 43q6 5 10 1t-1 -11q-14 -11 -27 -23.5t-27 -24.5q12 -56 18 -108.5t4.5 -97t-11 -78.5t-30.5 -51q-16 -13 -46.5 -15.5t-60.5 7t-50 32t-15 61.5q4 28 13.5 52t24 46t32 43.5t37.5 44.5q16 18 32 34t34 33
q-10 34 -21.5 73t-22.5 64zM73 -250q15 24 21.5 58t6 73t-6.5 81t-15 82q-44 -41 -83 -84.5t-63 -96.5q-9 -19 -13.5 -38.5t-1.5 -37.5t15 -33t36 -25q12 -5 27 -7t29.5 0t27 8.5t20.5 19.5z" />
    <glyph glyph-name="jcircumflex" unicode="&#x135;" horiz-adv-x="157" 
d="M30 198q-2 7 3.5 11.5t10.5 -2.5q14 -34 25 -72.5t19 -61.5l49 43q6 5 10 1t-1 -11q-14 -11 -27 -23.5t-27 -24.5q12 -56 18 -108.5t4.5 -97t-11 -78.5t-30.5 -51q-16 -13 -46.5 -15.5t-60.5 7t-50 32t-15 61.5q4 28 13.5 52t24 46t32 43.5t37.5 44.5q16 18 32 34t34 33
q-10 34 -21.5 73t-22.5 64zM73 -250q15 24 21.5 58t6 73t-6.5 81t-15 82q-44 -41 -83 -84.5t-63 -96.5q-9 -19 -13.5 -38.5t-1.5 -37.5t15 -33t36 -25q12 -5 27 -7t29.5 0t27 8.5t20.5 19.5zM12 235q-4 -6 -9 -7t-5 7q3 16 9.5 34t14.5 32q5 8 13 5q3 -3 7 -11t7.5 -17.5
l7 -19t6.5 -14.5q8 -2 0 -12l-1 -1q-6 -4 -11 0q-7 9 -12 25t-10 27q-5 -11 -9.5 -24t-7.5 -24z" />
    <glyph glyph-name="kcommaaccent" unicode="&#x137;" horiz-adv-x="257" 
d="M20 429q0 7 7 10t8 -5v-177.5t8 -176.5q2 11 12.5 32.5t25.5 43.5t31.5 38t30.5 16q7 -1 7 -6q-3 -21 -21 -45.5t-37.5 -48.5t-33 -45t-7.5 -36q19 -2 42 1.5t47.5 11t51 17.5t52.5 20q8 2 7.5 -4t-5.5 -10q-24 -9 -49 -19t-51 -18t-52.5 -12t-52.5 -1q-3 2 -6 14.5
t-5.5 28.5t-4.5 32t-3 25q-7 78 -4.5 157.5t2.5 156.5zM132 191q-20 -20 -35 -39.5t-27 -43.5q17 23 35.5 44.5t26.5 38.5zM141 -21q-3 6 1 10t11 1q9 -11 10.5 -21.5t-1.5 -21.5t-9 -21.5t-13 -20.5q-5 -5 -10.5 -0.5t-1.5 10.5q4 7 9.5 15t8.5 16t2.5 16.5t-7.5 16.5z" />
    <glyph glyph-name="kgreenlandic" unicode="&#x138;" horiz-adv-x="257" 
d="M19 258q0 7 7 10t9 -5q0 -44 1.5 -94.5t6.5 -88.5q2 11 12.5 32.5t25.5 43.5t31.5 38t30.5 16q7 -1 7 -6q-3 -21 -21 -45.5t-37.5 -48.5t-33 -45t-7.5 -36q19 -2 42 1.5t47.5 11t51 17.5t52.5 20q8 2 7.5 -4t-5.5 -10q-24 -9 -49 -19t-51 -18t-52.5 -12t-52.5 -1
q-6 4 -10.5 32.5t-7 66t-3.5 77.5t-1 67zM132 191q-20 -20 -35 -39.5t-27 -43.5q17 23 35.5 44.5t26.5 38.5z" />
    <glyph glyph-name="lacute" unicode="&#x13a;" horiz-adv-x="124" 
d="M50 405q2 6 8 8.5t8 -5.5q-1 -94 -3 -186t-3 -186q-2 -6 -9 -8.5t-7 6.5q1 94 3 186t3 185zM32 418q-5 -4 -10 1t-1 10q13 17 26.5 31.5t27.5 29.5q7 5 11.5 0.5t-0.5 -11.5q-14 -15 -27.5 -29.5t-26.5 -31.5z" />
    <glyph glyph-name="lcaron" unicode="&#x13e;" horiz-adv-x="131" 
d="M32 405q2 6 8 8.5t8 -5.5q-1 -94 -3.5 -186t-3.5 -186q-1 -6 -8 -8.5t-7 6.5q1 94 3 186t3 185zM93 279q3 -20 11.5 -38.5t12 -35t-3 -30.5t-32.5 -25q-7 -2 -11 3.5t4 10.5q21 9 25 21.5t0 27.5t-11.5 31t-10.5 33q0 8 7 9t9 -7z" />
    <glyph glyph-name="lcommaaccent" unicode="&#x13c;" horiz-adv-x="76" 
d="M32 405q2 6 8 8.5t8 -5.5q-1 -94 -3.5 -186t-3.5 -186q-1 -6 -8 -8.5t-7 6.5q1 94 3 186t3 185zM27 -12q-3 6 1 10t11 1q9 -11 10.5 -21.5t-1.5 -21.5t-9 -21.5t-13 -20.5q-5 -5 -10.5 -0.5t-1.5 10.5q4 7 9.5 15t8.5 16t2.5 16.5t-7.5 16.5z" />
    <glyph glyph-name="ldot" unicode="&#x140;" horiz-adv-x="96" 
d="M32 405q2 6 8 8.5t8 -5.5q-1 -94 -3.5 -186t-3.5 -186q-1 -6 -8 -8.5t-7 6.5q1 94 3 186t3 185zM62 168q2 11 11 9.5t9 -12.5q-1 -10 -9.5 -10t-10.5 10v3v0z" />
    <glyph glyph-name="lslash" unicode="&#x142;" horiz-adv-x="124" 
d="M21 120q-7 -3 -10 1.5t-1 10.5l91 75q7 5 11.5 0t-1.5 -11zM58 405q2 6 8 8.5t7 -5.5q0 -94 -2.5 -186t-3.5 -186q-1 -6 -8 -8.5t-7 6.5q1 94 3 186t3 185z" />
    <glyph glyph-name="nacute" unicode="&#x144;" horiz-adv-x="201" 
d="M29 176q2 6 7.5 8.5t7.5 -5.5q-2 -32 -5.5 -65t-3.5 -66q9 16 17 34.5t16.5 34t17 26.5t19.5 12t24 -11t30 -42q8 -13 15.5 -25.5t17.5 -23.5q5 -6 -1.5 -11.5t-11.5 -0.5q-8 9 -17 25.5t-18.5 32t-20.5 27.5t-23 12q-12 -10 -19.5 -23.5t-13.5 -28t-12.5 -29
t-16.5 -26.5q-4 -4 -9.5 -4t-7.5 6q-5 35 0 72t8 71zM78 195q-5 -4 -10 1t-1 10q13 17 26.5 31.5t27.5 29.5q7 5 11.5 0.5t-0.5 -11.5q-14 -15 -27.5 -29.5t-26.5 -31.5z" />
    <glyph glyph-name="napostrophe" unicode="&#x149;" horiz-adv-x="240" 
d="M64 176q2 6 7.5 8.5t7.5 -5.5q-2 -32 -5.5 -65t-3.5 -66q9 16 17 34.5t16.5 34t17 26.5t19.5 12t24 -11t30 -42q8 -13 15.5 -25.5t17.5 -23.5q5 -6 -1.5 -11.5t-11.5 -0.5q-8 9 -17 25.5t-18.5 32t-20.5 27.5t-23 12q-12 -10 -19.5 -23.5t-13.5 -28t-12.5 -29
t-16.5 -26.5q-4 -4 -9.5 -4t-7.5 6q-5 35 0 72t8 71zM26 258q-3 6 1 10t11 1q9 -11 10.5 -21.5t-1.5 -21.5t-9 -21.5t-13 -20.5q-5 -5 -10.5 -0.5t-1.5 10.5q4 7 9.5 15t8.5 16t2.5 16.5t-7.5 16.5z" />
    <glyph glyph-name="ncaron" unicode="&#x148;" horiz-adv-x="201" 
d="M29 176q2 6 7.5 8.5t7.5 -5.5q-2 -32 -5.5 -65t-3.5 -66q9 16 17 34.5t16.5 34t17 26.5t19.5 12t24 -11t30 -42q8 -13 15.5 -25.5t17.5 -23.5q5 -6 -1.5 -11.5t-11.5 -0.5q-8 9 -17 25.5t-18.5 32t-20.5 27.5t-23 12q-12 -10 -19.5 -23.5t-13.5 -28t-12.5 -29
t-16.5 -26.5q-4 -4 -9.5 -4t-7.5 6q-5 35 0 72t8 71zM54 260q-2 6 2.5 9.5t9.5 -0.5q9 -11 15 -23t13 -24q4 16 8 36l5 25q2 8 9 7t7 -9q0 -3 -2.5 -14.5t-5.5 -25.5t-6 -25.5t-4 -14.5q-6 -11 -14 -3q-12 13 -19 30.5t-18 31.5z" />
    <glyph glyph-name="ncommaaccent" unicode="&#x146;" horiz-adv-x="201" 
d="M29 176q2 6 7.5 8.5t7.5 -5.5q-2 -32 -5.5 -65t-3.5 -66q9 16 17 34.5t16.5 34t17 26.5t19.5 12t24 -11t30 -42q8 -13 15.5 -25.5t17.5 -23.5q5 -6 -1.5 -11.5t-11.5 -0.5q-8 9 -17 25.5t-18.5 32t-20.5 27.5t-23 12q-12 -10 -19.5 -23.5t-13.5 -28t-12.5 -29
t-16.5 -26.5q-4 -4 -9.5 -4t-7.5 6q-5 35 0 72t8 71zM103 12q-3 6 1 10t11 1q9 -11 10.5 -21.5t-1.5 -21.5t-9 -21.5t-13 -20.5q-5 -5 -10.5 -0.5t-1.5 10.5q4 7 9.5 15t8.5 16t2.5 16.5t-7.5 16.5z" />
    <glyph glyph-name="ntilde" unicode="&#xf1;" horiz-adv-x="201" 
d="M29 176q2 6 7.5 8.5t7.5 -5.5q-2 -32 -5.5 -65t-3.5 -66q9 16 17 34.5t16.5 34t17 26.5t19.5 12t24 -11t30 -42q8 -13 15.5 -25.5t17.5 -23.5q5 -6 -1.5 -11.5t-11.5 -0.5q-8 9 -17 25.5t-18.5 32t-20.5 27.5t-23 12q-12 -10 -19.5 -23.5t-13.5 -28t-12.5 -29
t-16.5 -26.5q-4 -4 -9.5 -4t-7.5 6q-5 35 0 72t8 71zM65 211q-2 -8 -8 -7.5t-7 9.5q-1 10 3 18t9 16q8 11 15.5 7t14 -13t12 -17.5t9.5 -6.5t6 11t2 16q0 8 7 5.5t8 -10.5q0 -6 -1.5 -14.5t-6 -15t-11 -8.5t-15.5 5q-8 6 -13.5 14.5t-12.5 16.5q-5 -5 -8 -11.5t-3 -14.5z
" />
    <glyph glyph-name="oacute" unicode="&#xf3;" horiz-adv-x="118" 
d="M13 105q6 17 17.5 35.5t23.5 26.5q-2 5 5.5 12t11.5 1q11 -11 17.5 -24t11.5 -28q8 -28 4.5 -47.5t-14 -30.5t-25.5 -13t-30 4q-15 5 -22.5 21.5t0.5 42.5zM38 58q25 -12 37.5 -2.5t14.5 28.5t-4 40t-17 32q-11 -3 -22 -16.5t-17.5 -29.5t-5.5 -31t14 -21zM37 202
q-5 -4 -10 1t-1 10q13 17 26.5 31.5t27.5 29.5q7 5 11.5 0.5t-0.5 -11.5q-14 -15 -27.5 -29.5t-26.5 -31.5z" />
    <glyph glyph-name="obreve" unicode="&#x14f;" horiz-adv-x="118" 
d="M13 105q6 17 17.5 35.5t23.5 26.5q-2 5 5.5 12t11.5 1q11 -11 17.5 -24t11.5 -28q8 -28 4.5 -47.5t-14 -30.5t-25.5 -13t-30 4q-15 5 -22.5 21.5t0.5 42.5zM38 58q25 -12 37.5 -2.5t14.5 28.5t-4 40t-17 32q-11 -3 -22 -16.5t-17.5 -29.5t-5.5 -31t14 -21zM14 254
q0 7 6.5 9t8.5 -5q4 -18 12 -26.5t17 -8t16.5 10t10.5 26.5q3 8 10.5 6t5.5 -10q-4 -23 -16.5 -35t-26.5 -13t-27 10.5t-17 35.5z" />
    <glyph glyph-name="ocircumflex" unicode="&#xf4;" horiz-adv-x="118" 
d="M13 105q6 17 17.5 35.5t23.5 26.5q-2 5 5.5 12t11.5 1q11 -11 17.5 -24t11.5 -28q8 -28 4.5 -47.5t-14 -30.5t-25.5 -13t-30 4q-15 5 -22.5 21.5t0.5 42.5zM38 58q25 -12 37.5 -2.5t14.5 28.5t-4 40t-17 32q-11 -3 -22 -16.5t-17.5 -29.5t-5.5 -31t14 -21zM38 207
q-4 -6 -9 -7t-5 7q3 16 9.5 34t14.5 32q5 8 13 5q3 -3 7 -11t7.5 -17.5l7 -19t6.5 -14.5q8 -2 0 -12l-1 -1q-6 -4 -11 0q-7 9 -12 25t-10 27q-5 -11 -9.5 -24t-7.5 -24z" />
    <glyph glyph-name="odieresis" unicode="&#xf6;" horiz-adv-x="118" 
d="M13 105q6 17 17.5 35.5t23.5 26.5q-2 5 5.5 12t11.5 1q11 -11 17.5 -24t11.5 -28q8 -28 4.5 -47.5t-14 -30.5t-25.5 -13t-30 4q-15 5 -22.5 21.5t0.5 42.5zM38 58q25 -12 37.5 -2.5t14.5 28.5t-4 40t-17 32q-11 -3 -22 -16.5t-17.5 -29.5t-5.5 -31t14 -21zM44 227
q0 -11 -8 -11.5t-10 10.5v3q2 11 10 10t8 -11v-1zM87 235q4 -10 -4.5 -13t-12.5 6v1l-1 2q-1 8 5.5 11.5t11.5 -4.5v-2q0 -1 1 -1z" />
    <glyph glyph-name="ograve" unicode="&#xf2;" horiz-adv-x="118" 
d="M13 105q6 17 17.5 35.5t23.5 26.5q-2 5 5.5 12t11.5 1q11 -11 17.5 -24t11.5 -28q8 -28 4.5 -47.5t-14 -30.5t-25.5 -13t-30 4q-15 5 -22.5 21.5t0.5 42.5zM38 58q25 -12 37.5 -2.5t14.5 28.5t-4 40t-17 32q-11 -3 -22 -16.5t-17.5 -29.5t-5.5 -31t14 -21zM37 247
q-6 6 -1.5 11.5t11.5 0.5q10 -9 18 -19t17 -20q5 -7 0 -11t-12 1q-8 9 -15.5 19t-17.5 18z" />
    <glyph glyph-name="ohungarumlaut" unicode="&#x151;" horiz-adv-x="118" 
d="M13 105q6 17 17.5 35.5t23.5 26.5q-2 5 5.5 12t11.5 1q11 -11 17.5 -24t11.5 -28q8 -28 4.5 -47.5t-14 -30.5t-25.5 -13t-30 4q-15 5 -22.5 21.5t0.5 42.5zM38 58q25 -12 37.5 -2.5t14.5 28.5t-4 40t-17 32q-11 -3 -22 -16.5t-17.5 -29.5t-5.5 -31t14 -21zM42 291
q2 8 9 7t7 -9q-2 -24 -10 -45t-16 -44q-4 -6 -10.5 -5t-4.5 9q8 23 15.5 43.5t9.5 43.5zM83 285q-1 7 5 10t10 -4q1 -5 -1.5 -18t-6 -27t-7.5 -26t-4 -15q-4 -6 -11 -5t-5 10l3.5 11.5t7.5 25t7 25.5t2 13z" />
    <glyph glyph-name="omacron" unicode="&#x14d;" horiz-adv-x="118" 
d="M13 105q6 17 17.5 35.5t23.5 26.5q-2 5 5.5 12t11.5 1q11 -11 17.5 -24t11.5 -28q8 -28 4.5 -47.5t-14 -30.5t-25.5 -13t-30 4q-15 5 -22.5 21.5t0.5 42.5zM38 58q25 -12 37.5 -2.5t14.5 28.5t-4 40t-17 32q-11 -3 -22 -16.5t-17.5 -29.5t-5.5 -31t14 -21zM13 227
q-7 1 -7 6.5t6 8.5q23 4 46.5 4t47.5 -2q7 -2 7 -8t-8 -8q-23 2 -45.5 2t-46.5 -3z" />
    <glyph glyph-name="oslash" unicode="&#xf8;" horiz-adv-x="118" 
d="M82 225q4 6 10 4.5t6 -9.5l-52 -214q-4 -7 -10.5 -5.5t-5.5 9.5zM13 105q6 17 17.5 35.5t23.5 26.5q-2 5 5.5 12t11.5 1q11 -11 17.5 -24t11.5 -28q8 -28 4.5 -47.5t-14 -30.5t-25.5 -13t-30 4q-15 5 -22.5 21.5t0.5 42.5zM38 58q25 -12 37.5 -2.5t14.5 28.5t-4 40
t-17 32q-11 -3 -22 -16.5t-17.5 -29.5t-5.5 -31t14 -21z" />
    <glyph glyph-name="oslashacute" unicode="&#x1ff;" horiz-adv-x="118" 
d="M37 228q-5 -4 -10 1t-1 10q13 17 26.5 31.5t27.5 29.5q7 5 11.5 0.5t-0.5 -11.5q-14 -15 -27.5 -29.5t-26.5 -31.5zM82 225q4 6 10 4.5t6 -9.5l-52 -214q-4 -7 -10.5 -5.5t-5.5 9.5zM13 105q6 17 17.5 35.5t23.5 26.5q-2 5 5.5 12t11.5 1q11 -11 17.5 -24t11.5 -28
q8 -28 4.5 -47.5t-14 -30.5t-25.5 -13t-30 4q-15 5 -22.5 21.5t0.5 42.5zM38 58q25 -12 37.5 -2.5t14.5 28.5t-4 40t-17 32q-11 -3 -22 -16.5t-17.5 -29.5t-5.5 -31t14 -21z" />
    <glyph glyph-name="otilde" unicode="&#xf5;" horiz-adv-x="118" 
d="M13 105q6 17 17.5 35.5t23.5 26.5q-2 5 5.5 12t11.5 1q11 -11 17.5 -24t11.5 -28q8 -28 4.5 -47.5t-14 -30.5t-25.5 -13t-30 4q-15 5 -22.5 21.5t0.5 42.5zM38 58q25 -12 37.5 -2.5t14.5 28.5t-4 40t-17 32q-11 -3 -22 -16.5t-17.5 -29.5t-5.5 -31t14 -21zM31 221
q-2 -8 -8 -7.5t-7 9.5q-1 10 3 18t9 16q8 11 15.5 7t14 -13t12 -17.5t9.5 -6.5t6 11t2 16q0 8 7 5.5t8 -10.5q0 -6 -1.5 -14.5t-6 -15t-11 -8.5t-15.5 5q-8 6 -13.5 14.5t-12.5 16.5q-5 -5 -8 -11.5t-3 -14.5z" />
    <glyph glyph-name="racute" unicode="&#x155;" horiz-adv-x="193" 
d="M18 220q0 7 7 10t9 -5v-85.5t8 -85.5q9 33 18 56.5t23.5 38t37.5 22t61 9.5q8 -2 6 -8t-8 -8q-45 -2 -66 -11.5t-30.5 -26t-15 -41t-18.5 -56.5q-2 -5 -7 -7t-8 5q-17 47 -17 96v97zM74 228q-5 -4 -10 1t-1 10q13 17 26.5 31.5t27.5 29.5q7 5 11.5 0.5t-0.5 -11.5
q-14 -15 -27.5 -29.5t-26.5 -31.5z" />
    <glyph glyph-name="rcaron" unicode="&#x159;" horiz-adv-x="193" 
d="M18 220q0 7 7 10t9 -5v-85.5t8 -85.5q9 33 18 56.5t23.5 38t37.5 22t61 9.5q8 -2 6 -8t-8 -8q-45 -2 -66 -11.5t-30.5 -26t-15 -41t-18.5 -56.5q-2 -5 -7 -7t-8 5q-17 47 -17 96v97zM47 280q-2 6 2.5 9.5t9.5 -0.5q9 -11 15 -23t13 -24q4 16 8 36l5 25q2 8 9 7t7 -9
q0 -3 -2.5 -14.5t-5.5 -25.5t-6 -25.5t-4 -14.5q-6 -11 -14 -3q-12 13 -19 30.5t-18 31.5z" />
    <glyph glyph-name="rcommaaccent" unicode="&#x157;" horiz-adv-x="193" 
d="M18 220q0 7 7 10t9 -5v-85.5t8 -85.5q9 33 18 56.5t23.5 38t37.5 22t61 9.5q8 -2 6 -8t-8 -8q-45 -2 -66 -11.5t-30.5 -26t-15 -41t-18.5 -56.5q-2 -5 -7 -7t-8 5q-17 47 -17 96v97zM48 -19q-3 6 1 10t11 1q9 -11 10.5 -21.5t-1.5 -21.5t-9 -21.5t-13 -20.5
q-5 -5 -10.5 -0.5t-1.5 10.5q4 7 9.5 15t8.5 16t2.5 16.5t-7.5 16.5z" />
    <glyph glyph-name="sacute" unicode="&#x15b;" horiz-adv-x="215" 
d="M148 201q6 -5 2.5 -9t-10.5 -4q-11 2 -25.5 3.5t-29 2.5t-27.5 0.5t-21 -2.5q-5 -2 -6.5 -5t3.5 -8q10 -10 25 -20t31.5 -20.5t33.5 -21.5t31 -22q14 3 29 4t29 3q8 -2 5.5 -8t-8.5 -8l-41 -4q13 -13 14 -25.5t-6 -23.5t-19.5 -19t-27.5 -11q-13 -3 -31 -3.5t-35 3.5
t-30 12.5t-15 22.5q0 8 14.5 16.5t33 16t37 13t27.5 7.5q-17 12 -37 25t-37.5 24.5t-30 21t-14.5 15.5q-3 8 -1.5 16.5t12.5 12.5q10 3 25 4t31.5 0.5t34.5 -3t34 -6.5zM121 16q35 8 43.5 25.5t-17.5 37.5q-15 -2 -34 -7.5t-35.5 -11.5t-28.5 -12t-13 -10q0 -8 10 -13t24 -8
t28.5 -3t22.5 2zM65 241q-5 -4 -10 1t-1 10q13 17 26.5 31.5t27.5 29.5q7 5 11.5 0.5t-0.5 -11.5q-14 -15 -27.5 -29.5t-26.5 -31.5z" />
    <glyph glyph-name="scaron" unicode="&#x161;" horiz-adv-x="215" 
d="M148 201q6 -5 2.5 -9t-10.5 -4q-11 2 -25.5 3.5t-29 2.5t-27.5 0.5t-21 -2.5q-5 -2 -6.5 -5t3.5 -8q10 -10 25 -20t31.5 -20.5t33.5 -21.5t31 -22q14 3 29 4t29 3q8 -2 5.5 -8t-8.5 -8l-41 -4q13 -13 14 -25.5t-6 -23.5t-19.5 -19t-27.5 -11q-13 -3 -31 -3.5t-35 3.5
t-30 12.5t-15 22.5q0 8 14.5 16.5t33 16t37 13t27.5 7.5q-17 12 -37 25t-37.5 24.5t-30 21t-14.5 15.5q-3 8 -1.5 16.5t12.5 12.5q10 3 25 4t31.5 0.5t34.5 -3t34 -6.5zM121 16q35 8 43.5 25.5t-17.5 37.5q-15 -2 -34 -7.5t-35.5 -11.5t-28.5 -12t-13 -10q0 -8 10 -13t24 -8
t28.5 -3t22.5 2zM40 296q-2 6 2.5 9.5t9.5 -0.5q9 -11 15 -23t13 -24q4 16 8 36l5 25q2 8 9 7t7 -9q0 -3 -2.5 -14.5t-5.5 -25.5t-6 -25.5t-4 -14.5q-6 -11 -14 -3q-12 13 -19 30.5t-18 31.5z" />
    <glyph glyph-name="scedilla" unicode="&#x15f;" horiz-adv-x="215" 
d="M111 9q-1 -9 -0.5 -17.5t5.5 -13.5t13 -6.5l16 -3t14 -5.5t8 -13q1 -7 -4 -14t-12.5 -12.5t-16 -8.5t-15.5 -1q-3 0 -4 1q-2 1 -3 2q-5 7 -1 12t11 0q2 -2 5.5 -0.5t5.5 3.5q14 7 17 18q-19 8 -30 12t-16.5 8.5t-6.5 12.5t0 23zM148 201q6 -5 2.5 -9t-10.5 -4
q-11 2 -25.5 3.5t-29 2.5t-27.5 0.5t-21 -2.5q-5 -2 -6.5 -5t3.5 -8q10 -10 25 -20t31.5 -20.5t33.5 -21.5t31 -22q14 3 29 4t29 3q8 -2 5.5 -8t-8.5 -8l-41 -4q13 -13 14 -25.5t-6 -23.5t-19.5 -19t-27.5 -11q-13 -3 -31 -3.5t-35 3.5t-30 12.5t-15 22.5q0 8 14.5 16.5
t33 16t37 13t27.5 7.5q-17 12 -37 25t-37.5 24.5t-30 21t-14.5 15.5q-3 8 -1.5 16.5t12.5 12.5q10 3 25 4t31.5 0.5t34.5 -3t34 -6.5zM121 16q35 8 43.5 25.5t-17.5 37.5q-15 -2 -34 -7.5t-35.5 -11.5t-28.5 -12t-13 -10q0 -8 10 -13t24 -8t28.5 -3t22.5 2z" />
    <glyph glyph-name="scircumflex" unicode="&#x15d;" horiz-adv-x="215" 
d="M148 201q6 -5 2.5 -9t-10.5 -4q-11 2 -25.5 3.5t-29 2.5t-27.5 0.5t-21 -2.5q-5 -2 -6.5 -5t3.5 -8q10 -10 25 -20t31.5 -20.5t33.5 -21.5t31 -22q14 3 29 4t29 3q8 -2 5.5 -8t-8.5 -8l-41 -4q13 -13 14 -25.5t-6 -23.5t-19.5 -19t-27.5 -11q-13 -3 -31 -3.5t-35 3.5
t-30 12.5t-15 22.5q0 8 14.5 16.5t33 16t37 13t27.5 7.5q-17 12 -37 25t-37.5 24.5t-30 21t-14.5 15.5q-3 8 -1.5 16.5t12.5 12.5q10 3 25 4t31.5 0.5t34.5 -3t34 -6.5zM121 16q35 8 43.5 25.5t-17.5 37.5q-15 -2 -34 -7.5t-35.5 -11.5t-28.5 -12t-13 -10q0 -8 10 -13t24 -8
t28.5 -3t22.5 2zM62 240q-4 -6 -9 -7t-5 7q3 16 9.5 34t14.5 32q5 8 13 5q3 -3 7 -11t7.5 -17.5l7 -19t6.5 -14.5q8 -2 0 -12l-1 -1q-6 -4 -11 0q-7 9 -12 25t-10 27q-5 -11 -9.5 -24t-7.5 -24z" />
    <glyph glyph-name="scommaaccent" unicode="&#x219;" horiz-adv-x="215" 
d="M148 201q6 -5 2.5 -9t-10.5 -4q-11 2 -25.5 3.5t-29 2.5t-27.5 0.5t-21 -2.5q-5 -2 -6.5 -5t3.5 -8q10 -10 25 -20t31.5 -20.5t33.5 -21.5t31 -22q14 3 29 4t29 3q8 -2 5.5 -8t-8.5 -8l-41 -4q13 -13 14 -25.5t-6 -23.5t-19.5 -19t-27.5 -11q-13 -3 -31 -3.5t-35 3.5
t-30 12.5t-15 22.5q0 8 14.5 16.5t33 16t37 13t27.5 7.5q-17 12 -37 25t-37.5 24.5t-30 21t-14.5 15.5q-3 8 -1.5 16.5t12.5 12.5q10 3 25 4t31.5 0.5t34.5 -3t34 -6.5zM121 16q35 8 43.5 25.5t-17.5 37.5q-15 -2 -34 -7.5t-35.5 -11.5t-28.5 -12t-13 -10q0 -8 10 -13t24 -8
t28.5 -3t22.5 2zM109 -37q-3 6 1 10t11 1q9 -11 10.5 -21.5t-1.5 -21.5t-9 -21.5t-13 -20.5q-5 -5 -10.5 -0.5t-1.5 10.5q4 7 9.5 15t8.5 16t2.5 16.5t-7.5 16.5z" />
    <glyph glyph-name="tbar" unicode="&#x167;" horiz-adv-x="201" 
d="M15 150q-9 0 -6.5 7t8.5 9q20 0 39 1.5t39 3.5q2 51 3.5 102.5t3.5 103.5q2 6 8 8t8 -6q-2 -52 -4.5 -103t-2.5 -102q20 2 38.5 4.5t38.5 4.5q8 -1 6 -7t-8 -8q-19 -2 -37.5 -5t-37.5 -5q-1 -7 -1.5 -25t-0.5 -40.5t2 -47t6 -43.5q-1 -6 -7 -9.5t-9 4.5q-4 20 -6 44.5
t-2 47.5t0.5 41.5t1.5 25.5l-40 -4t-40 -2zM54 244q-7 1 -7 6.5t6 8.5q23 4 46.5 4t47.5 -2q7 -2 7 -8t-8 -8q-23 2 -45.5 2t-46.5 -3z" />
    <glyph glyph-name="tcaron" unicode="&#x165;" horiz-adv-x="208" 
d="M15 150q-9 0 -6.5 7t8.5 9q20 0 39 1.5t39 3.5q2 51 3.5 102.5t3.5 103.5q2 6 8 8t8 -6q-2 -52 -4.5 -103t-2.5 -102q20 2 38.5 4.5t38.5 4.5q8 -1 6 -7t-8 -8q-19 -2 -37.5 -5t-37.5 -5q-1 -7 -1.5 -25t-0.5 -40.5t2 -47t6 -43.5q-1 -6 -7 -9.5t-9 4.5q-4 20 -6 44.5
t-2 47.5t0.5 41.5t1.5 25.5l-40 -4t-40 -2zM167 346q3 -20 11.5 -38.5t12 -35t-3 -30.5t-32.5 -25q-7 -2 -11 3.5t4 10.5q21 9 25 21.5t0 27.5t-11.5 31t-10.5 33q0 8 7 9t9 -7z" />
    <glyph glyph-name="tcommaaccent" unicode="&#x163;" horiz-adv-x="201" 
d="M15 150q-9 0 -6.5 7t8.5 9q20 0 39 1.5t39 3.5q2 51 3.5 102.5t3.5 103.5q2 6 8 8t8 -6q-2 -52 -4.5 -103t-2.5 -102q20 2 38.5 4.5t38.5 4.5q8 -1 6 -7t-8 -8q-19 -2 -37.5 -5t-37.5 -5q-1 -7 -1.5 -25t-0.5 -40.5t2 -47t6 -43.5q-1 -6 -7 -9.5t-9 4.5q-4 20 -6 44.5
t-2 47.5t0.5 41.5t1.5 25.5l-40 -4t-40 -2zM107 -39q-3 6 1 10t11 1q9 -11 10.5 -21.5t-1.5 -21.5t-9 -21.5t-13 -20.5q-5 -5 -10.5 -0.5t-1.5 10.5q4 7 9.5 15t8.5 16t2.5 16.5t-7.5 16.5z" />
    <glyph glyph-name="uacute" unicode="&#xfa;" horiz-adv-x="135" 
d="M16 161q0 7 6.5 10t8.5 -5q0 -6 0.5 -24t2.5 -36.5t6 -34t12 -16.5q6 0 12.5 7.5t12.5 19t11.5 24t8.5 22.5q0 17 0.5 31.5t1.5 24.5q2 11 12 8q9 -7 8.5 -24t-6.5 -37q0 -29 2.5 -56.5t7.5 -37.5q1 -6 -4 -10t-10 1q-5 10 -7.5 27t-3.5 37q-10 -19 -22 -33.5t-23 -18
t-20.5 8t-13.5 44.5q-2 17 -2.5 34t-0.5 34zM45 228q-5 -4 -10 1t-1 10q13 17 26.5 31.5t27.5 29.5q7 5 11.5 0.5t-0.5 -11.5q-14 -15 -27.5 -29.5t-26.5 -31.5z" />
    <glyph glyph-name="ubreve" unicode="&#x16d;" horiz-adv-x="135" 
d="M16 161q0 7 6.5 10t8.5 -5q0 -6 0.5 -24t2.5 -36.5t6 -34t12 -16.5q6 0 12.5 7.5t12.5 19t11.5 24t8.5 22.5q0 17 0.5 31.5t1.5 24.5q2 11 12 8q9 -7 8.5 -24t-6.5 -37q0 -29 2.5 -56.5t7.5 -37.5q1 -6 -4 -10t-10 1q-5 10 -7.5 27t-3.5 37q-10 -19 -22 -33.5t-23 -18
t-20.5 8t-13.5 44.5q-2 17 -2.5 34t-0.5 34zM23 271q0 7 6.5 9t8.5 -5q4 -18 12 -26.5t17 -8t16.5 10t10.5 26.5q3 8 10.5 6t5.5 -10q-4 -23 -16.5 -35t-26.5 -13t-27 10.5t-17 35.5z" />
    <glyph glyph-name="ucircumflex" unicode="&#xfb;" horiz-adv-x="135" 
d="M16 161q0 7 6.5 10t8.5 -5q0 -6 0.5 -24t2.5 -36.5t6 -34t12 -16.5q6 0 12.5 7.5t12.5 19t11.5 24t8.5 22.5q0 17 0.5 31.5t1.5 24.5q2 11 12 8q9 -7 8.5 -24t-6.5 -37q0 -29 2.5 -56.5t7.5 -37.5q1 -6 -4 -10t-10 1q-5 10 -7.5 27t-3.5 37q-10 -19 -22 -33.5t-23 -18
t-20.5 8t-13.5 44.5q-2 17 -2.5 34t-0.5 34zM46 224q-4 -6 -9 -7t-5 7q3 16 9.5 34t14.5 32q5 8 13 5q3 -3 7 -11t7.5 -17.5l7 -19t6.5 -14.5q8 -2 0 -12l-1 -1q-6 -4 -11 0q-7 9 -12 25t-10 27q-5 -11 -9.5 -24t-7.5 -24z" />
    <glyph glyph-name="udieresis" unicode="&#xfc;" horiz-adv-x="135" 
d="M16 161q0 7 6.5 10t8.5 -5q0 -6 0.5 -24t2.5 -36.5t6 -34t12 -16.5q6 0 12.5 7.5t12.5 19t11.5 24t8.5 22.5q0 17 0.5 31.5t1.5 24.5q2 11 12 8q9 -7 8.5 -24t-6.5 -37q0 -29 2.5 -56.5t7.5 -37.5q1 -6 -4 -10t-10 1q-5 10 -7.5 27t-3.5 37q-10 -19 -22 -33.5t-23 -18
t-20.5 8t-13.5 44.5q-2 17 -2.5 34t-0.5 34zM52 244q0 -11 -8 -11.5t-10 10.5v3q2 11 10 10t8 -11v-1zM95 252q4 -10 -4.5 -13t-12.5 6v1l-1 2q-1 8 5.5 11.5t11.5 -4.5v-2q0 -1 1 -1z" />
    <glyph glyph-name="uhungarumlaut" unicode="&#x171;" horiz-adv-x="135" 
d="M16 161q0 7 6.5 10t8.5 -5q0 -6 0.5 -24t2.5 -36.5t6 -34t12 -16.5q6 0 12.5 7.5t12.5 19t11.5 24t8.5 22.5q0 17 0.5 31.5t1.5 24.5q2 11 12 8q9 -7 8.5 -24t-6.5 -37q0 -29 2.5 -56.5t7.5 -37.5q1 -6 -4 -10t-10 1q-5 10 -7.5 27t-3.5 37q-10 -19 -22 -33.5t-23 -18
t-20.5 8t-13.5 44.5q-2 17 -2.5 34t-0.5 34zM51 300q2 8 9 7t7 -9q-2 -24 -10 -45t-16 -44q-4 -6 -10.5 -5t-4.5 9q8 23 15.5 43.5t9.5 43.5zM92 294q-1 7 5 10t10 -4q1 -5 -1.5 -18t-6 -27t-7.5 -26t-4 -15q-4 -6 -11 -5t-5 10l3.5 11.5t7.5 25t7 25.5t2 13z" />
    <glyph glyph-name="ugrave" unicode="&#xf9;" horiz-adv-x="135" 
d="M16 161q0 7 6.5 10t8.5 -5q0 -6 0.5 -24t2.5 -36.5t6 -34t12 -16.5q6 0 12.5 7.5t12.5 19t11.5 24t8.5 22.5q0 17 0.5 31.5t1.5 24.5q2 11 12 8q9 -7 8.5 -24t-6.5 -37q0 -29 2.5 -56.5t7.5 -37.5q1 -6 -4 -10t-10 1q-5 10 -7.5 27t-3.5 37q-10 -19 -22 -33.5t-23 -18
t-20.5 8t-13.5 44.5q-2 17 -2.5 34t-0.5 34zM46 264q-6 6 -1.5 11.5t11.5 0.5q10 -9 18 -19t17 -20q5 -7 0 -11t-12 1q-8 9 -15.5 19t-17.5 18z" />
    <glyph glyph-name="umacron" unicode="&#x16b;" horiz-adv-x="135" 
d="M16 161q0 7 6.5 10t8.5 -5q0 -6 0.5 -24t2.5 -36.5t6 -34t12 -16.5q6 0 12.5 7.5t12.5 19t11.5 24t8.5 22.5q0 17 0.5 31.5t1.5 24.5q2 11 12 8q9 -7 8.5 -24t-6.5 -37q0 -29 2.5 -56.5t7.5 -37.5q1 -6 -4 -10t-10 1q-5 10 -7.5 27t-3.5 37q-10 -19 -22 -33.5t-23 -18
t-20.5 8t-13.5 44.5q-2 17 -2.5 34t-0.5 34zM20 244q-7 1 -7 6.5t6 8.5q23 4 46.5 4t47.5 -2q7 -2 7 -8t-8 -8q-23 2 -45.5 2t-46.5 -3z" />
    <glyph glyph-name="uogonek" unicode="&#x173;" horiz-adv-x="135" 
d="M16 161q0 7 6.5 10t8.5 -5q0 -6 0.5 -24t2.5 -36.5t6 -34t12 -16.5q6 0 12.5 7.5t12.5 19t11.5 24t8.5 22.5q0 17 0.5 31.5t1.5 24.5q2 11 12 8q9 -7 8.5 -24t-6.5 -37q0 -29 2.5 -56.5t7.5 -37.5q1 -6 -4 -10t-10 1q-5 10 -7.5 27t-3.5 37q-10 -19 -22 -33.5t-23 -18
t-20.5 8t-13.5 44.5q-2 17 -2.5 34t-0.5 34zM109 39q8 5 12.5 0.5t-0.5 -11.5q-8 -11 -14 -22.5t-9 -25.5q4 -1 9.5 1t11.5 4.5t11 5t8 4.5q7 0 9 -6t-5 -10q-30 -15 -43.5 -14.5t-15 10.5t6 27t19.5 37z" />
    <glyph glyph-name="uring" unicode="&#x16f;" horiz-adv-x="135" 
d="M16 161q0 7 6.5 10t8.5 -5q0 -6 0.5 -24t2.5 -36.5t6 -34t12 -16.5q6 0 12.5 7.5t12.5 19t11.5 24t8.5 22.5q0 17 0.5 31.5t1.5 24.5q2 11 12 8q9 -7 8.5 -24t-6.5 -37q0 -29 2.5 -56.5t7.5 -37.5q1 -6 -4 -10t-10 1q-5 10 -7.5 27t-3.5 37q-10 -19 -22 -33.5t-23 -18
t-20.5 8t-13.5 44.5q-2 17 -2.5 34t-0.5 34zM68 266q6 0 9 -5q8 -6 12 -14t2.5 -15t-8.5 -11.5t-20 -3.5q-19 1 -21.5 15t7.5 25q-2 4 -0.5 8t7.5 4l10 -3h2zM64 232q14 -2 12.5 5t-10.5 12q-7 -3 -10 -9t8 -8z" />
    <glyph glyph-name="utilde" unicode="&#x169;" horiz-adv-x="135" 
d="M16 161q0 7 6.5 10t8.5 -5q0 -6 0.5 -24t2.5 -36.5t6 -34t12 -16.5q6 0 12.5 7.5t12.5 19t11.5 24t8.5 22.5q0 17 0.5 31.5t1.5 24.5q2 11 12 8q9 -7 8.5 -24t-6.5 -37q0 -29 2.5 -56.5t7.5 -37.5q1 -6 -4 -10t-10 1q-5 10 -7.5 27t-3.5 37q-10 -19 -22 -33.5t-23 -18
t-20.5 8t-13.5 44.5q-2 17 -2.5 34t-0.5 34zM40 230q-2 -8 -8 -7.5t-7 9.5q-1 10 3 18t9 16q8 11 15.5 7t14 -13t12 -17.5t9.5 -6.5t6 11t2 16q0 8 7 5.5t8 -10.5q0 -6 -1.5 -14.5t-6 -15t-11 -8.5t-15.5 5q-8 6 -13.5 14.5t-12.5 16.5q-5 -5 -8 -11.5t-3 -14.5z" />
    <glyph glyph-name="wacute" unicode="&#x1e83;" horiz-adv-x="312" 
d="M15 190q0 8 7 11t8 -6q0 -12 1.5 -36.5t4.5 -51t9 -49.5t14.5 -31t21 3.5t29.5 54.5l6 16t5 16q2 5 6.5 7.5t8.5 -2.5l16 -28t19 -27q8 -10 17 -19.5t19 -16.5q18 -12 32.5 -4t24.5 24.5t15 36.5t4 33q0 6 -2 17t-6.5 23t-11 23t-15.5 17q-8 4 -3.5 10.5t11.5 4.5
q11 -8 19 -22t13.5 -29.5t8 -31.5t1.5 -29q-1 -23 -12.5 -46t-29 -36t-39 -12t-42.5 25q-12 14 -23.5 30t-20.5 33q-3 -7 -7.5 -18.5t-7.5 -17.5q-8 -18 -20 -33t-24.5 -20.5t-24 1t-18.5 32.5q-10 37 -12 74t-2 74zM108 228q-5 -4 -10 1t-1 10q13 17 26.5 31.5t27.5 29.5
q7 5 11.5 0.5t-0.5 -11.5q-14 -15 -27.5 -29.5t-26.5 -31.5z" />
    <glyph glyph-name="wcircumflex" unicode="&#x175;" horiz-adv-x="312" 
d="M15 190q0 8 7 11t8 -6q0 -12 1.5 -36.5t4.5 -51t9 -49.5t14.5 -31t21 3.5t29.5 54.5l6 16t5 16q2 5 6.5 7.5t8.5 -2.5l16 -28t19 -27q8 -10 17 -19.5t19 -16.5q18 -12 32.5 -4t24.5 24.5t15 36.5t4 33q0 6 -2 17t-6.5 23t-11 23t-15.5 17q-8 4 -3.5 10.5t11.5 4.5
q11 -8 19 -22t13.5 -29.5t8 -31.5t1.5 -29q-1 -23 -12.5 -46t-29 -36t-39 -12t-42.5 25q-12 14 -23.5 30t-20.5 33q-3 -7 -7.5 -18.5t-7.5 -17.5q-8 -18 -20 -33t-24.5 -20.5t-24 1t-18.5 32.5q-10 37 -12 74t-2 74zM110 224q-4 -6 -9 -7t-5 7q3 16 9.5 34t14.5 32q5 8 13 5
q3 -3 7 -11t7.5 -17.5l7 -19t6.5 -14.5q8 -2 0 -12l-1 -1q-6 -4 -11 0q-7 9 -12 25t-10 27q-5 -11 -9.5 -24t-7.5 -24z" />
    <glyph glyph-name="wdieresis" unicode="&#x1e85;" horiz-adv-x="312" 
d="M15 190q0 8 7 11t8 -6q0 -12 1.5 -36.5t4.5 -51t9 -49.5t14.5 -31t21 3.5t29.5 54.5l6 16t5 16q2 5 6.5 7.5t8.5 -2.5l16 -28t19 -27q8 -10 17 -19.5t19 -16.5q18 -12 32.5 -4t24.5 24.5t15 36.5t4 33q0 6 -2 17t-6.5 23t-11 23t-15.5 17q-8 4 -3.5 10.5t11.5 4.5
q11 -8 19 -22t13.5 -29.5t8 -31.5t1.5 -29q-1 -23 -12.5 -46t-29 -36t-39 -12t-42.5 25q-12 14 -23.5 30t-20.5 33q-3 -7 -7.5 -18.5t-7.5 -17.5q-8 -18 -20 -33t-24.5 -20.5t-24 1t-18.5 32.5q-10 37 -12 74t-2 74zM115 244q0 -11 -8 -11.5t-10 10.5v3q2 11 10 10t8 -11v-1
zM158 252q4 -10 -4.5 -13t-12.5 6v1l-1 2q-1 8 5.5 11.5t11.5 -4.5v-2q0 -1 1 -1z" />
    <glyph glyph-name="wgrave" unicode="&#x1e81;" horiz-adv-x="312" 
d="M15 190q0 8 7 11t8 -6q0 -12 1.5 -36.5t4.5 -51t9 -49.5t14.5 -31t21 3.5t29.5 54.5l6 16t5 16q2 5 6.5 7.5t8.5 -2.5l16 -28t19 -27q8 -10 17 -19.5t19 -16.5q18 -12 32.5 -4t24.5 24.5t15 36.5t4 33q0 6 -2 17t-6.5 23t-11 23t-15.5 17q-8 4 -3.5 10.5t11.5 4.5
q11 -8 19 -22t13.5 -29.5t8 -31.5t1.5 -29q-1 -23 -12.5 -46t-29 -36t-39 -12t-42.5 25q-12 14 -23.5 30t-20.5 33q-3 -7 -7.5 -18.5t-7.5 -17.5q-8 -18 -20 -33t-24.5 -20.5t-24 1t-18.5 32.5q-10 37 -12 74t-2 74zM108 264q-6 6 -1.5 11.5t11.5 0.5q10 -9 18 -19t17 -20
q5 -7 0 -11t-12 1q-8 9 -15.5 19t-17.5 18z" />
    <glyph glyph-name="yacute" unicode="&#xfd;" horiz-adv-x="152" 
d="M10 150q-2 5 3 10t10 1q16 -20 31 -42t34 -39h2q5 11 8 24t5 27q-4 23 -6.5 47t-1.5 49q1 8 7 9t8 -4q1 -9 2 -25t2.5 -34.5t4 -38t6.5 -36.5q6 -25 13 -49t14 -47l36 9q5 1 6 -4t-4 -8q-8 -2 -16.5 -4.5t-17.5 -4.5q20 -60 41 -124.5t29 -121.5q3 -29 -7.5 -54.5
t-36 -41t-67 -17.5t-99.5 16q-18 5 -44 20.5t-49.5 37.5t-39 47t-13.5 50q4 43 33.5 74t70 54t84.5 39t79 28q-7 24 -14.5 48t-12.5 48q-2 -5 -4 -10.5t-4 -10.5t-8 -7q-13 -1 -25 8.5t-22.5 23.5t-20 29t-16.5 24zM210 -261q0 22 -7.5 52.5t-18 63.5t-22 66.5t-20.5 62.5
q-26 -8 -68.5 -23.5t-84 -38t-71.5 -52t-31 -65.5q0 -24 11 -45.5t30 -39.5t42.5 -32t48.5 -24q26 -11 59.5 -16t63 1.5t49.5 27.5t19 62zM37 228q-5 -4 -10 1t-1 10q13 17 26.5 31.5t27.5 29.5q7 5 11.5 0.5t-0.5 -11.5q-14 -15 -27.5 -29.5t-26.5 -31.5z" />
    <glyph glyph-name="ycircumflex" unicode="&#x177;" horiz-adv-x="152" 
d="M10 150q-2 5 3 10t10 1q16 -20 31 -42t34 -39h2q5 11 8 24t5 27q-4 23 -6.5 47t-1.5 49q1 8 7 9t8 -4q1 -9 2 -25t2.5 -34.5t4 -38t6.5 -36.5q6 -25 13 -49t14 -47l36 9q5 1 6 -4t-4 -8q-8 -2 -16.5 -4.5t-17.5 -4.5q20 -60 41 -124.5t29 -121.5q3 -29 -7.5 -54.5
t-36 -41t-67 -17.5t-99.5 16q-18 5 -44 20.5t-49.5 37.5t-39 47t-13.5 50q4 43 33.5 74t70 54t84.5 39t79 28q-7 24 -14.5 48t-12.5 48q-2 -5 -4 -10.5t-4 -10.5t-8 -7q-13 -1 -25 8.5t-22.5 23.5t-20 29t-16.5 24zM210 -261q0 22 -7.5 52.5t-18 63.5t-22 66.5t-20.5 62.5
q-26 -8 -68.5 -23.5t-84 -38t-71.5 -52t-31 -65.5q0 -24 11 -45.5t30 -39.5t42.5 -32t48.5 -24q26 -11 59.5 -16t63 1.5t49.5 27.5t19 62zM27 224q-4 -6 -9 -7t-5 7q3 16 9.5 34t14.5 32q5 8 13 5q3 -3 7 -11t7.5 -17.5l7 -19t6.5 -14.5q8 -2 0 -12l-1 -1q-6 -4 -11 0
q-7 9 -12 25t-10 27q-5 -11 -9.5 -24t-7.5 -24z" />
    <glyph glyph-name="ydieresis" unicode="&#xff;" horiz-adv-x="152" 
d="M10 150q-2 5 3 10t10 1q16 -20 31 -42t34 -39h2q5 11 8 24t5 27q-4 23 -6.5 47t-1.5 49q1 8 7 9t8 -4q1 -9 2 -25t2.5 -34.5t4 -38t6.5 -36.5q6 -25 13 -49t14 -47l36 9q5 1 6 -4t-4 -8q-8 -2 -16.5 -4.5t-17.5 -4.5q20 -60 41 -124.5t29 -121.5q3 -29 -7.5 -54.5
t-36 -41t-67 -17.5t-99.5 16q-18 5 -44 20.5t-49.5 37.5t-39 47t-13.5 50q4 43 33.5 74t70 54t84.5 39t79 28q-7 24 -14.5 48t-12.5 48q-2 -5 -4 -10.5t-4 -10.5t-8 -7q-13 -1 -25 8.5t-22.5 23.5t-20 29t-16.5 24zM210 -261q0 22 -7.5 52.5t-18 63.5t-22 66.5t-20.5 62.5
q-26 -8 -68.5 -23.5t-84 -38t-71.5 -52t-31 -65.5q0 -24 11 -45.5t30 -39.5t42.5 -32t48.5 -24q26 -11 59.5 -16t63 1.5t49.5 27.5t19 62zM44 244q0 -11 -8 -11.5t-10 10.5v3q2 11 10 10t8 -11v-1zM87 252q4 -10 -4.5 -13t-12.5 6v1l-1 2q-1 8 5.5 11.5t11.5 -4.5v-2
q0 -1 1 -1z" />
    <glyph glyph-name="ygrave" unicode="&#x1ef3;" horiz-adv-x="152" 
d="M10 150q-2 5 3 10t10 1q16 -20 31 -42t34 -39h2q5 11 8 24t5 27q-4 23 -6.5 47t-1.5 49q1 8 7 9t8 -4q1 -9 2 -25t2.5 -34.5t4 -38t6.5 -36.5q6 -25 13 -49t14 -47l36 9q5 1 6 -4t-4 -8q-8 -2 -16.5 -4.5t-17.5 -4.5q20 -60 41 -124.5t29 -121.5q3 -29 -7.5 -54.5
t-36 -41t-67 -17.5t-99.5 16q-18 5 -44 20.5t-49.5 37.5t-39 47t-13.5 50q4 43 33.5 74t70 54t84.5 39t79 28q-7 24 -14.5 48t-12.5 48q-2 -5 -4 -10.5t-4 -10.5t-8 -7q-13 -1 -25 8.5t-22.5 23.5t-20 29t-16.5 24zM210 -261q0 22 -7.5 52.5t-18 63.5t-22 66.5t-20.5 62.5
q-26 -8 -68.5 -23.5t-84 -38t-71.5 -52t-31 -65.5q0 -24 11 -45.5t30 -39.5t42.5 -32t48.5 -24q26 -11 59.5 -16t63 1.5t49.5 27.5t19 62zM28 264q-6 6 -1.5 11.5t11.5 0.5q10 -9 18 -19t17 -20q5 -7 0 -11t-12 1q-8 9 -15.5 19t-17.5 18z" />
    <glyph glyph-name="zacute" unicode="&#x17a;" horiz-adv-x="174" 
d="M19 162q-10 -3 -10 2.5t7 10.5q13 7 39 13t50 7q35 2 47 -5.5t9.5 -20.5t-16 -30.5t-29.5 -35.5t-30.5 -34.5t-19.5 -27.5q6 -7 16 -9t22 -0.5t24.5 4.5t21.5 5q4 1 5.5 -1t1 -4.5t-3 -5t-6.5 -3.5q-12 -3 -27 -6.5t-29.5 -4.5t-26 2t-16.5 12q-3 6 9.5 24t30 38t34 38.5
t19.5 25.5q6 13 0 19.5t-18.5 7.5t-29 -1.5t-32 -6t-27.5 -7.5t-15 -6zM64 228q-5 -4 -10 1t-1 10q13 17 26.5 31.5t27.5 29.5q7 5 11.5 0.5t-0.5 -11.5q-14 -15 -27.5 -29.5t-26.5 -31.5z" />
    <glyph glyph-name="zcaron" unicode="&#x17e;" horiz-adv-x="174" 
d="M19 162q-10 -3 -10 2.5t7 10.5q13 7 39 13t50 7q35 2 47 -5.5t9.5 -20.5t-16 -30.5t-29.5 -35.5t-30.5 -34.5t-19.5 -27.5q6 -7 16 -9t22 -0.5t24.5 4.5t21.5 5q4 1 5.5 -1t1 -4.5t-3 -5t-6.5 -3.5q-12 -3 -27 -6.5t-29.5 -4.5t-26 2t-16.5 12q-3 6 9.5 24t30 38t34 38.5
t19.5 25.5q6 13 0 19.5t-18.5 7.5t-29 -1.5t-32 -6t-27.5 -7.5t-15 -6zM46 277q-2 6 2.5 9.5t9.5 -0.5q9 -11 15 -23t13 -24q4 16 8 36l5 25q2 8 9 7t7 -9q0 -3 -2.5 -14.5t-5.5 -25.5t-6 -25.5t-4 -14.5q-6 -11 -14 -3q-12 13 -19 30.5t-18 31.5z" />
    <glyph glyph-name="zdotaccent" unicode="&#x17c;" horiz-adv-x="174" 
d="M19 162q-10 -3 -10 2.5t7 10.5q13 7 39 13t50 7q35 2 47 -5.5t9.5 -20.5t-16 -30.5t-29.5 -35.5t-30.5 -34.5t-19.5 -27.5q6 -7 16 -9t22 -0.5t24.5 4.5t21.5 5q4 1 5.5 -1t1 -4.5t-3 -5t-6.5 -3.5q-12 -3 -27 -6.5t-29.5 -4.5t-26 2t-16.5 12q-3 6 9.5 24t30 38t34 38.5
t19.5 25.5q6 13 0 19.5t-18.5 7.5t-29 -1.5t-32 -6t-27.5 -7.5t-15 -6zM94 252q4 -10 -4.5 -13t-13.5 6v3q-1 8 5.5 11.5t11.5 -4.5v-2q0 -1 1 -1z" />
    <glyph glyph-name="Eth" unicode="&#xd0;" horiz-adv-x="310" 
d="M14 37q2 35 3.5 69.5t3.5 69.5q-2 40 -1 73.5t13 45.5l9.5 9.5t9.5 5.5q8 2 23 -5t30.5 -16.5t28.5 -19.5t19 -13q13 -9 36 -24.5t45.5 -33.5t40.5 -37t21 -35q7 -33 -12.5 -59.5t-51 -43t-68.5 -21t-66 6.5q-5 6 -1 11.5t11 0.5q10 -8 28.5 -7.5t39.5 6.5t42.5 17
t37.5 25t23.5 29.5t1.5 31.5q-5 11 -20 27.5t-36 34t-45.5 36t-48 33.5t-43.5 26t-32 14q-9 -9 -13 -25.5t-5.5 -35.5t-1 -38t-0.5 -33q3 -39 4 -74.5t-10 -52.5v-4l-2 1q-1 0 -1 -1q-5 -2 -8.5 -0.5t-4.5 6.5zM8 124q-7 1 -7 6.5t6 8.5q23 4 46.5 4t47.5 -2q7 -2 7 -8
t-8 -8q-23 2 -45.5 2t-46.5 -3z" />
    <glyph glyph-name="Eng" unicode="&#x14a;" horiz-adv-x="186" 
d="M16 279q1 8 8 7t7 -9q-1 -30 -4 -60l-6 -60t-4.5 -60t1.5 -60q16 26 28 57t22.5 62.5t20.5 60t23 50.5q6 4 10 2q12 -4 19.5 -29.5t12.5 -57t7 -61t3 -41.5q2 -37 2.5 -72.5t-10.5 -70.5q-6 -21 -19.5 -26.5t-28 -0.5t-26.5 18t-15 29q2 8 8 7.5t8 -6.5q1 -10 7 -17.5
t13 -11.5t14 -4.5t11 2.5q11 9 16 32.5t5.5 55t-2.5 67t-7.5 68.5t-10 60t-9.5 41q-1 0 -6.5 -14.5t-13.5 -38t-17.5 -51.5t-19.5 -53.5t-19.5 -45.5t-16.5 -26q-5 -6 -13.5 -4t-10.5 11q-3 31 -2 62.5t4 63t6.5 62.5t4.5 62z" />
    <glyph glyph-name="eng" unicode="&#x14b;" horiz-adv-x="227" 
d="M29 176q2 6 7.5 8.5t7.5 -5.5q-2 -32 -5.5 -65t-3.5 -66q12 21 22 44.5t20.5 40t23.5 21.5t30 -11q13 -14 28.5 -36t29 -47t23 -50t10.5 -44q-2 -22 -16.5 -33t-34 -13t-40 3.5t-35.5 15.5q-6 6 -1.5 11.5t10.5 0.5q9 -6 27 -11t35 -4.5t29.5 8t10.5 24.5
q-3 25 -17.5 55.5t-32.5 56.5t-34.5 43t-22.5 15q-12 -10 -19.5 -23.5t-13.5 -28t-12.5 -29t-16.5 -26.5q-4 -4 -9.5 -4t-7.5 6q-5 35 0 72t8 71z" />
    <glyph glyph-name="uni1E02" unicode="&#x1e02;" horiz-adv-x="239" 
d="M26 265q1 7 5.5 7.5t7.5 -2.5l1 1q27 43 54 43t37 -50q5 -32 -8.5 -59.5t-28.5 -51.5q18 7 40 10t42 1t34.5 -9.5t17.5 -22.5q5 -28 -16 -59.5t-53.5 -54t-68.5 -31t-61 8.5q-9 6 -14 17.5t-12 21.5q-4 11 7 11v2q0 40 1.5 80.5t9.5 82.5zM37 220q-5 -48 -7.5 -96.5
t-4.5 -96.5q7 -12 14 -18q18 -15 45 -8t53 24.5t47 40t27 38.5q7 17 -1 26.5t-21 14.5q-10 4 -24.5 5t-30 -1.5t-29 -7t-22.5 -11.5q-2 -6 -6.5 -8t-7.5 -0.5t-3.5 6.5t5.5 13q7 15 16 29t15.5 28.5t10.5 30t2 33.5q-1 9 -5 18t-10.5 14t-14 4.5t-16.5 -9.5q-23 -27 -32 -69
zM96 360q4 -10 -4.5 -13t-13.5 6v3q-1 8 5.5 11.5t11.5 -4.5v-2q0 -1 1 -1z" />
    <glyph glyph-name="uni1E03" unicode="&#x1e03;" horiz-adv-x="223" 
d="M26 213q-9 -1 -11.5 -2t-4.5 -2q-15 -5 -16.5 1.5t3.5 12.5l29 6q-1 71 2 142t19 140q3 12 7.5 27t10.5 26q21 40 46 38q29 -4 48.5 -31t31 -62.5t16 -71t3.5 -56.5q-2 -31 -17.5 -57.5t-40 -47t-54 -35.5t-57.5 -23v-45t0.5 -17.5l1 -11t1.5 -25.5q5 14 15 26t27 23
q22 13 39 -0.5t19 -35.5q2 -20 -7.5 -35t-24 -25t-30.5 -13.5t-28 0.5v-55q0 -5 -6.5 -8.5t-8.5 4.5q-5 30 -7.5 60.5t-3.5 62.5q-1 21 -1 27.5v12t-0.5 15t-0.5 35.5zM118 583q-20 4 -33 -15t-21.5 -51.5t-13 -74t-6.5 -82t-2.5 -75t-0.5 -52.5q27 7 52.5 19.5t46.5 30.5
t35.5 42t18.5 54q2 13 -1.5 44.5t-13 65.5t-25 61.5t-36.5 32.5zM105 156q-9 1 -20.5 -9t-19.5 -23.5t-10 -27.5t6 -21q6 -5 20 -2t26.5 12.5t19.5 24t-1 31.5q-2 6 -8 10.5t-13 4.5zM117 209q4 -10 -4.5 -13t-13.5 6v3q-1 8 5.5 11.5t11.5 -4.5v-2q0 -1 1 -1z" />
    <glyph glyph-name="uni1E0A" unicode="&#x1e0a;" horiz-adv-x="296" 
d="M3 37q2 35 3.5 69.5t3.5 69.5q-2 40 -1 73.5t13 45.5l9.5 9.5t9.5 5.5q8 2 23 -5t30.5 -16.5t28.5 -19.5t19 -13q13 -9 36 -24.5t45.5 -33.5t40.5 -37t21 -35q7 -33 -12.5 -59.5t-51 -43t-68.5 -21t-66 6.5q-5 6 -1 11.5t11 0.5q10 -8 28.5 -7.5t39.5 6.5t42.5 17
t37.5 25t23.5 29.5t1.5 31.5q-5 11 -20 27.5t-36 34t-45.5 36t-48 33.5t-43.5 26t-32 14q-9 -9 -13 -25.5t-5.5 -35.5t-1 -38t-0.5 -33q3 -39 4 -74.5t-10 -52.5v-4l-2 1q-1 0 -1 -1q-5 -2 -8.5 -0.5t-4.5 6.5zM70 356q4 -10 -4.5 -13t-13.5 6v3q-1 8 5.5 11.5t11.5 -4.5v-2
q0 -1 1 -1z" />
    <glyph glyph-name="uni1E0B" unicode="&#x1e0b;" horiz-adv-x="131" 
d="M106 152q6 -7 5 -14t-4 -9q1 -17 1.5 -32.5t2.5 -30.5q1 -6 3.5 -20.5t6.5 -29t9 -25t11 -7.5q8 5 9.5 -1.5t-4.5 -11.5q-14 -9 -23.5 2.5t-15 29.5t-8 36t-2.5 22q-2 8 -3 19t-2 20q-5 -12 -15 -22.5t-21.5 -14.5t-23.5 -1t-19 18q-8 16 -3 32t18 28t30 18.5t33 3.5
l-9 206q3 4 6.5 6t6.5 -3q3 -18 5 -47.5t3 -62t2 -62t1 -47.5zM59 80q15 14 22.5 30t10.5 35q-11 3 -25 -0.5t-25 -12t-17 -20.5t0 -25q5 -9 14 -12t20 5zM57 191q4 -10 -4.5 -13t-13.5 6v3q-1 8 5.5 11.5t11.5 -4.5v-2q0 -1 1 -1z" />
    <glyph glyph-name="uni1E1E" unicode="&#x1e1e;" horiz-adv-x="242" 
d="M56 108q-7 2 -7 7t5 9h12l-10 77l-5 41q-21 -3 -41 -3q-8 1 -8 6.5t6 8.5q11 0 20.5 1t19.5 3v1q0 5 -2.5 11t-3 11t1.5 9t10 6q8 0 9.5 -6t-4.5 -10h-2q2 -2 3.5 -5.5t3.5 -11.5v-3q41 7 80.5 15t81.5 10q8 0 9 -7t-8 -8q-41 -2 -80.5 -10.5t-79.5 -14.5l5 -43l9 -77
q38 5 73 13t72 17q7 0 9 -6t-5 -10q-37 -8 -73 -16t-73 -13q6 -46 16 -87q0 -7 -6 -8.5t-9 5.5q-5 22 -9 44t-8 45q-4 -1 -12 -1zM128 351q4 -10 -4.5 -13t-13.5 6v3q-1 8 5.5 11.5t11.5 -4.5v-2q0 -1 1 -1z" />
    <glyph glyph-name="uni1E1F" unicode="&#x1e1f;" horiz-adv-x="186" 
d="M14 109q-6 3 -7.5 5t4.5 11q8 2 12.5 3t12.5 3q0 52 3.5 102.5t8.5 100.5q0 12 4 39t13 53t23.5 43.5t35.5 8.5q19 -8 34 -33t24 -59t11 -71.5t-5 -69.5q-5 -20 -17.5 -40t-31 -37t-41 -30t-46.5 -20q1 -18 0.5 -32.5t1.5 -31.5q26 1 53 -11t48.5 -32.5t34.5 -46.5
t11 -52q-2 -15 -11 -34.5t-22.5 -35t-31 -22t-35.5 5.5q-18 13 -29 39.5t-18 57.5t-10.5 61t-4.5 51q-4 -1 -7.5 -2.5t-8.5 -3.5q5 -3 2 -9t-9 -6q-5 1 -8 1t-5 5q-3 7 0.5 12.5t10 9t13.5 6t11 3.5q-1 17 -1.5 31t-0.5 31zM59 269q-6 -66 -6 -132q42 14 76.5 42t43.5 68
q6 25 5.5 59t-7.5 66t-20.5 57t-33.5 33q-19 2 -30 -20.5t-17 -55t-8 -65.5t-3 -52zM176 -115q13 30 5 57.5t-28.5 49t-47.5 34t-51 11.5q0 -7 2 -27t6.5 -45.5t11.5 -51.5t17 -45.5t23 -27.5t29 4q11 7 19.5 18t13.5 23zM107 518q4 -10 -4.5 -13t-13.5 6v3q-1 8 5.5 11.5
t11.5 -4.5v-2q0 -1 1 -1z" />
    <glyph glyph-name="uni1E40" unicode="&#x1e40;" horiz-adv-x="368" 
d="M21 -19q-4 -8 -8.5 -6t-7 7t-2 10t7.5 4q28 44 41 95t24 101v1q3 21 5.5 42.5t4.5 42.5v15.5t2 14.5v6l1 -1v1q4 6 9.5 4t5.5 -9q0 -11 -0.5 -20.5t-1.5 -20.5q1 -23 5 -50.5t9.5 -54t12.5 -49.5t13 -37q3 -6 7 -15t10 -17.5t13.5 -13.5t16.5 -2q17 4 28.5 19.5t18 37.5
t10 48.5t3.5 52.5q-4 25 -5.5 51t-1.5 52q2 8 7.5 8t7.5 -6h1v-1q5 -29 8 -62.5t0 -67.5q5 -34 14.5 -64t25.5 -47q2 -2 6 -4t10 -2.5t13.5 2.5t16.5 12q7 0 8 -5.5t-4 -10.5q-8 -7 -15.5 -11.5t-16.5 -4.5q-20 0 -32 16.5t-17 31.5q-4 13 -7.5 25t-6.5 25q-4 -23 -14 -48
q-15 -39 -33.5 -53t-36.5 -9t-33.5 27t-25.5 55q-8 28 -13.5 56t-9.5 51q-8 -59 -26 -115.5t-48 -106.5zM191 351q4 -10 -4.5 -13t-13.5 6v3q-1 8 5.5 11.5t11.5 -4.5v-2q0 -1 1 -1z" />
    <glyph glyph-name="uni1E41" unicode="&#x1e41;" horiz-adv-x="358" 
d="M34 237q4 5 10 5t4 -8q-6 -11 -9.5 -38t-4.5 -57.5t0.5 -58t5.5 -39.5q15 35 26 70.5t31 67.5q3 4 6.5 6t7.5 -3q4 -17 7 -41.5t9 -49t17.5 -43.5t32.5 -25q18 -5 29 12t17 41t8 48t2 34q0 6 6.5 9t9.5 -5q1 -20 6 -43t16 -41t28.5 -27.5t43.5 -3.5q9 2 8.5 -5.5
t-8.5 -9.5q-20 -5 -36 -2t-28 12t-20 23t-14 30q-1 -13 -6 -28t-13 -28t-20.5 -21.5t-28.5 -8.5q-22 0 -35.5 17t-22 40t-13 48t-7.5 42q-8 -17 -13.5 -35t-11.5 -36t-13.5 -34.5t-19.5 -30.5q-9 -7 -12 2q-5 14 -8 44t-2.5 63.5t4 63.5t11.5 44zM186 244q4 -10 -4.5 -13
t-13.5 6v3q-1 8 5.5 11.5t11.5 -4.5v-2q0 -1 1 -1z" />
    <glyph glyph-name="uni1E56" unicode="&#x1e56;" 
d="M18 265q2 7 7 8.5t7 -1.5l3 9q4 9 13 14t19 6.5t18.5 0.5t13.5 -2q14 -5 30.5 -14.5t29.5 -23t19.5 -32.5t2.5 -44q-5 -21 -21 -40t-40 -33q-37 -21 -75 -31q0 -3 1.5 -15.5t3 -26.5t2.5 -25t1 -12q-2 -5 -9 -6t-9 4q-1 6 -2.5 16.5t-3 22t-3 22t-1.5 17.5q-9 -1 -15 1
t-7 8q-2 8 5.5 14.5t13.5 8.5q-3 38 -4 77t0 77zM49 275q-7 -9 -9 -28.5t-2 -44.5t2 -52.5t4 -52.5q28 5 56 20t46.5 35.5t22 45t-17.5 49.5q-5 6 -17.5 16t-28 17t-31 7.5t-25.5 -12.5zM20 95q2 0 2 -0.5t1 -0.5q0 3 -1 4zM93 357q4 -10 -4.5 -13t-13.5 6v3q-1 8 5.5 11.5
t11.5 -4.5v-2q0 -1 1 -1z" />
    <glyph glyph-name="uni1E57" unicode="&#x1e57;" horiz-adv-x="170" 
d="M3 194q0 6 5 9.5t9 -2.5q5 -29 9 -63.5t7 -63.5q1 15 9 38.5t20 44t27.5 32.5t32.5 5q27 -11 34 -39.5t-3 -57t-34 -48.5t-58 -14q-8 0 -6.5 6.5t6.5 8.5q29 -7 49.5 9t29 40t3 47.5t-28.5 32.5q-19 -2 -33.5 -22t-23.5 -49.5t-13 -64t-3 -65.5q10 -83 15 -169
q-1 -8 -7.5 -8t-7.5 5q-11 96 -18.5 193.5t-19.5 194.5zM114 252q4 -10 -4.5 -13t-13.5 6v3q-1 8 5.5 11.5t11.5 -4.5v-2q0 -1 1 -1z" />
    <glyph glyph-name="uni1E60" unicode="&#x1e60;" horiz-adv-x="284" 
d="M203 220q3 -8 -4 -11t-11 4l-4 18t-8 15q-12 14 -32.5 17.5t-41.5 -1t-40.5 -14t-30.5 -21.5q-11 -11 -11.5 -28t10.5 -29q20 -20 41.5 -32t45 -19t48 -11.5t49.5 -9.5q6 -2 17 -4.5t21.5 -7.5t17 -11.5t3.5 -15.5t-13 -14.5t-22 -9.5t-24.5 -5.5t-21.5 -2.5
q-15 -2 -34 -3t-39 -0.5t-39.5 2.5t-34.5 6q-19 5 -24.5 13.5t1.5 27.5q5 7 10.5 5.5t5.5 -9.5l-6 -14q7 -5 25 -8.5t41 -5.5t48.5 -2t48 2.5t39 7.5t21.5 13q-1 5 -7 8.5t-13 6t-14.5 4t-11.5 2.5q-15 5 -49 10.5t-69 17.5t-62 33t-27 57q0 26 24.5 45t56.5 27t62.5 5
t42.5 -20q11 -15 11.5 -22t3.5 -16zM128 335q4 -10 -4.5 -13t-13.5 6v3q-1 8 5.5 11.5t11.5 -4.5v-2q0 -1 1 -1z" />
    <glyph glyph-name="uni1E61" unicode="&#x1e61;" horiz-adv-x="215" 
d="M148 201q6 -5 2.5 -9t-10.5 -4q-11 2 -25.5 3.5t-29 2.5t-27.5 0.5t-21 -2.5q-5 -2 -6.5 -5t3.5 -8q10 -10 25 -20t31.5 -20.5t33.5 -21.5t31 -22q14 3 29 4t29 3q8 -2 5.5 -8t-8.5 -8l-41 -4q13 -13 14 -25.5t-6 -23.5t-19.5 -19t-27.5 -11q-13 -3 -31 -3.5t-35 3.5
t-30 12.5t-15 22.5q0 8 14.5 16.5t33 16t37 13t27.5 7.5q-17 12 -37 25t-37.5 24.5t-30 21t-14.5 15.5q-3 8 -1.5 16.5t12.5 12.5q10 3 25 4t31.5 0.5t34.5 -3t34 -6.5zM121 16q35 8 43.5 25.5t-17.5 37.5q-15 -2 -34 -7.5t-35.5 -11.5t-28.5 -12t-13 -10q0 -8 10 -13t24 -8
t28.5 -3t22.5 2zM95 252q4 -10 -4.5 -13t-13.5 6v3q-1 8 5.5 11.5t11.5 -4.5v-2q0 -1 1 -1z" />
    <glyph glyph-name="uni1E6A" unicode="&#x1e6a;" horiz-adv-x="288" 
d="M10 258q-8 2 -8 7.5t6 8.5q66 2 132 8t132 8q8 0 9 -7t-7 -9q-32 -2 -63.5 -3.5t-63.5 -4.5q1 -66 7 -130t19 -129q0 -8 -6 -9t-10 5q-12 66 -18.5 131t-7.5 131q-30 -2 -60.5 -4t-60.5 -3zM146 351q4 -10 -4.5 -13t-13.5 6v3q-1 8 5.5 11.5t11.5 -4.5v-2q0 -1 1 -1z" />
    <glyph glyph-name="uni1E6B" unicode="&#x1e6b;" horiz-adv-x="201" 
d="M15 150q-9 0 -6.5 7t8.5 9q20 0 39 1.5t39 3.5q2 51 3.5 102.5t3.5 103.5q2 6 8 8t8 -6q-2 -52 -4.5 -103t-2.5 -102q20 2 38.5 4.5t38.5 4.5q8 -1 6 -7t-8 -8q-19 -2 -37.5 -5t-37.5 -5q-1 -7 -1.5 -25t-0.5 -40.5t2 -47t6 -43.5q-1 -6 -7 -9.5t-9 4.5q-4 20 -6 44.5
t-2 47.5t0.5 41.5t1.5 25.5l-40 -4t-40 -2zM120 439q4 -10 -4.5 -13t-13.5 6v3q-1 8 5.5 11.5t11.5 -4.5v-2q0 -1 1 -1z" />
    <glyph glyph-name="c" unicode="c" 
d="M123 122q-1 -6 -7 -9.5t-9 4.5q-1 6 -1.5 17.5t-3 23t-8 20.5t-14.5 10q-11 1 -22 -12.5t-19.5 -33t-13 -42t-0.5 -41t17.5 -28.5t39.5 -4q22 5 49.5 17t48.5 25q8 5 9.5 -1.5t-4.5 -11.5q-36 -24 -77 -40q-39 -13 -61.5 -4t-32 31t-7 50.5t13 54t27.5 42t38 13.5
q12 -1 18.5 -10.5t10.5 -22t5.5 -26z" />
    <glyph glyph-name="x" unicode="x" horiz-adv-x="149" 
d="M9 185q-1 7 5.5 10t8.5 -5q5 -22 14.5 -42.5t21.5 -40.5q15 26 31 50.5t34 43.5q6 5 11 1.5t0 -10.5q-19 -19 -36 -45t-32 -54q14 -20 28 -39.5t28 -38.5q2 -6 -2.5 -10.5t-10.5 0.5q-13 17 -26.5 35t-25.5 36l-23 -43q-4 -5 -9.5 -4t-3.5 9l28 52q-14 23 -25 46t-16 49z
" />
    <glyph glyph-name="s" unicode="s" horiz-adv-x="215" 
d="M148 201q6 -5 2.5 -9t-10.5 -4q-11 2 -25.5 3.5t-29 2.5t-27.5 0.5t-21 -2.5q-5 -2 -6.5 -5t3.5 -8q10 -10 25 -20t31.5 -20.5t33.5 -21.5t31 -22q14 3 29 4t29 3q8 -2 5.5 -8t-8.5 -8l-41 -4q13 -13 14 -25.5t-6 -23.5t-19.5 -19t-27.5 -11q-13 -3 -31 -3.5t-35 3.5
t-30 12.5t-15 22.5q0 8 14.5 16.5t33 16t37 13t27.5 7.5q-17 12 -37 25t-37.5 24.5t-30 21t-14.5 15.5q-3 8 -1.5 16.5t12.5 12.5q10 3 25 4t31.5 0.5t34.5 -3t34 -6.5zM121 16q35 8 43.5 25.5t-17.5 37.5q-15 -2 -34 -7.5t-35.5 -11.5t-28.5 -12t-13 -10q0 -8 10 -13t24 -8
t28.5 -3t22.5 2z" />
    </font>
</defs>
</svg>
